<?xml version="1.0" encoding="UTF-8"?> <svg xmlns="http://www.w3.org/2000/svg" xmlns:xlink="http://www.w3.org/1999/xlink" version="1.0" id="Layer_1" x="0px" y="0px" viewBox="0 0 200 100" style="enable-background:new 0 0 200 100;" xml:space="preserve"> <style type="text/css"> .st0{fill:#AC5366;} .st1{fill:#232174;} .st2{fill:#231F20;} .st3{fill:#28CBD2;} .st4{fill:#242021;} .st5{fill:#EF9BC1;} .st6{fill:#E9B7F0;} .st7{fill:#070707;} .st8{fill:#736357;} .st9{fill:#59555D;} .st10{fill:#0A0707;} .st11{fill:#010101;} .st12{fill:#0A0C0C;} .st13{fill:#57D0F3;} .st14{fill:#FFFFFF;} .st15{fill:#2D70AF;} .st16{fill:#302F2E;} .st17{fill:#08944E;} .st18{fill:#D8176E;} .st19{fill:#080808;} .st20{fill:#E6623C;} .st21{fill:#0B0A0B;} .st22{fill:#0C0F46;} .st23{fill:#9E005D;} .st24{fill:#4A3A2B;} .st25{fill:#AEA49C;} .st26{fill:#4E4644;} .st27{fill:#036434;} .st28{fill:#3F3A35;} .st29{fill:#919B3F;} .st30{fill:#0F0606;} .st31{fill:#282C96;} .st32{fill:#F2863B;} .st33{fill:#70A2D6;} .st34{fill:#7096D6;} .st35{fill:#4A4745;} .st36{fill:none;} .st37{fill:#020202;} .st38{fill:#991C32;} .st39{fill:#F48888;} .st40{fill:#6AAAAA;} .st41{fill:#112263;} .st42{fill:#627F31;} .st43{fill:#02146F;} .st44{fill:url(#XMLID_00000036219056901412625890000003840230501115321006_);} .st45{fill:url(#XMLID_00000127759766325114096720000006511114093046626189_);} .st46{fill-rule:evenodd;clip-rule:evenodd;fill:url(#SVGID_1_);} .st47{fill-rule:evenodd;clip-rule:evenodd;fill:url(#SVGID_00000063631968967173802940000016508128904281312148_);} .st48{fill-rule:evenodd;clip-rule:evenodd;fill:url(#SVGID_00000056426552114914299630000004247540933237519246_);} .st49{fill:url(#SVGID_00000111889451518056888860000014114694418380126609_);} .st50{fill:url(#SVGID_00000106104813709255364490000006134041017573705657_);} .st51{fill:url(#SVGID_00000035506211080192495800000002280958967450358456_);} .st52{fill:url(#SVGID_00000001633033117095766930000008106551725926193304_);} .st53{fill:url(#SVGID_00000137107482780444290150000005163242653787795129_);} .st54{fill:url(#SVGID_00000173162622785516408340000009555040576703286408_);} .st55{fill:url(#SVGID_00000100346584961403371240000000030783873247857286_);} .st56{fill:url(#SVGID_00000160901217764618577000000003763647665377205937_);} .st57{fill:url(#SVGID_00000027571855763183327060000012027571492020718773_);} .st58{fill:url(#SVGID_00000067923282850916013260000015567153163054593171_);} .st59{fill:url(#SVGID_00000155145375899878642560000010465424705561372830_);} .st60{fill:url(#SVGID_00000025412357356733000120000010912880619207843971_);} .st61{fill:url(#SVGID_00000091707386224801958050000014181592626438139540_);} .st62{fill:url(#SVGID_00000060734997737319809420000010550571227329868940_);} .st63{fill:url(#SVGID_00000106863471226004460650000002525663605325036975_);} .st64{fill:url(#SVGID_00000024710030765322298470000016709120715025903794_);} .st65{fill:url(#SVGID_00000134932510532458530790000005780391549852958606_);} .st66{fill:url(#SVGID_00000055684959149512109040000006217315389251935670_);} .st67{fill:url(#SVGID_00000150809921541815282760000007358879689903094418_);} .st68{fill:url(#SVGID_00000171000153374261713520000017031323245215337858_);} .st69{fill:url(#SVGID_00000065055741133479857660000009199057842817362074_);} .st70{fill:url(#SVGID_00000005248116707848119190000000424641535509784216_);} .st71{fill:url(#SVGID_00000000224628145581639590000004059317721189801388_);} .st72{fill:url(#SVGID_00000029038186825364302580000016837302137984354751_);} .st73{fill:url(#SVGID_00000127732923326775931690000008867387980438286997_);} .st74{fill:url(#SVGID_00000116918174674404870700000011239561792292243631_);} .st75{fill:url(#SVGID_00000018938264578033020910000016485339870063499678_);} .st76{fill:url(#SVGID_00000034800390335290094920000012897977390417013155_);} .st77{fill:url(#SVGID_00000000928619096462893690000001743186036072400290_);} .st78{fill:url(#SVGID_00000051345662066097474380000002373766335356564384_);} .st79{fill:url(#SVGID_00000023964108211512363890000009424850223196105643_);} .st80{fill:url(#SVGID_00000085960648069434908190000015458015760863290528_);} .st81{fill:url(#SVGID_00000116201499758799053860000005474797463808768944_);} .st82{fill:url(#SVGID_00000134966811391915493190000007064745148845631921_);} .st83{fill:url(#SVGID_00000058575561826716623740000001644364251917248150_);} .st84{fill:url(#SVGID_00000126310606969058945260000014776848612742400395_);} .st85{fill:url(#SVGID_00000037679418430883447870000010098267954136398222_);} .st86{fill:url(#SVGID_00000061455268403068871160000008209445602778705555_);} .st87{fill:#251A17;} .st88{fill:url(#SVGID_00000173125709548767238820000001129471384277659052_);} .st89{fill:url(#SVGID_00000177449378123970492070000012219911667418941328_);} .st90{fill:url(#SVGID_00000163061962423034115450000000664187056698270651_);} .st91{fill:url(#SVGID_00000088096440031053313230000003721224280579407271_);} .st92{fill:#006750;} .st93{fill:#050505;} .st94{fill:#262223;} .st95{fill:#40A448;} .st96{fill:#3FA9F5;} .st97{fill:#611417;} .st98{fill:#0D0B0E;} .st99{fill:#B51310;} .st100{fill:#040404;} .st101{fill:#141414;} .st102{fill:#171717;} .st103{fill:#212121;} .st104{fill:#0B0B0B;} .st105{fill:#0A0A0A;} .st106{fill:#1B1B1B;} .st107{fill:#CE3C78;} .st108{fill:#874630;} .st109{fill:#0972BA;} .st110{fill:#103554;} </style> <g> <g> <path class="st2" d="M45.6,59.94c-6.96,0-13.69,0-20.6,0c0-6.69,0-13.22,0-19.89c6.88,0,13.67,0,20.6,0 C45.6,46.63,45.6,53.17,45.6,59.94z M35.09,49.92c0-3,0-5.99,0-9.11c-3.18,0-6.17,0-9.2,0c0,3.11,0,6.09,0,9.05 c3.2,0,6.23,0,9.26,0c0,3.08,0,6.15,0,9.26c3.52,0,6.54,0,9.64,0c0-3.04,0-5.94,0-9.19C41.46,49.92,38.27,49.92,35.09,49.92z"></path> </g> <g> <path d="M61.23,53.73c0,0.8-0.15,1.52-0.45,2.16c-0.3,0.64-0.74,1.19-1.31,1.65c-0.57,0.46-1.27,0.81-2.1,1.06 c-0.83,0.25-1.77,0.37-2.82,0.37c-0.64,0-1.23-0.05-1.78-0.14c-0.55-0.09-1.04-0.21-1.47-0.34c-0.43-0.13-0.79-0.26-1.07-0.4 c-0.28-0.14-0.46-0.24-0.54-0.3c-0.07-0.06-0.13-0.13-0.17-0.19c-0.04-0.06-0.07-0.14-0.1-0.23c-0.03-0.09-0.05-0.2-0.07-0.33 c-0.01-0.13-0.02-0.29-0.02-0.48c0-0.32,0.04-0.55,0.11-0.67c0.07-0.13,0.17-0.19,0.3-0.19c0.09,0,0.27,0.07,0.53,0.22 c0.27,0.14,0.61,0.3,1.02,0.46s0.9,0.32,1.46,0.46c0.56,0.14,1.18,0.22,1.86,0.22c0.66,0,1.24-0.08,1.75-0.23 c0.5-0.15,0.92-0.37,1.26-0.65c0.34-0.28,0.6-0.61,0.77-0.99c0.17-0.38,0.26-0.8,0.26-1.25c0-0.49-0.11-0.94-0.33-1.33 c-0.22-0.39-0.54-0.74-0.96-1.02c-0.42-0.29-0.93-0.51-1.55-0.66c-0.61-0.15-1.31-0.23-2.08-0.23h-1.86 c-0.08,0-0.16-0.02-0.24-0.05c-0.08-0.03-0.14-0.08-0.2-0.15c-0.06-0.07-0.1-0.17-0.14-0.28c-0.04-0.12-0.05-0.27-0.05-0.46 c0-0.17,0.01-0.31,0.04-0.42c0.03-0.11,0.07-0.2,0.12-0.27c0.05-0.07,0.11-0.12,0.18-0.15c0.07-0.03,0.15-0.05,0.23-0.05h1.66 c0.65,0,1.23-0.08,1.74-0.23c0.51-0.15,0.95-0.37,1.31-0.66c0.36-0.29,0.63-0.63,0.82-1.03c0.19-0.4,0.29-0.85,0.29-1.34 c0-0.36-0.06-0.7-0.19-1.03c-0.13-0.33-0.32-0.61-0.57-0.86c-0.25-0.24-0.58-0.43-0.98-0.57c-0.4-0.14-0.85-0.21-1.37-0.21 c-0.57,0-1.09,0.08-1.56,0.24c-0.48,0.16-0.9,0.33-1.27,0.51c-0.37,0.18-0.68,0.35-0.92,0.5c-0.24,0.16-0.42,0.24-0.51,0.24 c-0.07,0-0.13-0.01-0.18-0.03c-0.05-0.02-0.1-0.07-0.13-0.13c-0.03-0.07-0.06-0.16-0.07-0.28c-0.01-0.12-0.02-0.28-0.02-0.48 c0-0.14,0.01-0.25,0.01-0.36c0.01-0.1,0.03-0.19,0.06-0.27c0.03-0.08,0.06-0.15,0.1-0.21c0.04-0.06,0.11-0.14,0.2-0.22 c0.09-0.09,0.28-0.21,0.56-0.37c0.28-0.16,0.63-0.32,1.05-0.48c0.42-0.16,0.9-0.29,1.44-0.4c0.54-0.11,1.13-0.16,1.75-0.16 c0.88,0,1.65,0.1,2.32,0.31c0.67,0.21,1.22,0.5,1.67,0.88c0.45,0.38,0.78,0.83,1,1.35c0.22,0.53,0.33,1.11,0.33,1.74 c0,0.55-0.08,1.06-0.23,1.53c-0.16,0.47-0.39,0.89-0.69,1.25c-0.3,0.36-0.68,0.67-1.12,0.93c-0.44,0.26-0.95,0.43-1.53,0.53v0.03 c0.65,0.06,1.25,0.21,1.8,0.45s1.01,0.54,1.4,0.9c0.39,0.36,0.7,0.78,0.92,1.26C61.12,52.67,61.23,53.19,61.23,53.73z"></path> <path d="M83.76,58.21c-0.04,0.13-0.1,0.23-0.18,0.3c-0.08,0.08-0.19,0.14-0.32,0.18c-0.14,0.04-0.31,0.07-0.51,0.09 c-0.2,0.02-0.45,0.03-0.74,0.03c-0.3,0-0.56-0.01-0.77-0.03c-0.21-0.02-0.38-0.05-0.52-0.09c-0.14-0.04-0.24-0.1-0.31-0.18 c-0.07-0.08-0.12-0.18-0.16-0.3l-3.98-13.16h-0.03l-3.67,13.16c-0.03,0.13-0.08,0.23-0.15,0.3c-0.07,0.08-0.17,0.14-0.29,0.18 c-0.13,0.04-0.29,0.07-0.49,0.09c-0.2,0.02-0.46,0.03-0.77,0.03c-0.32,0-0.59-0.01-0.81-0.03c-0.22-0.02-0.39-0.05-0.53-0.09 c-0.14-0.04-0.24-0.1-0.32-0.18c-0.07-0.08-0.12-0.18-0.15-0.3l-5.02-16.1c-0.06-0.21-0.09-0.37-0.1-0.49 c-0.01-0.12,0.03-0.21,0.12-0.27c0.08-0.06,0.22-0.1,0.4-0.12c0.19-0.02,0.44-0.03,0.75-0.03c0.3,0,0.54,0.01,0.72,0.02 c0.18,0.01,0.31,0.04,0.4,0.07c0.09,0.04,0.16,0.09,0.19,0.15c0.03,0.06,0.06,0.14,0.08,0.24l4.27,14.61h0.01l4.05-14.58 c0.03-0.1,0.07-0.18,0.11-0.25c0.04-0.07,0.12-0.12,0.21-0.15c0.1-0.04,0.24-0.06,0.42-0.08c0.18-0.02,0.42-0.03,0.71-0.03 c0.27,0,0.49,0.01,0.65,0.03s0.29,0.04,0.39,0.08c0.1,0.04,0.17,0.09,0.21,0.15c0.04,0.07,0.08,0.15,0.11,0.25l4.36,14.58h0.03 l4.18-14.59c0.03-0.09,0.06-0.17,0.09-0.24c0.03-0.07,0.09-0.12,0.18-0.15c0.09-0.04,0.23-0.06,0.4-0.08 c0.17-0.02,0.4-0.03,0.68-0.03c0.29,0,0.53,0.01,0.7,0.03c0.17,0.02,0.3,0.07,0.37,0.13c0.08,0.06,0.11,0.15,0.11,0.27 c-0.01,0.12-0.03,0.28-0.08,0.49L83.76,58.21z"></path> <path d="M111.79,56.25c0,0.14-0.01,0.27-0.01,0.38c-0.01,0.11-0.03,0.2-0.05,0.28c-0.02,0.08-0.06,0.15-0.1,0.22 c-0.04,0.06-0.11,0.14-0.21,0.23c-0.1,0.09-0.3,0.23-0.62,0.41s-0.7,0.36-1.17,0.54c-0.46,0.18-1,0.32-1.6,0.45 c-0.6,0.12-1.26,0.18-1.97,0.18c-1.23,0-2.35-0.19-3.34-0.57c-0.99-0.38-1.84-0.93-2.54-1.67c-0.7-0.74-1.24-1.65-1.61-2.73 s-0.56-2.33-0.56-3.74c0-1.45,0.2-2.74,0.61-3.87c0.41-1.13,0.98-2.09,1.71-2.88c0.73-0.79,1.61-1.39,2.63-1.8 c1.02-0.41,2.15-0.62,3.4-0.62c0.55,0,1.08,0.05,1.6,0.14c0.52,0.1,1,0.21,1.44,0.36c0.44,0.14,0.83,0.31,1.17,0.5 c0.34,0.19,0.58,0.34,0.71,0.46c0.13,0.12,0.22,0.21,0.26,0.28c0.04,0.06,0.07,0.14,0.09,0.22c0.02,0.09,0.04,0.19,0.06,0.3 c0.02,0.12,0.02,0.26,0.02,0.42c0,0.18-0.01,0.33-0.03,0.46c-0.02,0.13-0.05,0.23-0.09,0.32c-0.04,0.09-0.09,0.15-0.14,0.19 c-0.05,0.04-0.12,0.06-0.2,0.06c-0.14,0-0.33-0.09-0.58-0.26c-0.25-0.18-0.56-0.37-0.95-0.58c-0.39-0.21-0.86-0.4-1.42-0.58 c-0.56-0.18-1.22-0.26-2-0.26c-0.85,0-1.62,0.15-2.31,0.47c-0.69,0.31-1.29,0.77-1.78,1.37c-0.49,0.6-0.87,1.34-1.14,2.2 c-0.27,0.87-0.41,1.86-0.41,2.97c0,1.1,0.13,2.08,0.39,2.93c0.26,0.85,0.63,1.56,1.12,2.13c0.49,0.57,1.08,1,1.79,1.29 c0.71,0.29,1.51,0.44,2.41,0.44c0.76,0,1.42-0.09,1.98-0.26c0.56-0.17,1.05-0.36,1.45-0.57c0.4-0.21,0.72-0.4,0.98-0.57 s0.46-0.26,0.61-0.26c0.07,0,0.13,0.01,0.18,0.04c0.05,0.03,0.09,0.08,0.12,0.15c0.03,0.08,0.05,0.18,0.07,0.32 C111.78,55.87,111.79,56.05,111.79,56.25z"></path> <path d="M124.98,57.71c0,0.18-0.01,0.33-0.03,0.45c-0.02,0.12-0.05,0.22-0.1,0.31c-0.04,0.08-0.1,0.15-0.16,0.19 c-0.06,0.04-0.14,0.06-0.23,0.06h-8.39c-0.23,0-0.44-0.07-0.64-0.21c-0.2-0.14-0.3-0.38-0.3-0.73V41.63 c0-0.07,0.02-0.13,0.06-0.19c0.04-0.05,0.11-0.1,0.21-0.13c0.1-0.03,0.23-0.06,0.4-0.08c0.17-0.02,0.37-0.03,0.6-0.03 c0.24,0,0.45,0.01,0.61,0.03c0.16,0.02,0.29,0.05,0.39,0.08c0.1,0.03,0.17,0.07,0.21,0.13c0.04,0.05,0.06,0.12,0.06,0.19v15.08 h6.81c0.09,0,0.16,0.02,0.23,0.06c0.06,0.04,0.12,0.1,0.16,0.18c0.04,0.08,0.08,0.18,0.1,0.3 C124.97,57.38,124.98,57.53,124.98,57.71z"></path> <path d="M130.29,58.37c0,0.07-0.02,0.14-0.06,0.19c-0.04,0.05-0.11,0.1-0.21,0.13c-0.1,0.03-0.23,0.06-0.39,0.08 c-0.16,0.02-0.36,0.03-0.61,0.03c-0.23,0-0.43-0.01-0.6-0.03c-0.17-0.02-0.3-0.05-0.4-0.08c-0.1-0.03-0.17-0.07-0.21-0.13 c-0.04-0.05-0.06-0.12-0.06-0.19V41.63c0-0.07,0.02-0.13,0.07-0.19c0.04-0.05,0.12-0.1,0.22-0.13c0.1-0.03,0.23-0.06,0.4-0.08 c0.16-0.02,0.35-0.03,0.58-0.03c0.24,0,0.45,0.01,0.61,0.03c0.16,0.02,0.29,0.05,0.39,0.08c0.1,0.03,0.17,0.07,0.21,0.13 c0.04,0.05,0.06,0.12,0.06,0.19V58.37z"></path> <path d="M149.7,57.76c0,0.18-0.03,0.33-0.1,0.46c-0.07,0.13-0.15,0.23-0.26,0.31c-0.11,0.08-0.23,0.14-0.36,0.18 c-0.13,0.04-0.26,0.05-0.4,0.05h-0.83c-0.26,0-0.49-0.02-0.69-0.07s-0.38-0.14-0.56-0.27c-0.18-0.13-0.35-0.31-0.53-0.53 c-0.18-0.22-0.36-0.51-0.56-0.86l-5.79-9.92c-0.3-0.51-0.61-1.05-0.92-1.61c-0.31-0.56-0.59-1.11-0.86-1.64h-0.03 c0.02,0.65,0.03,1.31,0.04,1.98c0.01,0.67,0.01,1.34,0.01,2.01v10.52c0,0.06-0.02,0.12-0.06,0.18c-0.04,0.06-0.11,0.1-0.21,0.14 c-0.1,0.03-0.23,0.06-0.39,0.08c-0.16,0.02-0.36,0.03-0.61,0.03c-0.25,0-0.45-0.01-0.61-0.03c-0.16-0.02-0.29-0.05-0.38-0.08 c-0.09-0.03-0.16-0.08-0.2-0.14c-0.04-0.06-0.06-0.12-0.06-0.18V42.28c0-0.36,0.11-0.62,0.33-0.77c0.22-0.15,0.46-0.23,0.73-0.23 h1.24c0.29,0,0.54,0.02,0.73,0.07c0.2,0.04,0.37,0.12,0.53,0.22c0.16,0.1,0.31,0.25,0.45,0.43c0.15,0.18,0.3,0.42,0.46,0.69 l4.45,7.65c0.27,0.47,0.54,0.92,0.79,1.37c0.26,0.44,0.5,0.88,0.74,1.31c0.24,0.43,0.47,0.86,0.7,1.27 c0.23,0.42,0.46,0.84,0.69,1.26h0.02c-0.02-0.71-0.03-1.45-0.04-2.22c-0.01-0.77-0.01-1.51-0.01-2.22v-9.46 c0-0.06,0.02-0.12,0.06-0.18c0.04-0.05,0.11-0.1,0.21-0.14c0.1-0.04,0.23-0.07,0.39-0.09c0.16-0.02,0.37-0.03,0.63-0.03 c0.23,0,0.42,0.01,0.59,0.03c0.17,0.02,0.29,0.05,0.39,0.09c0.09,0.04,0.16,0.09,0.2,0.14c0.04,0.05,0.06,0.11,0.06,0.18V57.76z"></path> <path d="M157.27,58.37c0,0.07-0.02,0.14-0.06,0.19c-0.04,0.05-0.11,0.1-0.21,0.13c-0.1,0.03-0.23,0.06-0.39,0.08 c-0.16,0.02-0.36,0.03-0.61,0.03c-0.23,0-0.43-0.01-0.6-0.03c-0.17-0.02-0.3-0.05-0.4-0.08c-0.1-0.03-0.17-0.07-0.21-0.13 c-0.04-0.05-0.06-0.12-0.06-0.19V41.63c0-0.07,0.02-0.13,0.07-0.19c0.04-0.05,0.12-0.1,0.22-0.13c0.1-0.03,0.23-0.06,0.4-0.08 c0.16-0.02,0.35-0.03,0.58-0.03c0.24,0,0.45,0.01,0.61,0.03c0.16,0.02,0.29,0.05,0.39,0.08c0.1,0.03,0.17,0.07,0.21,0.13 c0.04,0.05,0.06,0.12,0.06,0.19V58.37z"></path> <path d="M175,56.25c0,0.14-0.01,0.27-0.01,0.38c-0.01,0.11-0.03,0.2-0.05,0.28c-0.02,0.08-0.06,0.15-0.1,0.22 c-0.04,0.06-0.11,0.14-0.21,0.23c-0.1,0.09-0.3,0.23-0.62,0.41s-0.7,0.36-1.17,0.54c-0.46,0.18-1,0.32-1.6,0.45 c-0.6,0.12-1.26,0.18-1.97,0.18c-1.23,0-2.35-0.19-3.34-0.57c-0.99-0.38-1.84-0.93-2.54-1.67c-0.7-0.74-1.24-1.65-1.61-2.73 c-0.38-1.08-0.56-2.33-0.56-3.74c0-1.45,0.2-2.74,0.61-3.87c0.41-1.13,0.98-2.09,1.71-2.88c0.73-0.79,1.61-1.39,2.63-1.8 c1.02-0.41,2.15-0.62,3.4-0.62c0.55,0,1.08,0.05,1.6,0.14c0.52,0.1,1,0.21,1.44,0.36c0.44,0.14,0.83,0.31,1.17,0.5 c0.34,0.19,0.58,0.34,0.71,0.46c0.13,0.12,0.22,0.21,0.26,0.28c0.04,0.06,0.07,0.14,0.09,0.22c0.02,0.09,0.04,0.19,0.06,0.3 c0.02,0.12,0.02,0.26,0.02,0.42c0,0.18-0.01,0.33-0.03,0.46c-0.02,0.13-0.05,0.23-0.09,0.32c-0.04,0.09-0.09,0.15-0.14,0.19 c-0.05,0.04-0.12,0.06-0.2,0.06c-0.14,0-0.33-0.09-0.58-0.26s-0.56-0.37-0.95-0.58c-0.39-0.21-0.86-0.4-1.42-0.58 c-0.56-0.18-1.22-0.26-2-0.26c-0.85,0-1.62,0.15-2.31,0.47c-0.69,0.31-1.29,0.77-1.78,1.37c-0.49,0.6-0.87,1.34-1.14,2.2 s-0.41,1.86-0.41,2.97c0,1.1,0.13,2.08,0.39,2.93c0.26,0.85,0.64,1.56,1.12,2.13c0.49,0.57,1.08,1,1.79,1.29 c0.71,0.29,1.51,0.44,2.41,0.44c0.76,0,1.42-0.09,1.98-0.26c0.56-0.17,1.05-0.36,1.45-0.57c0.4-0.21,0.72-0.4,0.98-0.57 s0.46-0.26,0.61-0.26c0.07,0,0.13,0.01,0.18,0.04c0.05,0.03,0.09,0.08,0.12,0.15c0.03,0.08,0.05,0.18,0.07,0.32 C174.99,55.87,175,56.05,175,56.25z"></path> </g> </g> </svg> 