<?xml version="1.0" encoding="UTF-8"?> <svg xmlns="http://www.w3.org/2000/svg" xmlns:xlink="http://www.w3.org/1999/xlink" version="1.0" id="Layer_1" x="0px" y="0px" viewBox="0 0 200 100" style="enable-background:new 0 0 200 100;" xml:space="preserve"> <style type="text/css"> .st0{fill:#AC5366;} .st1{fill:#232174;} .st2{fill:#231F20;} .st3{fill:#28CBD2;} .st4{fill:#242021;} .st5{fill:#EF9BC1;} .st6{fill:#E9B7F0;} .st7{fill:#070707;} .st8{fill:#736357;} .st9{fill:#59555D;} .st10{fill:#0A0707;} .st11{fill:#010101;} .st12{fill:#0A0C0C;} .st13{fill:#57D0F3;} .st14{fill:#FFFFFF;} .st15{fill:#2D70AF;} .st16{fill:#302F2E;} .st17{fill:#08944E;} .st18{fill:#D8176E;} .st19{fill:#080808;} .st20{fill:#E6623C;} .st21{fill:#0B0A0B;} .st22{fill:#0C0F46;} .st23{fill:#9E005D;} .st24{fill:#4A3A2B;} .st25{fill:#AEA49C;} .st26{fill:#4E4644;} .st27{fill:#036434;} .st28{fill:#3F3A35;} .st29{fill:#919B3F;} .st30{fill:#0F0606;} .st31{fill:#282C96;} .st32{fill:#F2863B;} .st33{fill:#70A2D6;} .st34{fill:#7096D6;} .st35{fill:#4A4745;} .st36{fill:none;} .st37{fill:#020202;} .st38{fill:#991C32;} .st39{fill:#F48888;} .st40{fill:#6AAAAA;} .st41{fill:#112263;} .st42{fill:#627F31;} .st43{fill:#02146F;} .st44{fill:url(#XMLID_00000032630102682264603380000001832191519756809913_);} .st45{fill:url(#XMLID_00000026868354457835587600000007311313043617608341_);} .st46{fill-rule:evenodd;clip-rule:evenodd;fill:url(#SVGID_1_);} .st47{fill-rule:evenodd;clip-rule:evenodd;fill:url(#SVGID_00000093178980156171593890000000344785587866593668_);} .st48{fill-rule:evenodd;clip-rule:evenodd;fill:url(#SVGID_00000111180938650797823360000005607926098999151534_);} .st49{fill:url(#SVGID_00000018946882950004697130000014646382166143145093_);} .st50{fill:url(#SVGID_00000050620566270452834280000016340747970147905178_);} .st51{fill:url(#SVGID_00000130611396672552188640000014062193817296887951_);} .st52{fill:url(#SVGID_00000000211201136686984900000002951858759638519742_);} .st53{fill:url(#SVGID_00000160876300679039672830000014586605827012329133_);} .st54{fill:url(#SVGID_00000039124856948768426750000009464735708955295104_);} .st55{fill:url(#SVGID_00000039105278453570908690000008757728029160437151_);} .st56{fill:url(#SVGID_00000080180109142253217920000008334840206705471144_);} .st57{fill:url(#SVGID_00000062180775480014177550000008653398641330339735_);} .st58{fill:url(#SVGID_00000028318391277128506280000008660359391895609220_);} .st59{fill:url(#SVGID_00000027567296231746398240000012486308715226652554_);} .st60{fill:url(#SVGID_00000008112884892892034510000009503281302158167699_);} .st61{fill:url(#SVGID_00000169559675106435385480000011588738343405110426_);} .st62{fill:url(#SVGID_00000099649065131881746260000010595014347686942635_);} .st63{fill:url(#SVGID_00000034083121423182331890000005385943574616472704_);} .st64{fill:url(#SVGID_00000107566096971248329470000007191188137576809864_);} .st65{fill:url(#SVGID_00000138533859795294528360000010789750458468043927_);} .st66{fill:url(#SVGID_00000114794829823637154530000018425714281668057254_);} .st67{fill:url(#SVGID_00000099647344126187134630000016157807617158316680_);} .st68{fill:url(#SVGID_00000105423578647658919490000001381584365992990640_);} .st69{fill:url(#SVGID_00000105403313711511190460000007086401920073434241_);} .st70{fill:url(#SVGID_00000124852290121185734060000016522492292306005404_);} .st71{fill:url(#SVGID_00000095334076788970422020000004498498383947910821_);} .st72{fill:url(#SVGID_00000107547407229708983940000012296739832271996333_);} .st73{fill:url(#SVGID_00000145753565463425928770000016922865899255204515_);} .st74{fill:url(#SVGID_00000066495574563359268720000017093700236455122076_);} .st75{fill:url(#SVGID_00000085947672349361223130000003929311284766053014_);} .st76{fill:url(#SVGID_00000175294996771174983830000002990961497698279604_);} .st77{fill:url(#SVGID_00000125593207003374819220000012585860299052564608_);} .st78{fill:url(#SVGID_00000003820977421645867450000009469594898127731111_);} .st79{fill:url(#SVGID_00000116941049670411187840000010321695850622931640_);} .st80{fill:url(#SVGID_00000128485122542680918580000017995667244808132781_);} .st81{fill:url(#SVGID_00000065037305202136880970000008591596938850823816_);} .st82{fill:url(#SVGID_00000157291033066914961380000018435608803187746209_);} .st83{fill:url(#SVGID_00000047754194756010544680000012498844155313426829_);} .st84{fill:url(#SVGID_00000170245415466063094770000000303404827104304827_);} .st85{fill:url(#SVGID_00000154412659774807635220000014991433199905552282_);} .st86{fill:url(#SVGID_00000116214666177131857700000004616427529884972948_);} .st87{fill:#251A17;} .st88{fill:url(#SVGID_00000049917504719191135620000013399198621223674527_);} .st89{fill:url(#SVGID_00000138539532754035165310000015433098171045440697_);} .st90{fill:url(#SVGID_00000176006357171519430990000008585831205461330334_);} .st91{fill:url(#SVGID_00000132085853124324102650000008427413112207283645_);} .st92{fill:#006750;} .st93{fill:#050505;} .st94{fill:#262223;} .st95{fill:#40A448;} .st96{fill:#3FA9F5;} .st97{fill:#611417;} .st98{fill:#0D0B0E;} .st99{fill:#B51310;} .st100{fill:#040404;} .st101{fill:#141414;} .st102{fill:#171717;} .st103{fill:#212121;} .st104{fill:#0B0B0B;} .st105{fill:#0A0A0A;} .st106{fill:#1B1B1B;} .st107{fill:#CE3C78;} .st108{fill:#874630;} .st109{fill:#0972BA;} .st110{fill:#103554;} </style> <g> <path class="st3" d="M174.67,54.39c-0.27-0.01-0.53-0.02-0.8-0.02c-20,0-40,0-60.01,0c-0.14,0-0.28,0.04-0.43-0.06 c0-3.79,0-7.59,0-11.37c0.13-0.1,0.26-0.07,0.39-0.07c20.1,0,40.21,0,60.31,0c0.18,0,0.36-0.01,0.53-0.01 C174.67,46.7,174.67,50.55,174.67,54.39z M138.27,47.37c-0.12-0.1-0.17-0.14-0.22-0.19c-1.05-0.93-2.58-0.75-3.39,0.4 c-0.88,1.25-0.87,3.25,0.02,4.49c0.62,0.86,1.62,1.19,2.63,0.85c0.35-0.12,0.61-0.39,0.93-0.59c0.09,0.53,0.36,0.64,0.99,0.42 c0-2.7,0-5.4,0-8.15c-0.15,0-0.27,0-0.4,0c-0.56,0-0.56,0-0.56,0.56C138.27,45.88,138.27,46.59,138.27,47.37z M165.25,48.74 c0.17-0.82,0.41-1.07,1.1-1.19c0.78-0.13,1.35,0.07,1.65,0.58c0.02,0.03,0.05,0.06,0.06,0.1c0.18,0.39,0.05,0.74-0.36,0.88 c-0.3,0.1-0.61,0.16-0.93,0.18c-0.65,0.04-1.29,0.11-1.87,0.45c-0.69,0.41-0.95,1.03-0.85,1.81c0.09,0.7,0.5,1.17,1.16,1.37 c0.86,0.26,1.68,0.13,2.43-0.39c0.14-0.1,0.27-0.23,0.45-0.25c0.31,0.65,0.35,0.67,1.2,0.53c-0.23-0.76-0.13-1.53-0.15-2.3 c-0.01-0.6,0-1.2,0-1.79c0-0.89-0.4-1.53-1.21-1.89c-0.72-0.32-1.46-0.34-2.19-0.09c-0.59,0.2-1.09,0.56-1.3,1.2 c-0.24,0.74-0.16,0.84,0.6,0.82C165.1,48.75,165.16,48.74,165.25,48.74z M128.55,48.74c0.04-0.61,0.32-1.03,0.91-1.15 c0.62-0.12,1.25-0.18,1.73,0.38c0.47,0.54,0.32,1.01-0.36,1.18c-0.3,0.07-0.6,0.12-0.9,0.14c-0.51,0.03-1.02,0.09-1.48,0.32 c-0.67,0.33-1.11,0.81-1.11,1.63c0,0.77,0.31,1.33,1.02,1.63c0.49,0.21,1.01,0.22,1.53,0.12c0.59-0.11,1.06-0.44,1.52-0.81 c0.24,0.74,0.37,0.81,1.18,0.63c-0.25-0.86-0.18-1.73-0.19-2.61c0-0.58,0-1.17-0.01-1.75c0-0.49-0.2-0.88-0.56-1.21 c-0.96-0.89-2.78-0.87-3.7,0.06c-0.4,0.4-0.58,0.87-0.45,1.46C127.97,48.74,128.24,48.74,128.55,48.74z M156.04,49.83 c0.03-0.43-0.02-0.85-0.16-1.27c-0.37-1.08-1.04-1.83-2.23-1.96c-1.06-0.11-1.92,0.3-2.44,1.23c-0.68,1.22-0.71,2.5-0.1,3.77 c0.45,0.95,1.22,1.45,2.27,1.45c0.96,0,1.71-0.43,2.19-1.28C155.9,51.18,156.09,50.54,156.04,49.83z M162.48,52.78 c0.03-0.06,0.05-0.08,0.05-0.1c0-1.34,0.06-2.67-0.01-4.01c-0.07-1.56-1.19-2.34-2.7-2c-0.39,0.09-0.67,0.37-1.03,0.58 c-0.02-0.15-0.04-0.28-0.06-0.42c-0.32,0-0.62-0.04-0.9,0.02c-0.02,0.05-0.04,0.07-0.04,0.09c0,1.87-0.01,3.74-0.01,5.61 c0,0.07-0.02,0.18,0.06,0.21c0.27,0.09,0.56,0.08,0.82,0.01c0.19-0.05,0.1-0.26,0.1-0.4c0.01-1.12-0.01-2.24,0.02-3.36 c0.02-0.75,0.78-1.42,1.54-1.4c0.76,0.01,1.21,0.53,1.22,1.4c0.01,1.06,0,2.11,0.01,3.17c0,0.2-0.05,0.4,0.05,0.61 C161.89,52.78,162.18,52.78,162.48,52.78z M119.38,52.83c0-2.41,0-4.81,0-7.25c0.71,0,1.37-0.03,2.02,0.01 c0.42,0.02,0.41-0.21,0.41-0.5c0-0.3-0.02-0.49-0.42-0.49c-1.63,0.02-3.26,0.01-4.88,0.01c-0.62,0-0.62,0-0.59,0.63 c0.01,0.24,0.08,0.34,0.34,0.33c0.57-0.01,1.15,0.01,1.72-0.01c0.33-0.02,0.4,0.11,0.4,0.41c-0.01,2.01-0.01,4.02-0.01,6.03 C118.35,52.95,118.35,52.95,119.38,52.83z M144.53,45.02c0,0.52-0.01,0.98,0,1.45c0,0.2-0.04,0.33-0.27,0.3 c-0.35-0.05-0.41,0.14-0.38,0.43c0.02,0.15-0.04,0.3,0.05,0.44c0.59,0.1,0.59,0.1,0.59,0.75c0,1.02-0.01,2.03,0,3.05 c0.01,1.05,0.45,1.47,1.43,1.41c0.23-0.01,0.31-0.11,0.27-0.3c-0.05-0.21,0.19-0.56-0.23-0.6c-0.4-0.03-0.51-0.23-0.5-0.6 c0.02-1.09,0.01-2.19,0.01-3.28c0-0.12-0.04-0.26,0.06-0.36c0.22-0.07,0.46,0.04,0.68-0.08c0.01-0.27,0.05-0.55-0.02-0.8 c-0.24-0.1-0.48,0.02-0.73-0.12c0-0.55,0-1.11,0-1.68C145.15,45.02,144.87,45.02,144.53,45.02z M172.01,52.77 c0.02-0.06,0.04-0.09,0.04-0.11c0-2.59,0-5.19,0-7.78c0-0.07-0.01-0.19-0.05-0.21c-0.25-0.12-0.52-0.07-0.78-0.04 c-0.22,0.02-0.14,0.24-0.14,0.37c0,2.48,0,4.96,0,7.44c0,0.11-0.03,0.23,0.07,0.34C171.42,52.81,171.71,52.82,172.01,52.77z M124.27,52.78c0-1.1-0.01-2.15,0-3.21c0.01-1.21,0.5-1.76,1.68-1.91c0.12-0.02,0.24-0.02,0.24-0.18 c-0.01-0.29,0.05-0.58-0.05-0.87c-0.73-0.01-1.34,0.25-1.86,0.82c-0.02-0.25-0.03-0.42-0.05-0.6c-0.33-0.01-0.63-0.05-0.92,0.02 c0,1.98,0,3.94,0,5.92C123.64,52.78,123.93,52.78,124.27,52.78z M148.04,46.7c-0.01,0.13-0.02,0.24-0.02,0.36 c0,1.79,0.01,3.59-0.01,5.38c-0.01,0.43,0.22,0.4,0.5,0.4c0.28,0,0.51,0.03,0.5-0.4c-0.02-1.81-0.01-3.61-0.01-5.42 c0-0.1,0.03-0.2-0.06-0.31C148.65,46.67,148.36,46.68,148.04,46.7z M141.4,52.81c0.17,0,0.29,0,0.42,0c0.5,0,0.5,0,0.5-0.52 c0-1.71,0-3.43,0-5.14c0-0.15,0.05-0.3-0.07-0.45c-0.28,0-0.57-0.05-0.85,0.03C141.4,48.75,141.4,50.75,141.4,52.81z M147.98,45.72 c0.33,0.04,0.66,0.04,1.02,0c0.02-0.39,0.04-0.76-0.02-1.14c-0.35-0.01-0.67-0.05-1,0.03C147.98,44.97,147.98,45.32,147.98,45.72z M141.34,45.71c0.36,0.04,0.68,0.05,1.02-0.01c0.04-0.38,0.04-0.74,0-1.1c-0.98-0.2-1.05-0.15-1.04,0.79 C141.32,45.49,141.33,45.58,141.34,45.71z"></path> <path class="st4" d="M56.1,64.93c-0.02-0.03-0.04-0.07-0.07-0.07c-1.24-0.37-1.81-1.27-1.98-2.49c-0.52-3.63-1.06-7.26-1.58-10.9 c-0.15-1.06-0.25-2.12-0.25-3.19c0.01-4.26,0.01-8.52,0.01-12.78c0-0.14-0.01-0.28-0.02-0.42c0.97,0,1.93,0,2.9,0 c0.01,0.14,0.02,0.28,0.02,0.42c0,4.53,0,9.06,0.01,13.59c0,0.62,0.05,1.25,0.1,1.87c0.15,1.96,0.39,3.92,0.65,5.87 c0.22,1.66,0.44,3.32,0.75,4.97c0.04,0.2,0.04,0.43,0.26,0.56c0.15-0.23,0.16-0.47,0.2-0.7c0.24-1.66,0.48-3.32,0.73-4.98 c0.31-2.07,0.64-4.15,0.64-6.25c0-5.11,0.01-10.23,0.01-15.34c0.94,0,1.88,0,2.82,0c0.01,0.1,0.02,0.2,0.02,0.3 c-0.01,3.93-0.02,7.86-0.02,11.79c0,1.88-0.11,3.77,0.12,5.64c0.37,3.01,0.84,6.01,1.27,9.02c0.03,0.18,0.04,0.37,0.22,0.54 c0.15-0.22,0.19-0.44,0.23-0.66c0.39-2.22,0.7-4.44,0.97-6.68c0.31-2.56,0.56-5.13,0.54-7.72c-0.04-3.94-0.01-7.89-0.01-11.83 c0-0.14,0.02-0.28,0.03-0.42c0.97,0,1.93,0,2.9,0c-0.07,0.15-0.04,0.3-0.04,0.45c0,3.95-0.03,7.91,0.01,11.86 c0.02,1.92-0.19,3.8-0.46,5.69c-0.44,3.05-0.91,6.1-1.34,9.16c-0.15,1.05-0.53,1.93-1.53,2.43c-0.22,0.11-0.46,0.17-0.69,0.26 c-0.31,0-0.61,0-0.92,0c-0.01-0.08-0.09-0.08-0.14-0.1c-0.65-0.22-1.05-0.68-1.31-1.29c-0.22-0.52-0.32-1.07-0.38-1.63 c-0.21-1.97-0.52-3.93-0.87-5.94c-0.04,0.16-0.08,0.25-0.1,0.35c-0.29,1.84-0.6,3.68-0.8,5.54c-0.15,1.34-0.41,2.63-1.97,3.08 C56.71,64.93,56.4,64.93,56.1,64.93z"></path> <path class="st4" d="M30.52,64.93c-0.59,0-1.17,0-1.76,0c-0.05-0.13-0.17-0.09-0.26-0.1c-1.69-0.36-2.67-1.42-3.05-3.07 c-0.03-0.11,0.02-0.26-0.12-0.34c0-3.1,0-6.21,0-9.31c0.02-0.01,0.05-0.02,0.06-0.04c0.32-1.42,1.21-2.47,2.29-3.37 c1.13-0.93,2.25-1.87,3.4-2.77c0.31-0.25,0.42-0.5,0.42-0.89c-0.02-1.72-0.01-3.44-0.01-5.15c0-0.37-0.02-0.74-0.06-1.1 c-0.06-0.52-0.24-0.99-0.76-1.24c-1.15-0.54-2.2,0.01-2.36,1.26c-0.16,1.2-0.04,2.41-0.08,3.62c0,0.15,0.04,0.3-0.04,0.44 c-0.93,0-1.85,0-2.77,0c0-1.41-0.05-2.8,0.01-4.18c0.08-1.81,1.04-3,2.62-3.43c0.19-0.05,0.4-0.04,0.56-0.17c0.66,0,1.32,0,1.99,0 c0.06,0.12,0.18,0.07,0.27,0.08c1.9,0.23,2.94,1.19,3.34,3.06c0.14,0.64,0.17,1.29,0.17,1.93c0.01,6.51,0.01,13.02,0.01,19.53 c0,0.52-0.02,1.04-0.06,1.56c-0.13,1.89-1.15,3.09-2.98,3.52C31.08,64.82,30.78,64.79,30.52,64.93z M31.49,48.53 c-0.68,0.61-1.26,1.19-1.89,1.69c-1.03,0.82-1.38,1.88-1.37,3.15c0.02,2.4,0.01,4.81,0,7.21c0,0.28,0.02,0.56,0.08,0.83 c0.09,0.4,0.26,0.74,0.64,0.94c1.03,0.55,2.14,0.05,2.41-1.08c0.11-0.45,0.13-0.91,0.13-1.36c0-3.6,0-7.2,0-10.8 C31.49,48.96,31.49,48.8,31.49,48.53z"></path> <path class="st4" d="M76.18,64.93c-0.24-0.13-0.51-0.11-0.76-0.17c-1.74-0.39-2.68-1.47-2.91-3.32c-0.08-0.66-0.11-1.32-0.11-1.98 c0-6.39,0-12.77,0-19.16c0-0.73-0.01-1.45,0.14-2.17c0.35-1.71,1.5-2.72,3.37-2.98c0.09-0.01,0.21,0.04,0.27-0.08 c0.59,0,1.17,0,1.76,0c0.2,0.14,0.45,0.11,0.67,0.17c1.61,0.48,2.46,1.62,2.76,3.22c0.07,0.38,0.08,0.76,0.08,1.14 c0,2.34-0.05,4.68,0.02,7.02c0.05,1.73-0.63,3.08-1.86,4.21c-1.25,1.15-2.6,2.2-3.94,3.26c-0.27,0.22-0.4,0.43-0.39,0.79 c0.04,2.05-0.05,4.1,0.05,6.14c0.06,1.26,0.99,1.88,2.2,1.52c0.46-0.14,0.71-0.47,0.85-0.91c0.14-0.44,0.17-0.9,0.17-1.36 c0-1.02,0-2.04,0-3.05c0-0.02,0.01-0.05,0.02-0.1c0.91,0,1.84,0,2.8,0c0,0.31,0.01,0.62,0,0.94c-0.03,1.21,0.09,2.42-0.07,3.62 c-0.24,1.84-1.37,2.94-3.21,3.17c-0.06,0.01-0.13-0.01-0.16,0.07C77.35,64.93,76.76,64.93,76.18,64.93z M75.33,51.43 c0.66-0.59,1.25-1.18,1.89-1.69c1-0.8,1.35-1.85,1.34-3.09c-0.02-2.4,0-4.81,0-7.21c0-0.25-0.02-0.51-0.06-0.76 c-0.15-0.79-0.54-1.16-1.32-1.23c-0.85-0.08-1.41,0.26-1.67,1.01c-0.16,0.45-0.19,0.92-0.19,1.39c-0.01,3.8-0.01,7.6-0.01,11.41 C75.29,51.29,75.31,51.33,75.33,51.43z"></path> <path class="st4" d="M42.58,64.93c-0.22-0.18-0.5-0.14-0.75-0.21c-1.7-0.43-2.68-1.57-2.85-3.3c-0.05-0.51-0.07-1.01-0.07-1.52 c0-6.61,0-13.22,0.01-19.83c0-0.7,0.07-1.39,0.22-2.08c0.34-1.55,1.31-2.44,2.84-2.76c0.2-0.04,0.43-0.01,0.6-0.15 c0.66,0,1.32,0,1.99,0c0.21,0.13,0.45,0.11,0.68,0.17c1.55,0.44,2.39,1.5,2.58,3.06c0.18,1.5,0.03,3.02,0.08,4.56 c-0.95,0-1.86,0-2.79,0c-0.09-0.1-0.04-0.25-0.04-0.38c-0.02-1.12,0.04-2.24-0.05-3.36c-0.01-0.14-0.02-0.28-0.05-0.42 c-0.24-1.21-1.25-1.7-2.36-1.16c-0.43,0.21-0.62,0.58-0.71,1.02c-0.07,0.35-0.09,0.71-0.09,1.06c0,6.79,0,13.58,0,20.38 c0,0.47,0.02,0.94,0.15,1.4c0.25,0.85,0.84,1.24,1.72,1.14c0.85-0.09,1.27-0.53,1.33-1.43c0.1-1.36,0.03-2.72,0.05-4.08 c0-0.15,0-0.3,0-0.47c0.98,0,1.91,0,2.85,0c0.05,1.79,0.23,3.57-0.14,5.32c-0.36,1.71-1.49,2.69-3.22,2.97 c-0.06,0.01-0.13-0.01-0.16,0.07C43.81,64.93,43.2,64.93,42.58,64.93z"></path> <path class="st4" d="M95.42,64.93c0.09-0.13,0.04-0.27,0.04-0.41c0-9.68,0-19.36,0-29.04c0-0.14,0.04-0.28-0.04-0.41 c0.99,0,1.99,0,2.98,0c-0.07,0.13-0.04,0.28-0.04,0.41c0,8.89,0,17.78,0,26.67c0,0.12,0,0.25,0,0.4c1.18,0,2.34,0,3.55,0 c0,0.81,0,1.59,0,2.37C99.75,64.93,97.58,64.93,95.42,64.93z"></path> <path class="st4" d="M88.93,35.07c0,5.08,0,10.15,0,15.23c0,3.93,0,7.86,0,11.79c0,0.14,0,0.28,0,0.47c1.19,0,2.36,0,3.58,0 c0,0.82,0,1.59,0,2.36c-2.16,0-4.33,0-6.49,0c0-0.1,0.01-0.2,0.01-0.3c0-9.75,0-19.5,0-29.24c0-0.1-0.01-0.2-0.01-0.3 C87,35.07,87.96,35.07,88.93,35.07z"></path> <path class="st3" d="M163.68,64.93c-0.6-0.22-1.16-0.5-1.45-1.13c-0.11-0.25-0.28-0.49-0.21-0.79c0.21-0.08,0.43-0.03,0.64-0.04 c0.19-0.01,0.2,0.15,0.25,0.28c0.21,0.65,1.03,0.98,1.82,0.74c0.65-0.19,1.01-0.87,0.81-1.59c-0.4,0.25-0.79,0.5-1.27,0.53 c-1.27,0.07-2.24-0.7-2.44-1.97c-0.11-0.73-0.07-1.45,0.3-2.11c0.68-1.2,2.15-1.49,3.23-0.65c0.06,0.04,0.12,0.08,0.21,0.15 c0.02-0.16,0.04-0.28,0.06-0.41c0.27-0.04,0.53-0.04,0.79,0c0.1,0.16,0.06,0.31,0.06,0.46c0,1.37,0,2.75,0,4.12 c0,1.33-0.48,1.97-1.76,2.35c-0.02,0.01-0.03,0.03-0.05,0.05C164.34,64.93,164.01,64.93,163.68,64.93z M162.73,60.35 c0.01,0.14,0.01,0.31,0.03,0.47c0.07,0.67,0.52,1.14,1.18,1.25c0.64,0.1,1.24-0.2,1.49-0.8c0.26-0.62,0.26-1.27-0.02-1.89 c-0.26-0.57-0.75-0.81-1.36-0.78c-0.57,0.03-0.96,0.33-1.19,0.86C162.75,59.74,162.76,60.03,162.73,60.35z"></path> <path class="st4" d="M107.1,35.07c0.11,0.13,0.28,0.1,0.41,0.13c1.91,0.52,3.13,2.43,2.78,4.37c-0.37,2.03-2.18,3.35-4.29,3.14 c-1.88-0.19-3.39-1.97-3.32-3.92c0.06-1.66,1.19-3.11,2.79-3.57c0.14-0.04,0.3-0.02,0.41-0.15 C106.29,35.07,106.69,35.07,107.1,35.07z M109.62,38.91c0-1.71-1.39-3.12-3.09-3.12c-1.72-0.01-3.15,1.42-3.14,3.12 c0.01,1.71,1.4,3.11,3.1,3.12C108.22,42.03,109.62,40.65,109.62,38.91z"></path> <path class="st3" d="M168.03,64.93c0.01-0.26,0.03-0.53,0.04-0.78c0.04-0.03,0.06-0.05,0.08-0.05c0.35,0,0.69,0.01,0.81-0.44 c0.08-0.32,0.25-0.58,0.09-0.97c-0.59-1.43-1.13-2.88-1.68-4.32c-0.04-0.11-0.07-0.24-0.1-0.35c0.66-0.21,0.83-0.14,1.05,0.44 c0.39,0.98,0.77,1.96,1.15,2.94c0.04,0.11,0.05,0.25,0.22,0.31c0.39-1.02,0.77-2.03,1.16-3.05c0.01-0.04,0.02-0.07,0.04-0.11 c0.27-0.69,0.27-0.69,1.12-0.58c-0.19,0.53-0.38,1.04-0.58,1.56c-0.54,1.4-1.09,2.78-1.61,4.19c-0.19,0.52-0.43,0.96-0.95,1.2 C168.59,64.93,168.31,64.93,168.03,64.93z"></path> <path class="st3" d="M115.96,56c0.94,0,1.87-0.07,2.79,0.02c0.96,0.1,1.65,0.7,2.06,1.57c0.71,1.48,0.69,2.97-0.15,4.4 c-0.54,0.92-1.38,1.36-2.43,1.37c-0.66,0.01-1.32,0-1.98,0.01c-0.21,0-0.34-0.04-0.34-0.29c0.01-2.33,0.01-4.65,0.01-6.98 C115.92,56.09,115.94,56.07,115.96,56z M116.83,56.82c0,1.92,0,3.78,0,5.66c0.57,0,1.11,0.05,1.65-0.01 c0.64-0.07,1.13-0.44,1.43-1.02c0.6-1.16,0.61-2.34,0.05-3.51c-0.24-0.51-0.65-0.88-1.21-1.02 C118.12,56.75,117.49,56.84,116.83,56.82z"></path> <path class="st3" d="M132.41,58.27c1.01-0.76,1.55-0.72,2.48,0.18c0.14-0.04,0.22-0.16,0.32-0.26c0.5-0.5,1.11-0.55,1.74-0.36 c0.62,0.2,0.84,0.75,0.93,1.33c0.12,0.87,0.04,1.75,0.05,2.63c0.01,0.49,0,0.99,0,1.48c-0.3,0.06-0.56,0.05-0.81,0.02 c-0.09-0.11-0.06-0.23-0.06-0.34c0-1.03,0-2.06,0-3.09c0-0.19-0.02-0.38-0.07-0.56c-0.07-0.3-0.15-0.58-0.5-0.65 c-0.4-0.08-0.76,0.01-1.03,0.34c-0.25,0.31-0.32,0.69-0.32,1.08c0,0.94,0,1.88,0,2.82c0,0.12,0,0.25,0,0.39 c-0.28,0.06-0.53,0.04-0.77,0.02c-0.12-0.13-0.07-0.27-0.07-0.41c-0.04-1.16,0.07-2.31-0.07-3.47c-0.04-0.35-0.12-0.69-0.54-0.79 c-0.44-0.1-0.88,0.09-1.11,0.49c-0.15,0.26-0.21,0.54-0.21,0.84c0.01,0.98,0,1.96,0,2.94c0,0.12,0.04,0.25-0.05,0.39 c-0.25,0-0.52,0-0.77,0c-0.11-0.1-0.07-0.22-0.07-0.33c0-1.55,0-3.1,0-4.66c0-0.16-0.07-0.41,0.22-0.38 C131.95,57.98,132.35,57.72,132.41,58.27z"></path> <path class="st3" d="M143.51,63.31c-0.7,0.19-0.81,0.13-1.09-0.5c-0.24,0.15-0.48,0.32-0.72,0.45c-0.59,0.32-1.22,0.37-1.85,0.18 c-0.61-0.18-1.09-0.63-1.09-1.42c0.01-0.78,0.35-1.32,1.05-1.6c0.53-0.21,1.09-0.22,1.64-0.3c0.23-0.03,0.45-0.08,0.66-0.16 c0.32-0.12,0.39-0.34,0.29-0.63c-0.18-0.56-0.67-0.8-1.51-0.73c-0.54,0.04-0.9,0.36-0.99,0.88c-0.07,0.42-0.4,0.18-0.61,0.22 c-0.23,0.05-0.26-0.12-0.26-0.31c0.01-0.54,0.28-0.95,0.71-1.23c0.87-0.55,1.78-0.56,2.68-0.1c0.62,0.32,0.91,0.87,0.91,1.56 c0.01,0.75,0,1.5,0,2.25C143.37,62.34,143.29,62.84,143.51,63.31z M142.41,60.69c-0.51,0.16-1.04,0.2-1.56,0.28 c-0.3,0.05-0.59,0.11-0.85,0.3c-0.29,0.23-0.38,0.51-0.31,0.87c0.07,0.36,0.35,0.49,0.65,0.55 C141.55,62.93,142.58,61.94,142.41,60.69z"></path> <path class="st3" d="M123.15,60.94c-0.07,1.17,1.05,2.03,2.05,1.63c0.24-0.1,0.45-0.25,0.52-0.47c0.12-0.37,0.37-0.4,0.68-0.37 c0.12,0.01,0.25,0,0.37,0c-0.04,0.75-0.82,1.6-1.57,1.75c-1.31,0.25-2.35-0.32-2.79-1.58c-0.37-1.06-0.32-2.1,0.28-3.08 c0.53-0.85,1.35-1.21,2.31-1.03c0.91,0.17,1.69,0.93,1.87,1.84c0.05,0.27,0.1,0.55,0.13,0.83c0.05,0.45,0.02,0.48-0.43,0.48 c-0.99,0-1.98,0-2.98,0.01C123.45,60.94,123.32,60.94,123.15,60.94z M126.03,60.1c-0.11-0.96-0.73-1.54-1.54-1.5 c-0.72,0.04-1.3,0.69-1.33,1.5C124.12,60.1,125.06,60.1,126.03,60.1z"></path> <path class="st3" d="M158.8,63.54c-1.08,0.01-1.74-0.4-2.14-1.16c-0.61-1.14-0.62-2.32,0-3.46c0.56-1.05,1.69-1.4,2.8-1 c0.66,0.24,1.06,0.69,1.31,1.29c0.43,1.05,0.42,2.1-0.12,3.12C160.19,63.16,159.54,63.54,158.8,63.54z M160.11,60.66 c0.02-0.48-0.08-0.93-0.32-1.35c-0.58-0.97-1.8-0.96-2.33,0.03c-0.45,0.84-0.45,1.7-0.03,2.55c0.24,0.49,0.63,0.8,1.2,0.8 c0.59-0.01,0.99-0.33,1.24-0.86C160.04,61.46,160.13,61.07,160.11,60.66z"></path> <path class="st3" d="M148.7,60.68c-0.03-0.84,0.16-1.58,0.7-2.19c1.15-1.3,3.24-0.88,3.86,0.79c0.37,1,0.36,2.02-0.14,2.99 c-0.45,0.88-1.16,1.31-2.16,1.26c-0.94-0.04-1.56-0.54-1.95-1.35C148.78,61.71,148.66,61.19,148.7,60.68z M149.62,60.58 c-0.03,0.54,0.07,1.03,0.36,1.47c0.54,0.82,1.58,0.86,2.18,0.07c0.57-0.75,0.57-2.19,0.01-2.95c-0.6-0.81-1.7-0.76-2.22,0.11 C149.7,59.69,149.59,60.13,149.62,60.58z"></path> <path class="st3" d="M147.96,62.59c0.01,0.01,0.02,0.02,0.02,0.03c-0.04,0.25,0.22,0.59-0.16,0.72c-0.51,0.17-1.1-0.17-1.26-0.65 c-0.06-0.19-0.06-0.38-0.06-0.57c0-1.11,0-2.21,0-3.31c-0.17-0.16-0.39-0.02-0.58-0.14c0-0.22,0-0.46,0-0.7 c0.15-0.12,0.35-0.01,0.56-0.12c0-0.48,0-1,0-1.53c0.3,0,0.55,0,0.86,0c0,0.35,0.02,0.72-0.01,1.08c-0.03,0.37,0.06,0.59,0.49,0.52 c0.05-0.01,0.1,0.01,0.17,0.02c0.06,0.25,0.05,0.5,0.01,0.74c-0.2,0.11-0.42,0-0.66,0.11c0,0.44,0,0.89,0,1.35 c0,0.56,0,1.12,0,1.68C147.35,62.46,147.36,62.47,147.96,62.59z"></path> <path class="st3" d="M154.38,63.31c0-0.17,0-0.31,0-0.45c0-2.11,0-4.22,0-6.33c0-0.58,0-0.58,0.58-0.56c0.09,0,0.17,0.02,0.29,0.03 c0,2.44,0,4.86,0,7.3C154.99,63.37,154.72,63.33,154.38,63.31z"></path> <path class="st3" d="M128.87,63.3c-0.27,0.04-0.53,0.04-0.78,0c-0.09-0.13-0.06-0.26-0.06-0.38c0-1.5,0-3,0-4.5 c0-0.21-0.12-0.5,0.3-0.5c0.54,0,0.54-0.02,0.61,0.5c0.38-0.3,0.74-0.61,1.23-0.63c0.19-0.01,0.45-0.18,0.49,0.2 c0.06,0.59,0.01,0.7-0.4,0.73c-0.78,0.06-1.32,0.66-1.33,1.52c-0.02,0.88-0.01,1.75-0.01,2.63 C128.91,63.02,128.94,63.16,128.87,63.3z"></path> <path class="st3" d="M138.28,49.85c-0.03,0.39-0.05,0.8-0.21,1.2c-0.25,0.62-0.68,1-1.36,1.03c-0.68,0.03-1.15-0.33-1.39-0.93 c-0.39-0.95-0.4-1.91,0.1-2.83c0.26-0.48,0.66-0.74,1.24-0.74c0.58,0,0.99,0.24,1.28,0.73C138.2,48.79,138.26,49.3,138.28,49.85z"></path> <path class="st3" d="M168.08,49.87c0.21,1.48-1.04,2.6-2.42,2.2c-0.31-0.09-0.56-0.24-0.62-0.59c-0.06-0.38,0.03-0.71,0.34-0.95 c0.23-0.17,0.49-0.27,0.77-0.32C166.79,50.11,167.43,50.06,168.08,49.87z"></path> <path class="st3" d="M131.4,49.83c0.21,1.4-0.91,2.5-2.24,2.28c-0.57-0.1-0.79-0.29-0.83-0.73c-0.05-0.47,0.2-0.84,0.67-1.04 c0.41-0.17,0.84-0.17,1.27-0.25C130.64,50.03,131.02,50.01,131.4,49.83z"></path> <path class="st3" d="M155.04,49.77c0,0.62-0.11,1.11-0.37,1.55c-0.61,1.04-1.98,1.05-2.57,0c-0.51-0.91-0.51-1.87-0.1-2.81 c0.28-0.65,0.79-1,1.53-0.94c0.69,0.05,1.04,0.51,1.3,1.07C155,49.03,155.03,49.45,155.04,49.77z"></path> <path class="st4" d="M107.21,38.85c0.58,0.66,0.77,1.52,1.22,2.26c-0.72,0.13-0.72,0.13-0.99-0.48c-0.11-0.26-0.22-0.51-0.33-0.77 c-0.33-0.76-0.35-0.76-1.28-0.74c0,0.66,0,1.33,0,2.02c-0.23,0-0.43,0-0.66,0c0-1.51,0-3.02,0-4.58c0.65-0.02,1.31-0.06,1.96,0.07 c0.61,0.12,0.88,0.45,0.93,1.04C108.09,38.25,107.85,38.59,107.21,38.85z M105.82,38.53c0.39-0.01,0.75,0.05,1.09-0.09 c0.28-0.12,0.45-0.32,0.44-0.64c-0.01-0.32-0.19-0.51-0.49-0.6c-0.34-0.1-0.69-0.07-1.04-0.05 C105.82,37.62,105.82,38.06,105.82,38.53z"></path> </g> </svg> 