<?xml version="1.0" encoding="UTF-8"?> <svg xmlns="http://www.w3.org/2000/svg" xmlns:xlink="http://www.w3.org/1999/xlink" version="1.1" id="Layer_1" x="0px" y="0px" viewBox="0 0 200 100" style="enable-background:new 0 0 200 100;" xml:space="preserve"> <style type="text/css"> .st0{fill:#AC5366;} .st1{fill:#232174;} .st2{fill:#231F20;} .st3{fill:#28CBD2;} .st4{fill:#242021;} .st5{fill:#EF9BC1;} .st6{fill:#E9B7F0;} .st7{fill:#070707;} .st8{fill:#736357;} .st9{fill:#59555D;} .st10{fill:#0A0707;} .st11{fill:#010101;} .st12{fill:#0A0C0C;} .st13{fill:#57D0F3;} .st14{fill:#FFFFFF;} .st15{fill:#2D70AF;} .st16{fill:#302F2E;} .st17{fill:#08944E;} .st18{fill:#D8176E;} .st19{fill:#080808;} .st20{fill:#E6623C;} .st21{fill:#0B0A0B;} .st22{fill:#0C0F46;} .st23{fill:#9E005D;} .st24{fill:#4A3A2B;} .st25{fill:#AEA49C;} .st26{fill:#4E4644;} .st27{fill:#036434;} .st28{fill:#3F3A35;} .st29{fill:#919B3F;} .st30{fill:#0F0606;} .st31{fill:#282C96;} .st32{fill:#F2863B;} .st33{fill:#70A2D6;} .st34{fill:#7096D6;} .st35{fill:#4A4745;} .st36{fill:none;} .st37{fill:#020202;} .st38{fill:#991C32;} .st39{fill:#F48888;} .st40{fill:#6AAAAA;} .st41{fill:#112263;} .st42{fill:#627F31;} .st43{fill:#02146F;} .st44{fill:url(#XMLID_00000100361123068421724940000018246104306829676677_);} .st45{fill:url(#XMLID_00000016766765120738996970000015890005044612947862_);} .st46{fill-rule:evenodd;clip-rule:evenodd;fill:url(#SVGID_1_);} .st47{fill-rule:evenodd;clip-rule:evenodd;fill:url(#SVGID_00000121253896783759732440000002685407950203913361_);} .st48{fill-rule:evenodd;clip-rule:evenodd;fill:url(#SVGID_00000065788607815655234400000008015413804104028034_);} .st49{fill:url(#SVGID_00000091737854889291082430000004839686250377768373_);} .st50{fill:url(#SVGID_00000075163030299802527590000011686715744137532832_);} .st51{fill:url(#SVGID_00000117664786949185659800000013354257895968392330_);} .st52{fill:url(#SVGID_00000091730900444877181180000000496472741297772729_);} .st53{fill:url(#SVGID_00000071543156039745649090000000250625600398060692_);} .st54{fill:url(#SVGID_00000164503232324570418860000018175779985594685569_);} .st55{fill:url(#SVGID_00000116948359369453385250000008996948822156541595_);} .st56{fill:url(#SVGID_00000114059773106953746010000012807620217160842155_);} .st57{fill:url(#SVGID_00000045584551498357635290000014896021538946821537_);} .st58{fill:url(#SVGID_00000143584296374115738400000000416468197800640896_);} .st59{fill:url(#SVGID_00000070798421911780200630000014629620523300190131_);} .st60{fill:url(#SVGID_00000172435745775172423320000003339581583245831088_);} .st61{fill:url(#SVGID_00000072964761400176629950000015130129249214971545_);} .st62{fill:url(#SVGID_00000158725928187434025940000010069732700034263187_);} .st63{fill:url(#SVGID_00000125581164639888564510000002330072155183430819_);} .st64{fill:url(#SVGID_00000116921441330705969560000018145345591380770449_);} .st65{fill:url(#SVGID_00000057113968205503534460000012189181463952292514_);} .st66{fill:url(#SVGID_00000111173619345544855550000011673762868066311059_);} .st67{fill:url(#SVGID_00000132792972724671583720000003643616256754427042_);} .st68{fill:url(#SVGID_00000022554432666349276910000004936690456750757298_);} .st69{fill:url(#SVGID_00000085936092327916486790000014008222808468235668_);} .st70{fill:url(#SVGID_00000163790114739455515010000013084728594972423615_);} .st71{fill:url(#SVGID_00000078044180238614448290000017362034309392595601_);} .st72{fill:url(#SVGID_00000016045428308815582050000000633894131792510386_);} .st73{fill:url(#SVGID_00000097474816705400814140000003931801051154121112_);} .st74{fill:url(#SVGID_00000140720625557703890360000010878478726457374112_);} .st75{fill:url(#SVGID_00000030467360179234273040000017209038489764644239_);} .st76{fill:url(#SVGID_00000171680365900963137210000001806773273876527522_);} .st77{fill:url(#SVGID_00000047061276578100727700000008584551602259636394_);} .st78{fill:url(#SVGID_00000038385932165529112430000005987816139718203298_);} .st79{fill:url(#SVGID_00000167354852667027936880000008416357051939575697_);} .st80{fill:url(#SVGID_00000145739989526083543000000018087001073013507226_);} .st81{fill:url(#SVGID_00000157297830982569952980000018426065643545359294_);} .st82{fill:url(#SVGID_00000167354340142227065170000008136197780701823894_);} .st83{fill:url(#SVGID_00000023271715963103609850000013332235665020754325_);} .st84{fill:url(#SVGID_00000072252102370137005800000017420317852381605549_);} .st85{fill:url(#SVGID_00000005253462753771510390000013348814413713954480_);} .st86{fill:url(#SVGID_00000114032710217391803370000001098543801737313713_);} .st87{fill:#251A17;} .st88{fill:url(#SVGID_00000149365246309174312180000011036125686528061360_);} .st89{fill:url(#SVGID_00000054230346240455676660000003350557545097294473_);} .st90{fill:url(#SVGID_00000121264358815666220550000016170948083176370097_);} .st91{fill:url(#SVGID_00000119834698617495988440000014351518148582364581_);} .st92{fill:#006750;} .st93{fill:#050505;} .st94{fill:#262223;} .st95{fill:#40A448;} .st96{fill:#3FA9F5;} .st97{fill:#611417;} .st98{fill:#0D0B0E;} .st99{fill:#B51310;} .st100{fill:#040404;} .st101{fill:#141414;} .st102{fill:#171717;} .st103{fill:#212121;} .st104{fill:#0B0B0B;} .st105{fill:#0A0A0A;} .st106{fill:#1B1B1B;} .st107{fill:#CE3C78;} .st108{fill:#874630;} .st109{fill:#0972BA;} .st110{fill:#103554;} .st111{fill:#BFBFBF;} .st112{fill:#36547A;} .st113{fill:#EC1C24;} .st114{fill:#161E45;} .st115{fill:#211B1A;} .st116{fill:#08A7E1;} </style> <g> <path class="st116" d="M145.4,53.31c-0.76,1-1.79,1.16-2.96,1.03c-2.93-0.32-5.52-1.32-7.5-3.83c-1.82,2.28-4.19,3.42-6.97,3.76 c-0.57,0.07-1.16,0.11-1.73,0.08c-1.03-0.06-1.67-0.58-1.66-1.68c0.01-1.05,0.62-1.49,1.61-1.55c1.46-0.1,2.94-0.17,4.25-0.95 c0.6-0.36,1.23-0.7,1.54-1.61c-1.7,0-3.33-0.03-4.94,0.01c-1.16,0.03-1.8-0.47-1.8-1.62c0-1.12,0.59-1.69,1.76-1.68 c2.04,0.03,4.09,0.01,6.15,0.01c0.45-0.86,0.15-1.14-0.7-1.13c-1.78,0.02-3.56,0.01-5.34,0c-1.07,0-1.99-0.23-2-1.58 c-0.01-1.09,0.57-1.55,1.99-1.56c1.78-0.01,3.56-0.01,5.34,0c0.61,0.01,1.11-0.03,0.82-1.03c-1.7,0-3.47-0.02-5.24,0.01 c-1.04,0.02-1.91-0.16-2-1.4c-0.08-1.01,0.61-1.51,2.04-1.52c1.72-0.01,3.45,0,5.24,0c-0.24-0.93-0.81-1.07-1.54-1.06 c-1.82,0.02-3.65-0.01-5.47,0.01c-1.1,0.01-1.68-0.48-1.7-1.58c-0.02-1.15,0.56-1.72,1.72-1.71c1.06,0.01,2.11,0,3.27,0 c-0.09-0.26-0.12-0.43-0.2-0.57c-0.5-0.83-0.78-1.65,0.2-2.33c0.94-0.65,1.57-0.02,2.17,0.62c0.39,0.42,0.77,0.86,1.15,1.3 c1.23,1.43,2.74,1.44,4.03,0.04c0.45-0.49,0.88-1.01,1.34-1.49c0.55-0.57,1.15-1.04,1.98-0.49c0.85,0.56,0.77,1.31,0.39,2.1 c-0.09,0.19-0.19,0.39-0.39,0.82c1.03,0,1.94,0.06,2.83-0.01c1.14-0.1,1.97,0.23,2.35,1.38c0,0.36,0,0.71,0,1.07 c-0.68,0.76-1.54,0.9-2.52,0.86c-1.64-0.06-3.29-0.01-4.94-0.02c-0.69,0-1.21,0.16-1.3,1.06c1.83,0,3.6-0.01,5.38,0 c0.99,0.01,1.79,0.3,1.78,1.49c-0.01,1.2-0.81,1.44-1.81,1.43c-1.77-0.01-3.54,0-5.28,0c-0.33,0.86,0.01,1.04,0.7,1.03 c1.78-0.02,3.56-0.02,5.34,0c1.39,0.01,2.05,0.51,2.01,1.56c-0.05,1.3-0.95,1.58-2.03,1.58c-1.74,0.01-3.47-0.01-5.21,0.01 c-0.4,0-0.96-0.18-0.95,0.56c0,0.75,0.57,0.54,0.96,0.55c1.82,0.02,3.65-0.02,5.47,0.02c1.14,0.02,1.68,0.69,1.59,1.82 c-0.08,1.05-0.69,1.46-1.69,1.45c-1.65-0.02-3.3,0-5.23,0c1.54,2.04,3.44,2.44,5.41,2.52c1.01,0.04,1.78,0.3,2.3,1.18 C145.4,52.6,145.4,52.95,145.4,53.31z"></path> <path class="st116" d="M54.6,41.29c0.49-0.62,0.37-1.41,0.55-2.12c1.1-4.35,3.87-7.11,7.75-7.62c2.2-0.29,3.66,0.24,6.54,2.45 c0.02-0.26,0.05-0.47,0.04-0.67c-0.05-1.13,0.45-1.83,1.61-1.82c1.18,0.02,1.58,0.83,1.58,1.9c0,6.36,0.01,12.72,0,19.09 c0,1.06-0.39,1.86-1.6,1.86c-1.18-0.01-1.64-0.72-1.59-1.84c0.01-0.27,0-0.53,0-0.8c-0.1-0.02-0.23-0.07-0.25-0.04 c-2.38,3.84-9.04,3.63-12.12-0.72c-1.24-1.75-1.93-3.69-2.24-5.78c-0.04-0.25,0.07-0.55-0.27-0.68 C54.6,43.43,54.6,42.36,54.6,41.29z M69.28,42.97c-0.12-1.76-0.35-3.56-1.28-5.18c-2-3.48-6.62-3.58-8.54-0.07 c-1.91,3.5-1.9,7.2-0.01,10.71c1.91,3.54,6.52,3.46,8.54-0.02C68.95,46.75,69.19,44.91,69.28,42.97z"></path> <path class="st116" d="M80.24,25c0.72,0.91,0.56,1.99,0.56,3.04c0.01,1.1,0,2.2,0,3.28c0.87,0.27,1.63,0.11,2.37,0.16 c1.07,0.07,1.83,0.5,1.81,1.68c-0.02,1.11-0.74,1.54-1.78,1.55c-0.75,0.01-1.5,0-2.17,0c-0.35,0.6-0.23,1.1-0.23,1.58 c-0.01,5.29,0,10.58-0.01,15.87c0,1.57-0.47,2.19-1.65,2.21c-1.22,0.02-1.78-0.66-1.78-2.26c-0.01-5.25,0-10.49,0-15.74 c0-0.48,0-0.96,0-1.67c-0.89,0-1.67,0.02-2.45,0c-0.98-0.02-1.61-0.44-1.64-1.51c-0.04-1.14,0.62-1.61,1.63-1.68 c0.75-0.05,1.5-0.01,2.46-0.01c0-1.4,0.04-2.72-0.01-4.03c-0.03-0.92,0.17-1.74,0.74-2.46C78.81,25,79.53,25,80.24,25z"></path> <path class="st116" d="M108.01,71.74c0-3.59,0-7.17,0-10.74c1.45-0.47,2.14,0.02,2.54,1.35c0.53,1.81,1.25,3.56,2.04,5.73 c0.71-2.16,1.36-3.9,1.85-5.7c0.37-1.35,1.11-1.83,2.63-1.41c0,2.1,0.05,4.26-0.02,6.42c-0.04,1.45,0.29,2.92-0.23,4.34 c-0.45,0-0.89,0-1.34,0c0-2.53,0-5.05,0-7.58c-0.77,1.59-1.32,3.2-1.86,4.82c-0.2,0.58-0.28,1.28-1.08,1.32 c-0.91,0.04-0.81-0.83-1.01-1.34c-0.68-1.74-1.28-3.51-1.91-5.26c-0.1,0.03-0.19,0.05-0.29,0.08c0,2.65,0,5.3,0,7.96 C108.9,71.74,108.46,71.74,108.01,71.74z"></path> <path class="st116" d="M96.8,71.74c-2.82-1.87-3.78-5.92-2.12-8.99c0.81-1.5,2.13-2.01,3.78-1.97c1.56,0.04,2.79,0.65,3.43,2.09 c1.01,2.26,0.96,4.55,0.01,6.84c-0.42,1.01-1.38,1.41-2.16,2.03C98.75,71.74,97.77,71.74,96.8,71.74z M95.44,66.29 c-0.05,0.85,0.01,1.69,0.36,2.47c0.48,1.09,1.35,1.63,2.52,1.61c1.11-0.02,1.99-0.55,2.38-1.61c0.61-1.67,0.62-3.39-0.02-5.06 c-0.41-1.06-1.3-1.56-2.41-1.56c-1.1,0-1.95,0.51-2.43,1.54C95.46,64.52,95.4,65.4,95.44,66.29z"></path> <path class="st116" d="M69.56,71.74c0.97-3.3,1.96-6.6,2.9-9.92c0.18-0.63,0.35-1.06,1.11-0.99c0.7,0.06,1.45-0.11,1.71,0.85 c0.92,3.36,2.07,6.66,2.82,10.07c-0.53,0-1.07,0-1.6,0c0.02-1.22-0.5-2.29-0.83-3.41c-1.25,0-2.43,0-3.55,0 c-0.53,1.15-0.48,2.42-1.23,3.41C70.45,71.74,70,71.74,69.56,71.74z M74.06,62.39c-0.12,0.01-0.24,0.02-0.36,0.03 c-0.4,1.46-0.81,2.92-1.23,4.44c0.98,0.07,1.84,0.14,2.83-0.05C74.86,65.25,74.46,63.82,74.06,62.39z"></path> <path class="st116" d="M125.64,71.74c0.86-4.11-1.56-7.29-3.18-10.73c1.13-0.43,1.71-0.07,2.12,0.93c0.5,1.23,1.15,2.39,1.85,3.82 c0.69-1.39,1.28-2.59,1.88-3.79c0.56-1.12,0.62-1.14,2.12-1.02c-0.68,1.38-1.26,2.76-2,4.05c-0.94,1.63-1.41,3.32-1.23,5.2 c0.05,0.52,0.12,1.07-0.23,1.54C126.53,71.74,126.08,71.74,125.64,71.74z"></path> <path class="st116" d="M84.78,71.74c0-3.06,0-6.12,0-8.91c-0.86-1.1-2.92,0.6-2.93-1.76c2.41,0,4.71,0,7,0 c0.21,1.14,0.21,1.14-2.73,1.4c0,3.08,0,6.17,0,9.26C85.67,71.74,85.22,71.74,84.78,71.74z"></path> <path class="st116" d="M105.38,32.94c2.81-2.02,5.12-1.78,7.38,0.77c1.49-1.59,3.37-2.21,5.52-2.07c2.95,0.18,5.11,2.32,5.14,5.26 c0.05,5.16,0.01,10.32,0.02,15.48c0,1.1-0.31,1.95-1.61,1.99c-1.16,0.04-1.73-0.58-1.73-2.01c-0.02-4.63,0-9.25-0.01-13.88 c0-2.04-0.73-2.8-2.67-2.82c-1.97-0.02-2.91,0.83-2.92,2.8c-0.03,4.67,0,9.34-0.02,14.01c0,1.45-0.82,2.17-2.05,1.85 c-1.01-0.26-1.21-1.03-1.2-1.96c0.01-4.58,0.01-9.16,0-13.74c0-2.37-1.46-3.47-3.76-2.87c-1.23,0.32-1.83,1.19-1.84,2.73 c-0.01,4.63-0.01,9.25,0,13.88c0,0.86-0.12,1.62-1.05,1.94c-1.18,0.41-2.19-0.34-2.2-1.7c-0.03-2.89-0.01-5.78-0.01-8.67 c0-3.43-0.01-6.85,0-10.28c0-0.89-0.09-1.84,1.13-2.1C104.64,31.3,105.09,32.02,105.38,32.94z"></path> <path class="st116" d="M101.17,42.46c-0.03,3.53-0.7,6.3-2.54,8.68c-3.36,4.34-9.61,4.35-12.99,0.03 c-3.38-4.32-3.41-12.04-0.06-16.37c3.5-4.52,10.02-4.39,13.32,0.3C100.56,37.47,101.17,40.17,101.17,42.46z M86.48,43.03 c0.09,1.88,0.33,3.72,1.28,5.39c2.01,3.53,6.75,3.63,8.67,0.07c1.92-3.55,1.83-7.27,0.06-10.88c-0.85-1.73-2.37-2.65-4.31-2.66 c-1.99-0.01-3.46,0.96-4.44,2.69C86.79,39.31,86.56,41.16,86.48,43.03z"></path> </g> </svg> 