<?xml version="1.0" encoding="UTF-8"?> <svg xmlns="http://www.w3.org/2000/svg" xmlns:xlink="http://www.w3.org/1999/xlink" version="1.0" id="Layer_1" x="0px" y="0px" viewBox="0 0 200 100" style="enable-background:new 0 0 200 100;" xml:space="preserve"> <style type="text/css"> .st0{fill:#AC5366;} .st1{fill:#232174;} .st2{fill:#231F20;} .st3{fill:#28CBD2;} .st4{fill:#242021;} .st5{fill:#EF9BC1;} .st6{fill:#E9B7F0;} .st7{fill:#070707;} .st8{fill:#736357;} .st9{fill:#59555D;} .st10{fill:#0A0707;} .st11{fill:#010101;} .st12{fill:#0A0C0C;} .st13{fill:#57D0F3;} .st14{fill:#FFFFFF;} .st15{fill:#2D70AF;} .st16{fill:#302F2E;} .st17{fill:#08944E;} .st18{fill:#D8176E;} .st19{fill:#080808;} .st20{fill:#E6623C;} .st21{fill:#0B0A0B;} .st22{fill:#0C0F46;} .st23{fill:#9E005D;} .st24{fill:#4A3A2B;} .st25{fill:#AEA49C;} .st26{fill:#4E4644;} .st27{fill:#036434;} .st28{fill:#3F3A35;} .st29{fill:#919B3F;} .st30{fill:#0F0606;} .st31{fill:#282C96;} .st32{fill:#F2863B;} .st33{fill:#70A2D6;} .st34{fill:#7096D6;} .st35{fill:#4A4745;} .st36{fill:none;} .st37{fill:#020202;} .st38{fill:#991C32;} .st39{fill:#F48888;} .st40{fill:#6AAAAA;} .st41{fill:#112263;} .st42{fill:#627F31;} .st43{fill:#02146F;} .st44{fill:url(#XMLID_00000110443947091883073210000002124690006239126173_);} .st45{fill:url(#XMLID_00000023280951259938507980000013270934808886909359_);} .st46{fill-rule:evenodd;clip-rule:evenodd;fill:url(#SVGID_1_);} .st47{fill-rule:evenodd;clip-rule:evenodd;fill:url(#SVGID_00000155141760705570542200000010065358086421974965_);} .st48{fill-rule:evenodd;clip-rule:evenodd;fill:url(#SVGID_00000108299732259669400240000001860826850505968025_);} .st49{fill:url(#SVGID_00000162331933579788553340000001864517374857959824_);} .st50{fill:url(#SVGID_00000053510082208400668120000002376957088679157407_);} .st51{fill:url(#SVGID_00000016037556359172744350000005718280007920463785_);} .st52{fill:url(#SVGID_00000182511122125230222800000008157235715085918080_);} .st53{fill:url(#SVGID_00000032632827900408766820000013140476742978494143_);} .st54{fill:url(#SVGID_00000120546466696986243060000012808792575431647872_);} .st55{fill:url(#SVGID_00000075871448640747767050000012256084063806755254_);} .st56{fill:url(#SVGID_00000057867235022335554850000014539750219661915070_);} .st57{fill:url(#SVGID_00000135673979118764049730000014461900751908469169_);} .st58{fill:url(#SVGID_00000009553981226136151120000004967628333043060917_);} .st59{fill:url(#SVGID_00000163763499646965880380000006182762889756947114_);} .st60{fill:url(#SVGID_00000160879400839919874000000004349118398845609885_);} .st61{fill:url(#SVGID_00000041262862081319527510000010979036716125848963_);} .st62{fill:url(#SVGID_00000070121029246740419910000007379341453320568737_);} .st63{fill:url(#SVGID_00000014635258711967356740000011328598580903267206_);} .st64{fill:url(#SVGID_00000118396086709445135310000000518004523279869852_);} .st65{fill:url(#SVGID_00000098187389725607489580000013358326662908431265_);} .st66{fill:url(#SVGID_00000023970432316732712630000013650657521245704624_);} .st67{fill:url(#SVGID_00000127006358104005394590000016173696154752512959_);} .st68{fill:url(#SVGID_00000049929347101277136550000013816683676069152920_);} .st69{fill:url(#SVGID_00000017500549141972596760000017806469029192239032_);} .st70{fill:url(#SVGID_00000007387419740947621200000015224634206600644795_);} .st71{fill:url(#SVGID_00000032615521960858352860000016751310247287818140_);} .st72{fill:url(#SVGID_00000008854645607295687850000012194833387713895813_);} .st73{fill:url(#SVGID_00000061465434909874815410000012389651595790723752_);} .st74{fill:url(#SVGID_00000065793355021468636040000010855506629061657487_);} .st75{fill:url(#SVGID_00000026165193279548449340000011976468147188203418_);} .st76{fill:url(#SVGID_00000150098055651755351010000016277110213968066969_);} .st77{fill:url(#SVGID_00000036967534753749053200000013457889615685305521_);} .st78{fill:url(#SVGID_00000103252068580911331390000002133959487540859817_);} .st79{fill:url(#SVGID_00000148645382950813585900000007195700890112476597_);} .st80{fill:url(#SVGID_00000054959286778198841550000017230003063780189858_);} .st81{fill:url(#SVGID_00000129184627475141884670000013925194911500713633_);} .st82{fill:url(#SVGID_00000113350681521956585680000000296132768977373056_);} .st83{fill:url(#SVGID_00000106123230278732723740000006979468853582975669_);} .st84{fill:url(#SVGID_00000076576989891948393260000000523990391759005595_);} .st85{fill:url(#SVGID_00000030445467120439114600000008873766466364488607_);} .st86{fill:url(#SVGID_00000101078463537011533390000000404779517590602374_);} .st87{fill:#251A17;} .st88{fill:url(#SVGID_00000105397413415038385600000003539813085610623128_);} .st89{fill:url(#SVGID_00000124858249034741397600000013598268712498837123_);} .st90{fill:url(#SVGID_00000012473188604056281510000012100858037136096443_);} .st91{fill:url(#SVGID_00000129890957356325983030000013920782950119182742_);} .st92{fill:#006750;} .st93{fill:#050505;} .st94{fill:#262223;} .st95{fill:#40A448;} .st96{fill:#3FA9F5;} .st97{fill:#611417;} .st98{fill:#0D0B0E;} .st99{fill:#B51310;} .st100{fill:#040404;} .st101{fill:#141414;} .st102{fill:#171717;} .st103{fill:#212121;} .st104{fill:#0B0B0B;} .st105{fill:#0A0A0A;} .st106{fill:#1B1B1B;} .st107{fill:#CE3C78;} .st108{fill:#874630;} .st109{fill:#0972BA;} .st110{fill:#103554;} </style> <g> <path class="st5" d="M25.11,41.09c2.73,0,5.47-0.03,8.2,0.01c1.74,0.03,3.21,0.69,4.28,2.11c1.28,1.7,1.25,4.49-0.43,5.97 c-0.16,0.14-0.29,0.31-0.46,0.49c0.2,0.23,0.5,0.35,0.75,0.54c1.02,0.8,1.56,1.85,1.68,3.11c0.14,1.5-0.3,2.85-1.38,3.93 c-0.89,0.89-2,1.35-3.23,1.54c-0.49,0.07-0.98,0.06-1.47,0.06c-2.65,0-5.29,0-7.94,0C25.11,52.93,25.11,47.01,25.11,41.09z M28.97,55.6c0.14,0,0.24,0,0.35,0c1.38,0,2.75,0,4.13,0c1.23,0,2.06-0.85,2.06-2.11c0-1.25-0.84-2.11-2.06-2.11 c-1.38,0-2.75,0-4.13,0c-0.11,0-0.24-0.04-0.34,0.06C28.97,52.8,28.97,54.17,28.97,55.6z M28.97,48.27 c0.06,0.02,0.09,0.03,0.12,0.03c1.27,0,2.54,0.02,3.81,0c0.54-0.01,1.07-0.18,1.43-0.6c0.58-0.67,0.7-1.45,0.33-2.26 c-0.35-0.76-0.98-1.11-1.82-1.1c-1.18,0.01-2.37,0-3.55,0c-0.1,0-0.21-0.03-0.31,0.06C28.97,45.68,28.97,46.97,28.97,48.27z"></path> <path class="st5" d="M166.5,40.84c0.47,0.09,0.94,0.15,1.4,0.26c3.54,0.82,6.3,3.76,6.86,7.32c0.42,2.72-0.17,5.2-1.89,7.37 c-1.37,1.72-3.18,2.77-5.34,3.2c-2.05,0.4-4.04,0.17-5.91-0.76c-2.66-1.32-4.31-3.46-4.91-6.36c-0.51-2.48-0.08-4.83,1.32-6.95 c1.52-2.3,3.7-3.58,6.41-4c0.15-0.02,0.32,0.04,0.46-0.07C165.43,40.84,165.97,40.84,166.5,40.84z M160.15,50 c0,0.34,0.01,0.68,0.07,1.02c0.27,1.59,1.02,2.87,2.4,3.75c1.28,0.82,2.68,1.02,4.17,0.77c1.56-0.27,2.77-1.06,3.61-2.4 c0.9-1.45,1.07-3.03,0.68-4.66c-0.42-1.73-1.45-2.98-3.1-3.69c-0.98-0.42-2.01-0.52-3.07-0.39c-1.12,0.14-2.12,0.56-2.95,1.32 C160.69,46.87,160.15,48.33,160.15,50z"></path> <path class="st5" d="M146.7,40.84c0.52,0.12,1.06,0.17,1.58,0.31c1.99,0.53,3.6,1.61,4.84,3.25c0.14,0.19,0.16,0.31-0.09,0.44 c-0.89,0.5-1.77,1.02-2.66,1.53c-0.05,0.03-0.11,0.05-0.19,0.09c-0.39-0.57-0.88-1.04-1.48-1.38c-1.1-0.64-2.29-0.81-3.54-0.69 c-1.01,0.1-1.93,0.43-2.74,1.04c-1.17,0.88-1.8,2.08-2,3.5c-0.16,1.11-0.11,2.21,0.29,3.27c0.71,1.89,2.08,2.99,4.06,3.33 c1.31,0.23,2.56,0.09,3.76-0.52c0.61-0.31,1.1-0.77,1.52-1.29c0.08-0.1,0.14-0.23,0.31-0.13c0.98,0.57,1.95,1.14,2.95,1.72 c-0.41,0.67-0.92,1.23-1.51,1.73c-1.25,1.06-2.69,1.73-4.3,1.98c-2.81,0.43-5.38-0.15-7.6-2c-1.76-1.46-2.74-3.36-3.07-5.6 c-0.37-2.58,0.16-4.95,1.73-7.05c1.36-1.81,3.2-2.9,5.42-3.34c0.35-0.07,0.7-0.13,1.06-0.19C145.58,40.84,146.14,40.84,146.7,40.84 z"></path> <path class="st5" d="M73.96,51.21c0-3.42,0-6.75,0-10.1c1.26,0,2.49,0,3.75,0c0,5.9,0,11.79,0,17.71 c-0.35,0.04-0.66,0.08-0.98-0.23c-1.46-1.45-2.95-2.86-4.43-4.29c-1.07-1.03-2.13-2.06-3.21-3.07c-0.87-0.8-1.67-1.67-2.62-2.46 c0,3.37,0,6.71,0,10.06c-1.29,0-2.55,0-3.82,0c0-5.91,0-11.8,0-17.71c0.38-0.06,0.69-0.05,1.01,0.26c1.62,1.59,3.27,3.15,4.91,4.71 c0.96,0.91,1.91,1.82,2.87,2.73C72.25,49.6,73.07,50.37,73.96,51.21z"></path> <path class="st5" d="M125.74,58.85c-1.28,0-2.51,0-3.73,0c-0.16,0-0.21-0.09-0.27-0.22c-0.22-0.52-0.45-1.03-0.66-1.56 c-0.07-0.17-0.16-0.22-0.33-0.22c-2.3,0-4.59,0-6.89,0c-0.18,0-0.26,0.06-0.33,0.22c-0.21,0.52-0.44,1.04-0.66,1.56 c-0.05,0.11-0.09,0.21-0.24,0.21c-1.24,0-2.47,0-3.77,0c0.27-0.6,0.53-1.15,0.78-1.71c1.57-3.43,3.15-6.86,4.72-10.3 c0.84-1.83,1.68-3.65,2.51-5.48c0.1-0.22,0.23-0.28,0.46-0.29c0.23,0,0.31,0.12,0.39,0.29c1.38,3.02,2.77,6.03,4.15,9.05 c1.26,2.74,2.51,5.47,3.76,8.21C125.68,58.68,125.7,58.74,125.74,58.85z M117.31,48.64c-0.82,1.79-1.61,3.51-2.42,5.27 c1.63,0,3.2,0,4.82,0C118.91,52.16,118.13,50.44,117.31,48.64z"></path> <path class="st5" d="M58.94,58.85c-0.78,0-1.48,0-2.19,0c-0.5,0-1-0.01-1.51,0c-0.18,0-0.26-0.06-0.33-0.22 c-0.2-0.5-0.43-1-0.63-1.5c-0.08-0.19-0.17-0.27-0.39-0.27c-2.28,0.01-4.55,0.01-6.83,0c-0.21,0-0.31,0.07-0.38,0.25 c-0.2,0.5-0.42,1-0.63,1.5c-0.06,0.15-0.14,0.24-0.33,0.24c-1.15-0.01-2.31,0-3.46-0.01c-0.05,0-0.1-0.01-0.18-0.03 c0.14-0.51,0.4-0.95,0.61-1.41c1.78-3.9,3.58-7.79,5.37-11.69c0.67-1.46,1.34-2.92,2-4.38c0.1-0.23,0.25-0.26,0.47-0.27 c0.22-0.01,0.29,0.11,0.37,0.27c0.99,2.18,1.99,4.35,2.99,6.53c1.55,3.38,3.09,6.75,4.64,10.12 C58.66,58.27,58.78,58.53,58.94,58.85z M52.89,53.92c-0.8-1.77-1.59-3.49-2.4-5.28c-0.82,1.8-1.61,3.52-2.42,5.28 C49.72,53.92,51.27,53.92,52.89,53.92z"></path> <path class="st5" d="M98.57,41.12c0,4.76,0,9.49,0,14.27c2.47,0,4.92,0,7.4,0c0,1.17,0,2.3,0,3.45c-3.74,0-7.47,0-11.22,0 c0-5.9,0-11.79,0-17.71C96,41.12,97.26,41.12,98.57,41.12z"></path> <path class="st5" d="M88.1,41.12c0,5.91,0,11.8,0,17.71c-1.27,0-2.53,0-3.8,0c0-5.9,0-11.79,0-17.71 C85.55,41.12,86.81,41.12,88.1,41.12z"></path> </g> </svg> 