<?xml version="1.0" encoding="UTF-8"?>
<svg id="_레이어_2" data-name="레이어 2" xmlns="http://www.w3.org/2000/svg" viewBox="0 0 1057.81 100">
  <g id="Layer_1" data-name="Layer 1">
    <g>
      <path d="m285.67,99.86c-4.96,0-9.41-1.15-13.36-3.45-3.95-2.29-7.05-5.44-9.29-9.44-2.25-3.99-3.38-8.65-3.38-13.98V25.07c0-2.48-.6-4.73-1.79-6.75-1.19-2.02-2.8-3.62-4.82-4.82-2.02-1.19-4.23-1.79-6.61-1.79s-4.57.6-6.54,1.79c-1.98,1.2-3.54,2.8-4.68,4.82-1.15,2.02-1.72,4.27-1.72,6.75v73.14h-13.22V26.86c0-5.05,1.11-9.59,3.31-13.64,2.21-4.04,5.28-7.23,9.23-9.57,3.95-2.34,8.49-3.51,13.63-3.51s9.82,1.17,13.78,3.51c3.95,2.34,7.02,5.53,9.23,9.57,2.21,4.04,3.31,8.59,3.31,13.64v47.93c0,2.57.6,4.85,1.79,6.82,1.19,1.98,2.78,3.56,4.75,4.75,1.97,1.2,4.11,1.79,6.4,1.79s4.41-.6,6.34-1.79c1.93-1.19,3.46-2.78,4.62-4.75,1.15-1.97,1.72-4.25,1.72-6.82V26.86c0-5.05,1.12-9.59,3.38-13.64,2.25-4.04,5.35-7.23,9.3-9.57,3.95-2.34,8.54-3.51,13.77-3.51s9.69,1.17,13.64,3.51c3.95,2.34,7.02,5.53,9.23,9.57,2.21,4.04,3.31,8.59,3.31,13.64v71.35h-13.22V25.07c0-2.48-.57-4.73-1.72-6.75-1.15-2.02-2.71-3.62-4.68-4.82-1.98-1.19-4.16-1.79-6.54-1.79s-4.71.6-6.68,1.79c-1.98,1.2-3.56,2.8-4.75,4.82-1.19,2.02-1.79,4.27-1.79,6.75v47.93c0,5.33-1.12,9.99-3.37,13.98-2.25,4-5.33,7.14-9.23,9.44-3.91,2.3-8.33,3.45-13.29,3.45Z"/>
      <path d="m158.45,100c-7.62,0-14.51-1.31-20.66-3.93-6.15-2.62-11.41-6.22-15.77-10.81-4.37-4.59-7.74-9.92-10.12-15.98-2.39-6.06-3.58-12.53-3.58-19.42s1.19-13.22,3.58-19.28c2.39-6.06,5.76-11.38,10.12-15.98,4.36-4.59,9.62-8.17,15.77-10.74C143.94,1.29,150.83,0,158.45,0s14.51,1.29,20.66,3.86c6.15,2.57,11.41,6.15,15.77,10.74,4.36,4.59,7.74,9.92,10.12,15.98,2.39,6.06,3.58,12.53,3.58,19.42s-1.19,13.22-3.58,19.28c-2.39,6.06-5.76,11.39-10.12,15.98-4.36,4.59-9.62,8.2-15.77,10.81-6.15,2.62-13.04,3.93-20.66,3.93Zm0-11.71c5.24,0,10.1-.96,14.6-2.89,4.5-1.93,8.42-4.64,11.78-8.13,3.35-3.49,5.95-7.55,7.78-12.19,1.83-4.64,2.75-9.71,2.75-15.22s-.92-10.47-2.75-15.15c-1.84-4.68-4.41-8.75-7.71-12.19-3.31-3.44-7.23-6.11-11.78-7.99-4.55-1.88-9.43-2.82-14.67-2.82s-10.24.94-14.73,2.82c-4.5,1.88-8.41,4.55-11.71,7.99-3.31,3.45-5.88,7.51-7.71,12.19-1.84,4.68-2.75,9.78-2.75,15.29s.92,10.45,2.75,15.08c1.84,4.64,4.41,8.7,7.71,12.19,3.3,3.49,7.21,6.2,11.71,8.13,4.5,1.93,9.41,2.89,14.73,2.89Z"/>
      <path d="m84.3,65.08c-1.84,4.64-4.43,8.7-7.78,12.19-3.35,3.49-7.28,6.2-11.78,8.13-4.5,1.93-9.36,2.89-14.6,2.89s-10.24-.96-14.73-2.89c-4.5-1.93-8.41-4.64-11.71-8.13-3.31-3.49-5.88-7.55-7.71-12.19-1.84-4.64-2.75-9.66-2.75-15.08s.92-10.6,2.75-15.29c1.84-4.68,4.41-8.75,7.71-12.19,3.3-3.44,7.21-6.1,11.71-7.99,4.5-1.88,9.41-2.82,14.73-2.82s10.12.94,14.67,2.82c4.55,1.88,8.47,4.55,11.78,7.99,3.31,3.45,5.88,7.51,7.71,12.19.29.74.51,1.5.76,2.25h13.62c-.54-2.17-1.16-4.31-1.98-6.38-2.39-6.06-5.76-11.38-10.12-15.98-4.36-4.59-9.62-8.17-15.77-10.74-6.15-2.57-13.04-3.86-20.66-3.86s-14.51,1.29-20.66,3.86c-6.15,2.57-11.41,6.15-15.77,10.74-4.37,4.59-7.74,9.92-10.12,15.98-2.39,6.06-3.58,12.49-3.58,19.28s1.19,13.36,3.58,19.42c2.39,6.06,5.76,11.39,10.12,15.98,4.36,4.59,9.62,8.2,15.77,10.81,6.15,2.62,13.03,3.93,20.66,3.93s14.51-1.31,20.66-3.93c6.15-2.62,11.41-6.22,15.77-10.81,4.36-4.59,7.74-9.92,10.12-15.98.8-2.04,1.42-4.13,1.95-6.25h-13.66c-.23.68-.43,1.38-.69,2.05Z"/>
      <path d="m431.24,99.86c-4.96,0-9.41-1.15-13.36-3.45-3.95-2.29-7.05-5.44-9.29-9.44-2.25-3.99-3.38-8.65-3.38-13.98V25.07c0-2.48-.6-4.73-1.79-6.75-1.19-2.02-2.8-3.62-4.82-4.82-2.02-1.19-4.23-1.79-6.61-1.79s-4.57.6-6.54,1.79c-1.98,1.2-3.54,2.8-4.68,4.82-1.15,2.02-1.72,4.27-1.72,6.75v73.14h-13.22V26.86c0-5.05,1.11-9.59,3.31-13.64,2.21-4.04,5.28-7.23,9.23-9.57,3.95-2.34,8.49-3.51,13.63-3.51s9.82,1.17,13.78,3.51c3.95,2.34,7.02,5.53,9.23,9.57,2.21,4.04,3.31,8.59,3.31,13.64v47.93c0,2.57.6,4.85,1.79,6.82,1.19,1.98,2.78,3.56,4.75,4.75,1.97,1.2,4.11,1.79,6.4,1.79s4.41-.6,6.34-1.79c1.93-1.19,3.46-2.78,4.62-4.75,1.15-1.97,1.72-4.25,1.72-6.82V26.86c0-5.05,1.12-9.59,3.38-13.64,2.25-4.04,5.35-7.23,9.3-9.57,3.95-2.34,8.54-3.51,13.77-3.51s9.69,1.17,13.64,3.51c3.95,2.34,7.02,5.53,9.23,9.57,2.21,4.04,3.31,8.59,3.31,13.64v71.35h-13.22V25.07c0-2.48-.57-4.73-1.72-6.75-1.15-2.02-2.71-3.62-4.68-4.82-1.98-1.19-4.16-1.79-6.54-1.79s-4.71.6-6.68,1.79c-1.98,1.2-3.56,2.8-4.75,4.82-1.19,2.02-1.79,4.27-1.79,6.75v47.93c0,5.33-1.12,9.99-3.37,13.98-2.25,4-5.33,7.14-9.23,9.44-3.91,2.3-8.33,3.45-13.29,3.45Z"/>
      <path d="m558.31,100c-7.62,0-14.51-1.31-20.66-3.93-6.15-2.62-11.41-6.22-15.77-10.81-4.37-4.59-7.74-9.92-10.12-15.98-2.39-6.06-3.58-12.53-3.58-19.42s1.19-13.22,3.58-19.28c2.39-6.06,5.76-11.38,10.12-15.98,4.36-4.59,9.62-8.17,15.77-10.74C543.8,1.29,550.68,0,558.31,0s14.51,1.29,20.66,3.86c6.15,2.57,11.41,6.15,15.77,10.74,4.36,4.59,7.74,9.92,10.12,15.98,2.39,6.06,3.58,12.53,3.58,19.42s-1.19,13.22-3.58,19.28c-2.39,6.06-5.76,11.39-10.12,15.98-4.36,4.59-9.62,8.2-15.77,10.81-6.15,2.62-13.04,3.93-20.66,3.93Zm0-11.71c5.24,0,10.1-.96,14.6-2.89,4.5-1.93,8.42-4.64,11.78-8.13,3.35-3.49,5.95-7.55,7.78-12.19,1.83-4.64,2.75-9.71,2.75-15.22s-.92-10.47-2.75-15.15c-1.84-4.68-4.41-8.75-7.71-12.19-3.31-3.44-7.23-6.11-11.78-7.99-4.55-1.88-9.43-2.82-14.67-2.82s-10.24.94-14.73,2.82c-4.5,1.88-8.41,4.55-11.71,7.99-3.31,3.45-5.88,7.51-7.71,12.19-1.84,4.68-2.75,9.78-2.75,15.29s.92,10.45,2.75,15.08c1.84,4.64,4.41,8.7,7.71,12.19,3.3,3.49,7.21,6.2,11.71,8.13,4.5,1.93,9.41,2.89,14.73,2.89Z"/>
      <path d="m685.91,99.86c-5.14,0-9.66-1.17-13.56-3.51-3.91-2.34-6.96-5.53-9.16-9.57-2.21-4.04-3.31-8.59-3.31-13.64V25.07c0-2.48-.6-4.73-1.79-6.75-1.19-2.02-2.8-3.62-4.82-4.82-2.02-1.19-4.23-1.79-6.61-1.79s-4.57.6-6.54,1.79c-1.98,1.2-3.54,2.8-4.68,4.82-1.15,2.02-1.72,4.27-1.72,6.75v73.14h-13.22V26.86c0-5.05,1.11-9.59,3.31-13.64,2.21-4.04,5.28-7.23,9.23-9.57,3.95-2.34,8.49-3.51,13.63-3.51s9.82,1.17,13.78,3.51c3.95,2.34,7.02,5.53,9.23,9.57,2.21,4.04,3.31,8.59,3.31,13.64v48.07c0,2.48.6,4.73,1.79,6.75,1.19,2.02,2.78,3.63,4.75,4.82,1.97,1.2,4.11,1.79,6.4,1.79s4.41-.6,6.34-1.79c1.93-1.19,3.46-2.8,4.62-4.82,1.15-2.02,1.72-4.27,1.72-6.75V1.79h13.22v71.35c0,5.05-1.1,9.6-3.3,13.64-2.21,4.04-5.24,7.23-9.09,9.57-3.86,2.34-8.36,3.51-13.5,3.51Z"/>
      <path d="m752.15,98.07c-5.24,0-9.76-1.12-13.57-3.37-3.81-2.25-6.75-5.32-8.82-9.23-2.06-3.9-3.1-8.29-3.1-13.15V1.65h13.22v72.31c0,3.58,1.12,6.54,3.38,8.88,2.25,2.34,5.21,3.51,8.88,3.51h25.89v11.71h-25.89Z"/>
      <path d="m787.69,98.07l32.78-87.19c1.47-3.76,3.49-6.52,6.06-8.26,2.57-1.74,5.55-2.62,8.95-2.62s6.4.85,9.02,2.55c2.62,1.7,4.61,4.43,5.99,8.19l32.92,87.33h-14.46l-8.4-23.28h-50.42l-8.54,23.28h-13.91Zm26.58-34.99h42.29l-17.22-47.79c-.46-1.19-.96-2.11-1.52-2.75-.55-.64-1.33-.96-2.34-.96-.92,0-1.65.32-2.21.96-.55.64-1.01,1.56-1.38,2.75l-17.63,47.79Z"/>
      <path d="m1057.81,70.75c0-15.09-12.31-27.32-27.49-27.32l-18.4-.05c-8.28,0-15-6.71-15-15s6.71-15,15-15v-.05s39.68,0,39.68,0V1.62h-41.15s0,0,0,0h-.16c-14.7.1-26.59,12.04-26.59,26.76s11.98,26.76,26.76,26.76h18.52c8.62.01,15.6,7,15.6,15.61s-6.99,15.6-15.6,15.6h0s-41.56,0-41.56,0v11.71h42.9s0,0,.01,0h.4v-.02c14.99-.23,27.07-12.35,27.07-27.3Z"/>
      <path d="m974.68,72.91c0-11.86-8-21.77-18.74-24.43,9.36-3.31,16.08-12.22,16.08-22.71,0-13.32-10.8-24.11-24.11-24.11h-52.83v96.42h55.83v-.04c13.19-.39,23.78-11.47,23.78-25.12Zm-30.84-59.56c8.28,0,14.99,6.71,14.99,14.99s-6.71,14.99-14.99,14.99l.02.02h-35.56V13.36h35.55Zm1.97,73h0s-37.52,0-37.52,0v-31.3h37.52c8.64,0,15.65,7.01,15.65,15.65s-7.01,15.65-15.65,15.65Z"/>
    </g>
  </g>
</svg>