<?xml version="1.0" encoding="UTF-8"?> <svg xmlns="http://www.w3.org/2000/svg" xmlns:xlink="http://www.w3.org/1999/xlink" version="1.0" id="Layer_1" x="0px" y="0px" viewBox="0 0 200 100" style="enable-background:new 0 0 200 100;" xml:space="preserve"> <style type="text/css"> .st0{fill:#AC5366;} .st1{fill:#232174;} .st2{fill:#231F20;} .st3{fill:#28CBD2;} .st4{fill:#242021;} .st5{fill:#EF9BC1;} .st6{fill:#E9B7F0;} .st7{fill:#070707;} .st8{fill:#736357;} .st9{fill:#59555D;} .st10{fill:#0A0707;} .st11{fill:#010101;} .st12{fill:#0A0C0C;} .st13{fill:#57D0F3;} .st14{fill:#FFFFFF;} .st15{fill:#2D70AF;} .st16{fill:#302F2E;} .st17{fill:#08944E;} .st18{fill:#D8176E;} .st19{fill:#080808;} .st20{fill:#E6623C;} .st21{fill:#0B0A0B;} .st22{fill:#0C0F46;} .st23{fill:#9E005D;} .st24{fill:#4A3A2B;} .st25{fill:#AEA49C;} .st26{fill:#4E4644;} .st27{fill:#036434;} .st28{fill:#3F3A35;} .st29{fill:#919B3F;} .st30{fill:#0F0606;} .st31{fill:#282C96;} .st32{fill:#F2863B;} .st33{fill:#70A2D6;} .st34{fill:#7096D6;} .st35{fill:#4A4745;} .st36{fill:none;} .st37{fill:#020202;} .st38{fill:#991C32;} .st39{fill:#F48888;} .st40{fill:#6AAAAA;} .st41{fill:#112263;} .st42{fill:#627F31;} .st43{fill:#02146F;} .st44{fill:url(#XMLID_00000083806574258236143210000000861803127125664401_);} .st45{fill:url(#XMLID_00000049211888493066509020000014811066335967929494_);} .st46{fill-rule:evenodd;clip-rule:evenodd;fill:url(#SVGID_1_);} .st47{fill-rule:evenodd;clip-rule:evenodd;fill:url(#SVGID_00000075120459731176542870000007929192540489478022_);} .st48{fill-rule:evenodd;clip-rule:evenodd;fill:url(#SVGID_00000109732694462955748360000003110196994681527196_);} .st49{fill:url(#SVGID_00000176032367993682455450000002826440760346349483_);} .st50{fill:url(#SVGID_00000142173816897273109070000014984284593710373815_);} .st51{fill:url(#SVGID_00000033345555172448126860000008705943453796917389_);} .st52{fill:url(#SVGID_00000160148035294255494160000005495089116135503524_);} .st53{fill:url(#SVGID_00000116931616508895518340000010141578439523192487_);} .st54{fill:url(#SVGID_00000003079233803284202390000018391362681512462509_);} .st55{fill:url(#SVGID_00000029039403269046167360000003255676699464209293_);} .st56{fill:url(#SVGID_00000010287235213937355800000008378077570524588965_);} .st57{fill:url(#SVGID_00000126313030312647305170000010492479619631802252_);} .st58{fill:url(#SVGID_00000039853512158968169120000012951258200897203390_);} .st59{fill:url(#SVGID_00000138543258588943181470000014361261725097713806_);} .st60{fill:url(#SVGID_00000001625269436433668520000005137648210962058141_);} .st61{fill:url(#SVGID_00000025415225202054356410000013024468719385976247_);} .st62{fill:url(#SVGID_00000114765003950446403100000003012603311768532878_);} .st63{fill:url(#SVGID_00000082329509298793265900000012470326738861285768_);} .st64{fill:url(#SVGID_00000075842873492011134700000000599641427137828230_);} .st65{fill:url(#SVGID_00000168109265180710636430000008205700104296291730_);} .st66{fill:url(#SVGID_00000000202956781301025980000012306904183943304632_);} .st67{fill:url(#SVGID_00000018213084774207153500000016829400405584231812_);} .st68{fill:url(#SVGID_00000179639170406815288210000004042473182515688124_);} .st69{fill:url(#SVGID_00000149367345287185461010000008728196373453467028_);} .st70{fill:url(#SVGID_00000146483023244860101680000002868057833203493797_);} .st71{fill:url(#SVGID_00000151523580495964794930000000826801599868398236_);} .st72{fill:url(#SVGID_00000012431789851511274530000012296669173730454183_);} .st73{fill:url(#SVGID_00000041286507412520882330000006167332150858268837_);} .st74{fill:url(#SVGID_00000145767687357359428090000009365981943098222515_);} .st75{fill:url(#SVGID_00000176761525326320935380000008863747430893550984_);} .st76{fill:url(#SVGID_00000111880607752619948930000015499795350608017561_);} .st77{fill:url(#SVGID_00000151504165840922978400000009243021159245536693_);} .st78{fill:url(#SVGID_00000097481151563715329760000014085295914678738582_);} .st79{fill:url(#SVGID_00000119078303809761820130000006860322544530353041_);} .st80{fill:url(#SVGID_00000059300462521638014500000014947963571104402862_);} .st81{fill:url(#SVGID_00000079483618578902565100000006302568750094200765_);} .st82{fill:url(#SVGID_00000023252326941395008300000006357305194967303041_);} .st83{fill:url(#SVGID_00000044864250248735155790000002160967754242314389_);} .st84{fill:url(#SVGID_00000057866397719775290610000007495558095948512150_);} .st85{fill:url(#SVGID_00000179622853450601238900000016083940357185397384_);} .st86{fill:url(#SVGID_00000006680215326200777310000007609965924266887357_);} .st87{fill:#251A17;} .st88{fill:url(#SVGID_00000054957287128967847740000017234161977114903727_);} .st89{fill:url(#SVGID_00000005965822704198703620000006705432983884202142_);} .st90{fill:url(#SVGID_00000116942649992027320640000016189198196313354423_);} .st91{fill:url(#SVGID_00000135678393452643775190000017341958474447637412_);} .st92{fill:#006750;} .st93{fill:#050505;} .st94{fill:#262223;} .st95{fill:#40A448;} .st96{fill:#3FA9F5;} .st97{fill:#611417;} .st98{fill:#0D0B0E;} .st99{fill:#B51310;} .st100{fill:#040404;} .st101{fill:#141414;} .st102{fill:#171717;} .st103{fill:#212121;} .st104{fill:#0B0B0B;} .st105{fill:#0A0A0A;} .st106{fill:#1B1B1B;} .st107{fill:#CE3C78;} .st108{fill:#874630;} .st109{fill:#0972BA;} .st110{fill:#103554;} </style> <g> <path class="st11" d="M26.3,48.69c0.13-0.31,0.11-0.64,0.16-0.96c0.47-3.06,1.76-5.73,3.88-7.99c2.34-2.49,5.2-4.06,8.58-4.57 c4.6-0.7,8.7,0.48,12.25,3.51c0.11,0.1,0.23,0.2,0.34,0.3c0.01,0.01,0.02,0.03,0.04,0.06c-1.59,1.2-3.19,2.39-4.79,3.6 c-2.24-1.59-4.71-2.16-7.41-1.58c-2.21,0.48-3.99,1.65-5.35,3.46c-2.7,3.58-2.36,8.59,0.8,11.83c3.08,3.16,8.51,3.9,12.52,0.5 c1.53,1.22,3.06,2.45,4.6,3.68c-0.85,0.88-1.79,1.61-2.82,2.24c-5.76,3.48-13.06,2.75-17.99-1.83c-2.62-2.43-4.16-5.44-4.68-8.97 c-0.04-0.25-0.01-0.5-0.12-0.73C26.3,50.39,26.3,49.54,26.3,48.69z"></path> <path class="st11" d="M101.96,65.07c-0.48-0.08-0.96-0.13-1.44-0.23c-3.34-0.7-6.16-2.27-8.29-4.97c-0.12-0.15-0.22-0.33-0.33-0.5 c-0.03-0.05-0.05-0.1-0.09-0.17c1.39-0.98,2.78-1.96,4.18-2.95c0.41,0.45,0.81,0.91,1.25,1.31c1.23,1.13,2.61,2,4.29,2.26 c1.5,0.23,2.98,0.18,4.35-0.58c0.79-0.44,1.4-1.06,1.61-1.95c0.3-1.25-0.08-2.31-1.08-3.13c-0.73-0.6-1.6-0.96-2.48-1.27 c-1.7-0.61-3.45-1.1-5.11-1.82c-1.43-0.61-2.84-1.27-3.95-2.38c-1.67-1.66-2.53-3.66-2.13-6.04c0.6-3.6,2.77-5.94,6.16-7.04 c3.9-1.27,7.64-0.81,11.04,1.62c0.72,0.51,1.34,1.13,1.91,1.83c-1.44,1.1-2.87,2.2-4.29,3.3c-0.14-0.06-0.22-0.19-0.32-0.28 c-1.27-1.17-2.78-1.74-4.49-1.81c-0.92-0.04-1.81,0.05-2.66,0.43c-1.04,0.47-1.74,1.21-1.83,2.41c-0.05,0.63,0.21,1.14,0.64,1.57 c0.71,0.72,1.61,1.15,2.53,1.52c2.21,0.87,4.43,1.72,6.58,2.72c1.48,0.69,2.8,1.6,3.81,2.92c1.04,1.36,1.45,2.89,1.35,4.59 c-0.13,2.16-0.9,4.03-2.4,5.59c-1.35,1.4-3.01,2.25-4.88,2.7c-0.62,0.15-1.26,0.26-1.9,0.29c-0.04,0-0.07,0.01-0.08,0.05 C103.25,65.07,102.61,65.07,101.96,65.07z"></path> <path class="st11" d="M56.39,50.48c0-6.93,4.17-12.85,10.3-14.77c5.45-1.71,10.37-0.57,14.57,3.3c2.52,2.32,3.98,5.27,4.47,8.65 c0.71,4.86-0.56,9.15-3.92,12.75c-2.1,2.25-4.71,3.65-7.73,4.25c-8.32,1.65-15.84-4-17.39-11.69 C56.48,52.02,56.4,51.04,56.39,50.48z M80.59,49.9c0-0.23-0.02-0.65-0.07-1.08c-0.54-4.45-4.01-7.95-8.43-8.36 c-2.86-0.26-5.33,0.62-7.32,2.66c-2.39,2.45-3.25,5.44-2.64,8.79c0.9,5.01,5.64,8.32,10.64,7.48 C77.32,58.63,80.59,54.74,80.59,49.9z"></path> <path class="st11" d="M126.74,51.78c0,4.27,0,8.45,0,12.65c-1.77,0-3.53,0-5.29,0c0-9.61,0-19.21,0-28.82 c0.07-0.07,0.17-0.03,0.26-0.03c3.39,0,6.77-0.04,10.16,0.01c4.02,0.05,7.14,2.46,8.12,6.49c0.44,1.8,0.43,3.57-0.31,5.29 c-0.87,2-2.39,3.33-4.37,4.16c-0.54,0.22-1.08,0.43-1.67,0.66c3.57,4.08,7.12,8.14,10.71,12.24c-0.21,0-0.36,0-0.51,0 c-1.88,0-3.76,0-5.65,0.01c-0.21,0-0.34-0.07-0.48-0.22c-3.6-4.1-7.21-8.19-10.82-12.29C126.86,51.91,126.83,51.88,126.74,51.78z M126.53,47.93c0.1,0.05,0.2,0.02,0.3,0.02c1.29,0,2.57,0,3.86,0c0.32,0,0.64-0.02,0.96-0.06c1.52-0.19,2.61-1.16,2.98-2.63 c0.12-0.5,0.13-1.01,0.09-1.52c-0.15-1.89-1.55-3.31-3.45-3.45c-1.56-0.11-3.12-0.03-4.68-0.04c-0.02,0-0.03,0.02-0.06,0.03 C126.53,42.83,126.53,45.38,126.53,47.93z"></path> <path class="st11" d="M147.69,35.8c1.92,0,3.77,0,5.62,0c0.35,0,0.75-0.12,1.03,0.05c0.26,0.17,0.38,0.54,0.56,0.83 c1.83,2.96,3.65,5.92,5.48,8.88c0.05,0.09,0.08,0.19,0.19,0.25c0.9-1.34,1.8-2.68,2.7-4.01c1.3-1.93,2.6-3.87,3.9-5.8 c0.07-0.1,0.11-0.2,0.27-0.2c1.93,0.01,3.86,0,5.81,0c-0.01,0.12-0.08,0.19-0.14,0.27c-2.99,4.45-5.99,8.91-8.98,13.36 c-0.29,0.44-0.29,0.43,0.01,0.88c3.14,4.62,6.28,9.24,9.41,13.86c0.05,0.08,0.1,0.15,0.15,0.23c-0.07,0.07-0.15,0.04-0.22,0.04 c-2.05,0-4.11,0-6.16,0.01c-0.2,0-0.3-0.07-0.41-0.22c-2.16-3.1-4.33-6.2-6.49-9.31c-0.03-0.04-0.05-0.07-0.1-0.13 c-0.2,0.32-0.39,0.62-0.58,0.92c-1.81,2.93-3.82,5.73-5.73,8.59c-0.06,0.09-0.12,0.15-0.25,0.15c-1.93-0.01-3.86-0.01-5.79-0.01 c-0.01,0-0.01-0.01-0.06-0.04c3.15-4.69,6.3-9.38,9.46-14.08C154.15,45.49,150.94,40.67,147.69,35.8z"></path> </g> </svg> 