<?xml version="1.0" encoding="UTF-8"?> <svg xmlns="http://www.w3.org/2000/svg" xmlns:xlink="http://www.w3.org/1999/xlink" version="1.0" id="Layer_1" x="0px" y="0px" viewBox="0 0 200 100" style="enable-background:new 0 0 200 100;" xml:space="preserve"> <style type="text/css"> .st0{fill:#AC5366;} .st1{fill:#232174;} .st2{fill:#231F20;} .st3{fill:#28CBD2;} .st4{fill:#242021;} .st5{fill:#EF9BC1;} .st6{fill:#E9B7F0;} .st7{fill:#070707;} .st8{fill:#736357;} .st9{fill:#59555D;} .st10{fill:#0A0707;} .st11{fill:#010101;} .st12{fill:#0A0C0C;} .st13{fill:#57D0F3;} .st14{fill:#FFFFFF;} .st15{fill:#2D70AF;} .st16{fill:#302F2E;} .st17{fill:#08944E;} .st18{fill:#D8176E;} .st19{fill:#080808;} .st20{fill:#E6623C;} .st21{fill:#0B0A0B;} .st22{fill:#0C0F46;} .st23{fill:#9E005D;} .st24{fill:#4A3A2B;} .st25{fill:#AEA49C;} .st26{fill:#4E4644;} .st27{fill:#036434;} .st28{fill:#3F3A35;} .st29{fill:#919B3F;} .st30{fill:#0F0606;} .st31{fill:#282C96;} .st32{fill:#F2863B;} .st33{fill:#70A2D6;} .st34{fill:#7096D6;} .st35{fill:#4A4745;} .st36{fill:none;} .st37{fill:#020202;} .st38{fill:#991C32;} .st39{fill:#F48888;} .st40{fill:#6AAAAA;} .st41{fill:#112263;} .st42{fill:#627F31;} .st43{fill:#02146F;} .st44{fill:url(#XMLID_00000079469688719921937860000001740953967337006476_);} .st45{fill:url(#XMLID_00000145772548205888185890000018444392961251354532_);} .st46{fill-rule:evenodd;clip-rule:evenodd;fill:url(#SVGID_1_);} .st47{fill-rule:evenodd;clip-rule:evenodd;fill:url(#SVGID_00000032645451515056481050000002582835667063952035_);} .st48{fill-rule:evenodd;clip-rule:evenodd;fill:url(#SVGID_00000138573704583159489670000016836660573226255260_);} .st49{fill:url(#SVGID_00000019677246316035371020000010356507142155157674_);} .st50{fill:url(#SVGID_00000036214683129899121050000002536930033520525741_);} .st51{fill:url(#SVGID_00000179623254218970688720000009637210187480988588_);} .st52{fill:url(#SVGID_00000108301734800807716470000007587701488384760196_);} .st53{fill:url(#SVGID_00000127759107777014828630000014341571747367088527_);} .st54{fill:url(#SVGID_00000139273963030304467930000003183476044788377255_);} .st55{fill:url(#SVGID_00000065770197671197893670000009152139971304605315_);} .st56{fill:url(#SVGID_00000119804884331107527030000008112511668039118991_);} .st57{fill:url(#SVGID_00000084527129200032863860000015330944428790052247_);} .st58{fill:url(#SVGID_00000181079642315652879990000001467282993953539474_);} .st59{fill:url(#SVGID_00000029019562757948734380000003833138071388513471_);} .st60{fill:url(#SVGID_00000170999728547017454620000013999521292268787097_);} .st61{fill:url(#SVGID_00000161596285221002437870000018446180158112838844_);} .st62{fill:url(#SVGID_00000049217868562932046610000007533379571398299287_);} .st63{fill:url(#SVGID_00000098200276023710306860000011939806475500265626_);} .st64{fill:url(#SVGID_00000016763475164578575950000004188705250793366688_);} .st65{fill:url(#SVGID_00000054981901669917695970000017864531708755629503_);} .st66{fill:url(#SVGID_00000173839313072098737500000014130528025471580553_);} .st67{fill:url(#SVGID_00000026871188241450719800000008656906131947643300_);} .st68{fill:url(#SVGID_00000016786710724859771170000006460063894236405155_);} .st69{fill:url(#SVGID_00000036209491320115077410000000810012782329441698_);} .st70{fill:url(#SVGID_00000107567698342785123420000016507303314651055784_);} .st71{fill:url(#SVGID_00000041989340923354147930000002886278754768020140_);} .st72{fill:url(#SVGID_00000018935923479430193470000002538942174004258210_);} .st73{fill:url(#SVGID_00000106106628632992006240000016053312553291281065_);} .st74{fill:url(#SVGID_00000106845404056662306580000011880532684565568920_);} .st75{fill:url(#SVGID_00000098179906960515603680000014372377752680752809_);} .st76{fill:url(#SVGID_00000150810549575038802800000000836564687012300193_);} .st77{fill:url(#SVGID_00000160903202493014869850000013532888115719440292_);} .st78{fill:url(#SVGID_00000089540972733272225730000010683269674378032290_);} .st79{fill:url(#SVGID_00000084519514520758042820000012902081960577337728_);} .st80{fill:url(#SVGID_00000039099995424541946380000003042104077760791719_);} .st81{fill:url(#SVGID_00000072265448913529671390000001419596155694451081_);} .st82{fill:url(#SVGID_00000067228484103738779500000002115191653775399814_);} .st83{fill:url(#SVGID_00000114784763821057124510000001327172646437653398_);} .st84{fill:url(#SVGID_00000116214979966499391020000005714403706604501417_);} .st85{fill:url(#SVGID_00000074400437692855365490000009824710326166983603_);} .st86{fill:url(#SVGID_00000178187091609579130330000015764647945435552692_);} .st87{fill:#251A17;} .st88{fill:url(#SVGID_00000031887564780146670780000011588993715981786799_);} .st89{fill:url(#SVGID_00000057856037753319112520000008010668821879353020_);} .st90{fill:url(#SVGID_00000130607506152410346010000013157075397430791870_);} .st91{fill:url(#SVGID_00000176018190221836227250000017737257614267945374_);} .st92{fill:#006750;} .st93{fill:#050505;} .st94{fill:#262223;} .st95{fill:#40A448;} .st96{fill:#3FA9F5;} .st97{fill:#611417;} .st98{fill:#0D0B0E;} .st99{fill:#B51310;} .st100{fill:#040404;} .st101{fill:#141414;} .st102{fill:#171717;} .st103{fill:#212121;} .st104{fill:#0B0B0B;} .st105{fill:#0A0A0A;} .st106{fill:#1B1B1B;} .st107{fill:#CE3C78;} .st108{fill:#874630;} .st109{fill:#0972BA;} .st110{fill:#103554;} </style> <g> <g> <path class="st27" d="M124.87,36.14c0.06,0.23,0.26,0.23,0.45,0.29c1.64,0.5,2.26,2.22,1.22,3.58c-0.37,0.49-1.01,0.64-1.38-0.18 c-0.52-1.15-1.4-1.75-2.69-1.66c-1.37,0.1-2.28,0.89-2.82,2.07c-0.71,1.56-1.25,3.18-1.59,4.99c1.85,0,3.65,0,5.44,0 c0.37,0.94-0.05,1.22-0.81,1.34c-1.65,0.26-3.3,0.56-5.03,0.86c-0.48,2.66-0.95,5.31-1.43,7.96c-0.47,2.6-0.95,5.19-1.44,7.83 c-1.2,0-2.32,0-3.6,0c0.94-5.2,1.87-10.32,2.83-15.59c-1.29,0-2.46,0-3.63,0c-0.19-0.87,0.07-1.55,0.3-2.33c1.21,0,2.44,0,3.69,0 c0.35-1.09,0.64-2.12,1.02-3.11c1.03-2.7,2.85-4.66,5.63-5.66c0.22-0.08,0.51-0.06,0.57-0.37 C122.69,36.14,123.78,36.14,124.87,36.14z"></path> <path class="st27" d="M62.15,63.17c-1.18,0-2.25,0-3.52,0c0.46-2.53,0.9-5,1.35-7.47c0.44-2.4,0.92-4.8,1.34-7.21 c0.14-0.8,0.32-1.58-0.45-2.31c-0.51-0.49-0.32-1.1,0.56-1.15c1.28-0.08,2.55-0.15,3.93-0.23c0.21,1.06-0.34,2.03-0.47,3.02 c0.82,0.25,1.06-0.37,1.41-0.72c1.69-1.66,3.72-2.56,6.07-2.69c2.61-0.15,4.17,1.54,3.91,4.12c-0.4,4-1.38,7.9-2,11.86 c-0.12,0.77-0.54,1.54,0.65,1.84c0.24,0.06,0.25,0.38,0.17,0.64c-0.09,0.27-0.27,0.38-0.55,0.38c-1.14-0.01-2.28,0.09-3.41-0.05 c-1.11-0.13-0.64-1.07-0.55-1.65c0.59-3.42,1.24-6.83,1.87-10.25c0.07-0.38,0.12-0.77,0.14-1.16c0.04-1.04,0.06-2.13-0.97-2.76 c-1.11-0.67-2.26-0.29-3.21,0.36c-2.36,1.62-3.86,3.85-4.44,6.68C63.41,57.35,62.77,60.25,62.15,63.17z"></path> <path class="st27" d="M40.11,63.17c-1.15,0-2.23,0-3.48,0c0.45-2.55,0.88-5.03,1.34-7.5c0.44-2.36,0.94-4.7,1.34-7.06 c0.14-0.83,0.41-1.7-0.47-2.44c-0.47-0.4-0.3-1.04,0.44-1.11c1.36-0.13,2.73-0.17,4.21-0.26c-0.21,1.25-0.4,2.39-0.63,3.72 c0.85-0.8,1.53-1.49,2.26-2.11c1.56-1.32,3.42-1.93,5.45-2c2.39-0.08,3.91,1.51,3.71,3.89c-0.34,4.1-1.37,8.1-2.03,12.15 c-0.11,0.7-0.51,1.46,0.61,1.76c0.24,0.06,0.27,0.36,0.22,0.63c-0.07,0.39-0.34,0.43-0.65,0.43c-1.04,0-2.08,0.02-3.11-0.01 c-1.16-0.03-0.85-0.88-0.75-1.51c0.53-3.13,1.12-6.26,1.64-9.39c0.18-1.06,0.46-2.11,0.29-3.2c-0.27-1.73-1.24-2.42-2.93-1.88 c-2.89,0.93-4.49,3.22-5.27,5.91C41.38,56.4,40.85,59.75,40.11,63.17z"></path> <path class="st27" d="M162.95,54.97c-0.54,3.07,0.59,5.49,2.86,6.15c2.53,0.74,4.72-0.3,6.93-1.6c0.19,1.2-0.23,1.92-1.07,2.47 c-2.76,1.82-5.69,2.66-8.76,0.94c-3.07-1.73-3.94-4.65-3.64-7.93c0.57-6.27,5.9-10.79,11.74-10.03c1.84,0.24,3.28,1.05,3.83,2.95 c0.47,1.63-0.14,3.23-1.81,4.46c-2.62,1.92-5.73,2.22-8.83,2.53C163.81,54.94,163.41,54.95,162.95,54.97z M163.07,52.92 c2.31-0.01,4.44-0.26,6.47-1.12c0.69-0.3,1.33-0.67,1.8-1.25c0.69-0.85,1-1.78,0.46-2.85c-0.5-1-1.34-1.34-2.42-1.33 c-1.71,0.01-3.03,0.79-4.08,2.04C164.24,49.65,163.55,51.09,163.07,52.92z"></path> <path class="st27" d="M144.03,54.99c-0.25,2.03-0.11,3.97,1.54,5.27c2.83,2.21,5.58,0.77,8.3-0.64c0.3,1.06-0.09,1.7-0.86,2.28 c-2.8,2.11-6.4,2.52-9.02,0.99c-2.64-1.54-4.04-4.95-3.46-8.45c1.01-6.1,6.02-10.19,11.65-9.5c2.03,0.25,3.44,1.31,3.87,2.91 c0.47,1.74-0.16,3.35-1.87,4.57c-2.59,1.86-5.65,2.15-8.7,2.47C145.04,54.95,144.6,54.96,144.03,54.99z M144.49,52.8 c2.54,0.29,6.06-0.49,7.59-1.73c0.97-0.79,1.59-1.77,1.13-3.08c-0.46-1.33-1.5-1.68-2.82-1.61 C147.6,46.54,145.07,49.27,144.49,52.8z"></path> <path class="st27" d="M92.59,58.66c0.89-0.32,1.31-0.12,1.61,0.73c0.42,1.2,1.32,2.03,2.6,2.41c1.43,0.42,2.65,0.14,3.63-0.97 c0.91-1.03,0.97-2.55,0.15-3.83c-0.37-0.57-0.85-1.08-1.34-1.56c-0.67-0.65-1.36-1.3-2.11-1.86c-4.09-3.06-2.44-7.52,1.92-8.7 c2.27-0.62,4.45-0.65,6.63,0.2c-0.04,2.62-0.44,3.35-1.78,3.36c-0.83-2.14-1.86-2.69-3.95-2.1c-2.06,0.58-2.55,2.44-0.98,3.91 c1.01,0.94,2.17,1.7,3.21,2.61c2.21,1.94,2.97,4.72,1.96,6.99c-1.06,2.38-4.04,4.01-7.13,3.85c-1.33-0.07-2.63-0.36-3.91-0.78 c-1.02-0.34-1.46-0.84-1.08-1.93C92.29,60.26,92.4,59.48,92.59,58.66z"></path> <path class="st27" d="M138.61,45.01c-0.26,1.4-0.48,2.58-0.71,3.8c-0.31-0.03-0.51-0.03-0.69-0.08c-3.77-0.94-5.39,0.07-6.13,3.9 c-0.67,3.5-1.27,7.01-1.91,10.57c-1.13,0.24-2.24,0.15-3.53,0.06c0.48-2.75,0.93-5.43,1.41-8.11c0.42-2.31,0.87-4.61,1.3-6.91 c0.12-0.65,0.18-1.31-0.43-1.74c-0.48-0.34-0.43-0.69-0.23-1.16c1.5-0.24,3.01-0.41,4.58-0.34c0.2,0.98-0.3,1.89-0.28,3.02 C133.97,46.36,135.56,44.28,138.61,45.01z"></path> <path class="st27" d="M30.12,63.26c-1.32,0-2.5,0-3.68,0c-0.88,0-1.07-0.45-0.92-1.24c0.82-4.37,1.62-8.75,2.42-13.13 c0.16-0.89,0.49-1.78-0.51-2.53c-0.44-0.33-0.27-1.03,0.39-1.05c1.42-0.04,2.83-0.45,4.32-0.24c-0.9,4.85-1.77,9.65-2.68,14.45 c-0.21,1.09-0.79,2.23,0.64,2.98C30.19,62.55,30.12,62.87,30.12,63.26z"></path> <path class="st27" d="M86.19,63.26c-1.09,0-2.08-0.05-3.06,0.01c-1.17,0.08-1.6-0.26-1.35-1.51c0.81-4.13,1.53-8.28,2.26-12.42 c0.19-1.08,0.67-2.2-0.49-3.1c-0.22-0.17-0.03-0.55,0.14-0.9c1.46-0.12,2.96-0.25,4.67-0.39c-0.55,3-1.06,5.86-1.59,8.71 c-0.43,2.31-0.91,4.61-1.33,6.92c-0.12,0.64-0.38,1.35,0.65,1.63C86.48,62.32,86.31,62.79,86.19,63.26z"></path> <path class="st27" d="M33.02,39.71c0.01,1.1-0.94,2.03-2.07,2.02c-1.17,0-2.01-0.85-2.01-2.03c0-1.14,0.91-2.08,2.01-2.06 C32.03,37.65,33.02,38.63,33.02,39.71z"></path> <path class="st27" d="M89.21,39.79c-0.04,1.11-1,1.99-2.14,1.94c-1.13-0.04-2.02-1-1.97-2.11c0.05-1.09,1.06-2.04,2.13-1.98 C88.31,37.69,89.25,38.71,89.21,39.79z"></path> </g> </g> </svg> 