<?xml version="1.0" encoding="UTF-8"?> <svg xmlns="http://www.w3.org/2000/svg" xmlns:xlink="http://www.w3.org/1999/xlink" version="1.0" id="Layer_1" x="0px" y="0px" viewBox="0 0 200 100" style="enable-background:new 0 0 200 100;" xml:space="preserve"> <style type="text/css"> .st0{fill:#AC5366;} .st1{fill:#232174;} .st2{fill:#231F20;} .st3{fill:#28CBD2;} .st4{fill:#242021;} .st5{fill:#EF9BC1;} .st6{fill:#E9B7F0;} .st7{fill:#070707;} .st8{fill:#736357;} .st9{fill:#59555D;} .st10{fill:#0A0707;} .st11{fill:#010101;} .st12{fill:#0A0C0C;} .st13{fill:#57D0F3;} .st14{fill:#FFFFFF;} .st15{fill:#2D70AF;} .st16{fill:#302F2E;} .st17{fill:#08944E;} .st18{fill:#D8176E;} .st19{fill:#080808;} .st20{fill:#E6623C;} .st21{fill:#0B0A0B;} .st22{fill:#0C0F46;} .st23{fill:#9E005D;} .st24{fill:#4A3A2B;} .st25{fill:#AEA49C;} .st26{fill:#4E4644;} .st27{fill:#036434;} .st28{fill:#3F3A35;} .st29{fill:#919B3F;} .st30{fill:#0F0606;} .st31{fill:#282C96;} .st32{fill:#F2863B;} .st33{fill:#70A2D6;} .st34{fill:#7096D6;} .st35{fill:#4A4745;} .st36{fill:none;} .st37{fill:#020202;} .st38{fill:#991C32;} .st39{fill:#F48888;} .st40{fill:#6AAAAA;} .st41{fill:#112263;} .st42{fill:#627F31;} .st43{fill:#02146F;} .st44{fill:url(#XMLID_00000019653769462368079240000002518681659716369550_);} .st45{fill:url(#XMLID_00000067206231792204371720000008368214432629869714_);} .st46{fill-rule:evenodd;clip-rule:evenodd;fill:url(#SVGID_1_);} .st47{fill-rule:evenodd;clip-rule:evenodd;fill:url(#SVGID_00000181805745821977839970000017889197309632548536_);} .st48{fill-rule:evenodd;clip-rule:evenodd;fill:url(#SVGID_00000163766084344511322120000008231567337989483450_);} .st49{fill:url(#SVGID_00000096028713833978101370000015330310350523355013_);} .st50{fill:url(#SVGID_00000087404507454482188860000009910537790468434341_);} .st51{fill:url(#SVGID_00000085934018149495176140000017734612087128297383_);} .st52{fill:url(#SVGID_00000050654197017237733810000016865031299770094987_);} .st53{fill:url(#SVGID_00000160878808155172605340000018057997453233763517_);} .st54{fill:url(#SVGID_00000152246798928899512160000002095979667483150989_);} .st55{fill:url(#SVGID_00000123409954553835513620000009137012784946987919_);} .st56{fill:url(#SVGID_00000178171497381097121840000016923581593931240587_);} .st57{fill:url(#SVGID_00000076603619839871117810000005638672914160959923_);} .st58{fill:url(#SVGID_00000167362060435426079940000004562365635124457876_);} .st59{fill:url(#SVGID_00000161614869507967239600000005685675235000764082_);} .st60{fill:url(#SVGID_00000137840584613887399350000010184007716091505330_);} .st61{fill:url(#SVGID_00000106866988284585512830000003339912130716114061_);} .st62{fill:url(#SVGID_00000103229869674154980250000015884020185764006540_);} .st63{fill:url(#SVGID_00000119840470309998698460000003202142098370372233_);} .st64{fill:url(#SVGID_00000101088201089898846940000015875846663069448104_);} .st65{fill:url(#SVGID_00000018212358591377204590000012929478205253078659_);} .st66{fill:url(#SVGID_00000032613120544271848550000006880580993901410952_);} .st67{fill:url(#SVGID_00000080912315009604191110000000532969800052957356_);} .st68{fill:url(#SVGID_00000183970718893119407650000005333899082603927993_);} .st69{fill:url(#SVGID_00000083783465822664741670000010984368104438486686_);} .st70{fill:url(#SVGID_00000174568389085875903880000000064284233182309051_);} .st71{fill:url(#SVGID_00000175294699017531669000000017117284526584766852_);} .st72{fill:url(#SVGID_00000103969768493838421470000000115164868502984354_);} .st73{fill:url(#SVGID_00000103950808842494107930000012759507420525706380_);} .st74{fill:url(#SVGID_00000060747068740290478270000000336553396535011969_);} .st75{fill:url(#SVGID_00000166642032028086697530000008819278572564817829_);} .st76{fill:url(#SVGID_00000148633626474621805330000006572669289331401616_);} .st77{fill:url(#SVGID_00000061468456657683115930000003109782951759250086_);} .st78{fill:url(#SVGID_00000131367077557620916210000002538579728912183212_);} .st79{fill:url(#SVGID_00000036235610179909579710000017071296945241309860_);} .st80{fill:url(#SVGID_00000105401706683281571430000018099769611931301249_);} .st81{fill:url(#SVGID_00000013900704126375772470000014046082614308658081_);} .st82{fill:url(#SVGID_00000114058506515852705790000008535381653254206627_);} .st83{fill:url(#SVGID_00000062178207321701055050000011369942087024402562_);} .st84{fill:url(#SVGID_00000002366262245204669210000013862910648822990259_);} .st85{fill:url(#SVGID_00000034778053120127251310000008246415098751219335_);} .st86{fill:url(#SVGID_00000106869657679373062660000009451946416850741938_);} .st87{fill:#251A17;} .st88{fill:url(#SVGID_00000083047852144529813380000003163739709348432041_);} .st89{fill:url(#SVGID_00000028311186406999348740000017526181764725434253_);} .st90{fill:url(#SVGID_00000113315223559409924780000018071929396155862175_);} .st91{fill:url(#SVGID_00000101800595430579197870000007162116485196817545_);} .st92{fill:#006750;} .st93{fill:#050505;} .st94{fill:#262223;} .st95{fill:#40A448;} .st96{fill:#3FA9F5;} .st97{fill:#611417;} .st98{fill:#0D0B0E;} .st99{fill:#B51310;} .st100{fill:#040404;} .st101{fill:#141414;} .st102{fill:#171717;} .st103{fill:#212121;} .st104{fill:#0B0B0B;} .st105{fill:#0A0A0A;} .st106{fill:#1B1B1B;} .st107{fill:#CE3C78;} .st108{fill:#874630;} .st109{fill:#0972BA;} .st110{fill:#103554;} </style> <g> <path class="st33" d="M25.05,30.46c1.3,0,2.6,0,3.93,0c0,6.33,0,12.64,0,18.97c3.59,0,7.15,0,10.71,0 c0.04,0.12-0.03,0.19-0.06,0.26c-0.31,0.67-0.65,1.33-0.93,2.02c-0.41,1-1.17,1.38-2.19,1.38c-3.7,0-7.41,0-11.11,0 c-0.12,0-0.23,0.02-0.35,0.02C25.05,45.56,25.05,38.01,25.05,30.46z"></path> <path class="st33" d="M142.99,41.13c2.8,0,5.58,0,8.39,0c0,0.11,0,0.2,0,0.29c0,2.7-0.02,5.4,0.01,8.11c0.01,0.87-0.33,1.52-1,2.03 c-1.14,0.87-2.44,1.37-3.84,1.63c-1.77,0.34-3.55,0.42-5.33,0.05c-2.86-0.6-4.96-2.23-6.28-4.84c-1.14-2.24-1.47-4.64-1.43-7.12 c0.04-2.16,0.45-4.22,1.45-6.14c1.36-2.61,3.5-4.18,6.41-4.75c1.92-0.38,3.77-0.21,5.57,0.53c2.24,0.91,3.56,2.6,4.06,4.95 c0.08,0.36,0.13,0.73,0.2,1.12c-1.23,0-2.43,0-3.65,0c-0.1-0.3-0.19-0.61-0.3-0.91c-0.45-1.2-1.32-1.96-2.56-2.27 c-1.2-0.29-2.42-0.28-3.59,0.11c-1.41,0.47-2.32,1.5-2.93,2.81c-0.67,1.43-0.86,2.96-0.91,4.52c-0.05,1.79,0.16,3.54,0.83,5.21 c1,2.48,2.86,3.63,5.55,3.61c1.01-0.01,2.01-0.11,2.97-0.43c0.21-0.07,0.42-0.17,0.61-0.27c0.46-0.25,0.72-0.57,0.7-1.16 c-0.05-1.16-0.01-2.32-0.01-3.48c0-0.11,0-0.21,0-0.34c-0.14,0-0.27,0-0.39,0c-1.07,0-2.15,0-3.22,0c-0.78,0-1.33-0.54-1.33-1.32 c0-0.62,0-1.25,0-1.87C142.97,41.18,142.98,41.17,142.99,41.13z"></path> <path class="st33" d="M72.79,30.3c0.42-0.1,0.7,0.02,0.98,0.37c3.94,4.8,7.91,9.59,11.86,14.39c0.03,0.04,0.06,0.07,0.13,0.15 c0-4.94,0-9.82,0-14.73c1.17,0,2.3,0,3.46,0c0,7.55,0,15.11,0,22.68c-0.73,0.08-1.36-0.03-1.87-0.66 c-3.58-4.41-7.17-8.81-10.76-13.21c-0.07-0.08-0.14-0.16-0.25-0.29c0,4.76,0,9.45,0,14.16c-1.2,0-2.37,0-3.55,0 C72.79,45.54,72.79,37.93,72.79,30.3z"></path> <path class="st33" d="M98.43,53.16c0-7.55,0-15.06,0-22.59c4.86,0,9.7,0,14.58,0c-0.19,0.55-0.37,1.08-0.54,1.61 c-0.08,0.24-0.15,0.48-0.21,0.73c-0.15,0.59-0.7,1-1.35,1.01c-0.95,0.01-1.9,0-2.84,0c-1.94,0-3.89,0-5.83,0c-0.11,0-0.21,0-0.33,0 c0,2,0,3.97,0,5.98c3.23,0,6.46,0,9.7,0c0,1.1,0,2.17,0,3.27c-3.23,0-6.46,0-9.7,0c0,2.22,0,4.41,0,6.61 c0.1,0.08,0.22,0.04,0.33,0.04c2.79,0,5.57,0,8.36,0c0.28,0,0.57,0,0.84,0.09c0.35,0.11,0.67,0.29,0.82,0.62 c0.4,0.86,0.76,1.74,1.15,2.64C108.38,53.16,103.41,53.16,98.43,53.16z"></path> <path class="st33" d="M159.82,30.57c4.86,0,9.7,0,14.55,0c-0.02,0.26-0.13,0.48-0.21,0.7c-0.18,0.55-0.39,1.1-0.53,1.67 c-0.14,0.58-0.7,0.97-1.35,0.97c-1.16,0.01-2.33,0-3.49,0c-1.73,0-3.46,0-5.19,0c-0.1,0-0.21,0-0.33,0c0,2,0,3.98,0,5.98 c3.24,0,6.47,0,9.71,0c0,1.1,0,2.17,0,3.27c-3.23,0-6.46,0-9.7,0c0,2.23,0,4.43,0,6.65c0.12,0,0.22,0,0.33,0c2.79,0,5.57,0,8.36,0 c0.32,0,0.64,0.01,0.95,0.13c0.32,0.12,0.6,0.31,0.74,0.63c0.38,0.85,0.74,1.71,1.12,2.59c-5.01,0-9.97,0-14.96,0 C159.82,45.63,159.82,38.11,159.82,30.57z"></path> <path class="st33" d="M65.76,53.17c-0.97,0-1.89,0.05-2.8-0.01c-0.86-0.06-1.42-0.6-1.72-1.39c-0.34-0.87-0.65-1.75-0.98-2.62 c-1.26-3.39-2.61-6.75-3.97-10.11c-0.1-0.25-0.17-0.52-0.25-0.78c-0.02-0.08-0.05-0.14-0.15-0.14c-0.1,0-0.13,0.06-0.16,0.14 c-0.85,2.51-1.95,4.92-2.88,7.39c-0.75,2.01-1.52,4.02-2.28,6.03c-0.38,1.02-1.05,1.49-2.13,1.49c-0.79,0-1.58,0-2.43,0 c3.13-7.74,6.24-15.46,9.35-23.18c0.31,0,0.62,0,0.94,0C59.45,37.71,62.6,45.42,65.76,53.17z"></path> <path class="st33" d="M125.17,53.16c-1.22,0-2.41,0-3.62,0c0-7.6,0-15.18,0-22.78c1.21,0,2.41,0,3.62,0 C125.17,37.97,125.17,45.55,125.17,53.16z"></path> </g> <g> <path class="st34" d="M108.3,69.67h-4.23v-7.99h4.06v0.85H105v2.66h2.89v0.84H105v2.8h3.3V69.67z"></path> <path class="st34" d="M114.07,69.67h-4.23v-7.99h4.06v0.85h-3.12v2.66h2.89v0.84h-2.89v2.8h3.3V69.67z"></path> <path class="st34" d="M119.75,69.67h-4.14v-7.99h0.94v7.14h3.21V69.67z"></path> <path class="st34" d="M126.62,69.61c-0.22,0.12-0.5,0.18-0.85,0.18c-1,0-1.5-0.56-1.5-1.67v-3.38h-0.98v-0.78h0.98v-1.39l0.91-0.3 v1.69h1.44v0.78h-1.44v3.21c0,0.38,0.06,0.66,0.19,0.82c0.13,0.16,0.35,0.25,0.65,0.25c0.23,0,0.43-0.06,0.6-0.19V69.61z"></path> <path class="st34" d="M132.58,69.67h-0.91v-3.29c0-1.19-0.44-1.78-1.33-1.78c-0.45,0-0.82,0.17-1.13,0.52 c-0.3,0.34-0.46,0.78-0.46,1.32v3.23h-0.91v-8.44h0.91v3.69h0.02c0.44-0.72,1.06-1.08,1.87-1.08c1.28,0,1.93,0.77,1.93,2.32V69.67z "></path> <path class="st34" d="M138.88,67.04h-4.03c0.01,0.63,0.19,1.13,0.51,1.47c0.33,0.35,0.78,0.52,1.35,0.52 c0.64,0,1.23-0.21,1.77-0.64v0.86c-0.5,0.36-1.16,0.55-1.99,0.55c-0.81,0-1.44-0.26-1.9-0.78c-0.46-0.52-0.69-1.25-0.69-2.19 c0-0.89,0.25-1.61,0.75-2.17c0.5-0.56,1.13-0.84,1.87-0.84s1.32,0.24,1.73,0.72s0.61,1.15,0.61,2.01V67.04z M137.95,66.27 c0-0.53-0.13-0.94-0.38-1.23c-0.25-0.29-0.6-0.44-1.04-0.44c-0.43,0-0.8,0.15-1.1,0.46c-0.3,0.31-0.49,0.71-0.56,1.21H137.95z"></path> <path class="st34" d="M149.48,69.12c-0.8,0.45-1.69,0.68-2.67,0.68c-1.14,0-2.06-0.37-2.77-1.1c-0.7-0.74-1.06-1.71-1.06-2.92 c0-1.24,0.39-2.25,1.17-3.04c0.78-0.79,1.77-1.19,2.97-1.19c0.87,0,1.6,0.14,2.19,0.42v1.04c-0.65-0.41-1.41-0.61-2.3-0.61 c-0.89,0-1.63,0.31-2.2,0.92c-0.57,0.62-0.86,1.42-0.86,2.4c0,1.01,0.27,1.8,0.8,2.38c0.53,0.58,1.25,0.87,2.16,0.87 c0.62,0,1.16-0.12,1.62-0.37v-2.24h-1.75V65.5h2.68V69.12z"></path> <path class="st34" d="M155.48,69.67h-4.14v-7.99h0.94v7.14h3.21V69.67z"></path> <path class="st34" d="M159.93,69.8c-1.13,0-2.04-0.37-2.72-1.12c-0.68-0.75-1.02-1.72-1.02-2.91c0-1.28,0.35-2.31,1.04-3.07 c0.69-0.77,1.64-1.15,2.84-1.15c1.1,0,1.99,0.37,2.67,1.11c0.67,0.74,1.01,1.71,1.01,2.91c0,1.3-0.35,2.33-1.04,3.09 C162.01,69.42,161.09,69.8,159.93,69.8z M160,62.39c-0.84,0-1.52,0.3-2.04,0.91c-0.52,0.61-0.79,1.4-0.79,2.38 c0,0.98,0.26,1.78,0.77,2.38c0.51,0.6,1.18,0.9,2,0.9c0.88,0,1.57-0.29,2.07-0.86c0.5-0.57,0.76-1.37,0.76-2.4 c0-1.05-0.25-1.87-0.74-2.45C161.53,62.68,160.86,62.39,160,62.39z"></path> <path class="st34" d="M174.78,61.68l-2.26,7.99h-1.1l-1.64-5.84c-0.07-0.25-0.11-0.52-0.13-0.81h-0.02 c-0.02,0.27-0.07,0.54-0.14,0.8l-1.65,5.85h-1.09l-2.34-7.99h1.03l1.7,6.13c0.07,0.26,0.12,0.52,0.13,0.8h0.03 c0.02-0.2,0.08-0.46,0.17-0.8l1.77-6.13h0.9l1.69,6.17c0.06,0.21,0.1,0.46,0.13,0.75h0.02c0.01-0.19,0.06-0.45,0.15-0.77l1.63-6.15 H174.78z"></path> <g> <polygon class="st34" points="99.43,62.53 99.43,65.29 102.31,65.29 102.31,66.13 99.43,66.13 99.43,69.67 25.01,69.67 25.01,69.2 98.49,69.2 98.49,61.68 102.55,61.68 102.55,62.53 "></polygon> </g> </g> </svg> 