<?xml version="1.0" encoding="UTF-8"?> <svg xmlns="http://www.w3.org/2000/svg" xmlns:xlink="http://www.w3.org/1999/xlink" version="1.0" id="Layer_1" x="0px" y="0px" viewBox="0 0 200 100" style="enable-background:new 0 0 200 100;" xml:space="preserve"> <style type="text/css"> .st0{fill:#AC5366;} .st1{fill:#232174;} .st2{fill:#231F20;} .st3{fill:#28CBD2;} .st4{fill:#242021;} .st5{fill:#EF9BC1;} .st6{fill:#E9B7F0;} .st7{fill:#070707;} .st8{fill:#736357;} .st9{fill:#59555D;} .st10{fill:#0A0707;} .st11{fill:#010101;} .st12{fill:#0A0C0C;} .st13{fill:#57D0F3;} .st14{fill:#FFFFFF;} .st15{fill:#2D70AF;} .st16{fill:#302F2E;} .st17{fill:#08944E;} .st18{fill:#D8176E;} .st19{fill:#080808;} .st20{fill:#E6623C;} .st21{fill:#0B0A0B;} .st22{fill:#0C0F46;} .st23{fill:#9E005D;} .st24{fill:#4A3A2B;} .st25{fill:#AEA49C;} .st26{fill:#4E4644;} .st27{fill:#036434;} .st28{fill:#3F3A35;} .st29{fill:#919B3F;} .st30{fill:#0F0606;} .st31{fill:#282C96;} .st32{fill:#F2863B;} .st33{fill:#70A2D6;} .st34{fill:#7096D6;} .st35{fill:#4A4745;} .st36{fill:none;} .st37{fill:#020202;} .st38{fill:#991C32;} .st39{fill:#F48888;} .st40{fill:#6AAAAA;} .st41{fill:#112263;} .st42{fill:#627F31;} .st43{fill:#02146F;} .st44{fill:url(#XMLID_00000010300028185076678980000004703966572820601010_);} .st45{fill:url(#XMLID_00000176015229542688568580000010511372605984528026_);} .st46{fill-rule:evenodd;clip-rule:evenodd;fill:url(#SVGID_1_);} .st47{fill-rule:evenodd;clip-rule:evenodd;fill:url(#SVGID_00000038392343558247191530000004866107050608803464_);} .st48{fill-rule:evenodd;clip-rule:evenodd;fill:url(#SVGID_00000047037893992685107380000011634379017815460799_);} .st49{fill:url(#SVGID_00000163764835439957022030000013588083693927939712_);} .st50{fill:url(#SVGID_00000080206490911178368440000015194619778620943779_);} .st51{fill:url(#SVGID_00000129924500668320033130000015069441970913216901_);} .st52{fill:url(#SVGID_00000100367668934398902900000011858022840796706697_);} .st53{fill:url(#SVGID_00000121970625762559389360000001260127044023289230_);} .st54{fill:url(#SVGID_00000011020084181328064670000016072383297305909395_);} .st55{fill:url(#SVGID_00000023978532927587727470000016903144842391935898_);} .st56{fill:url(#SVGID_00000089539785000537350470000008223745700126516883_);} .st57{fill:url(#SVGID_00000016065043462600974690000003172487579624383875_);} .st58{fill:url(#SVGID_00000074427451643736433100000010771630350508755096_);} .st59{fill:url(#SVGID_00000136373304054357082940000008655754393832111038_);} .st60{fill:url(#SVGID_00000097476852599385306240000004965701995502914944_);} .st61{fill:url(#SVGID_00000146492166661562103750000015359467488870603396_);} .st62{fill:url(#SVGID_00000078027481600279096000000012144391975005333903_);} .st63{fill:url(#SVGID_00000010292380834713486900000013586539881323888019_);} .st64{fill:url(#SVGID_00000113326822780310952330000001327990064330305184_);} .st65{fill:url(#SVGID_00000100341920769131965570000000338638690934568851_);} .st66{fill:url(#SVGID_00000162336805319153096020000000440377518793638278_);} .st67{fill:url(#SVGID_00000165229179775046528900000016304332756231468166_);} .st68{fill:url(#SVGID_00000164492365713257165410000007952518420143118466_);} .st69{fill:url(#SVGID_00000144310806829807548140000012461680864628959624_);} .st70{fill:url(#SVGID_00000038405211110185006620000011436803256751505062_);} .st71{fill:url(#SVGID_00000094598709640388363270000009752864384831635876_);} .st72{fill:url(#SVGID_00000003795692193543244590000012755320983055497884_);} .st73{fill:url(#SVGID_00000152266648920229924880000001636653589783055275_);} .st74{fill:url(#SVGID_00000039135111498999013090000011842132385553372338_);} .st75{fill:url(#SVGID_00000145762790154274916030000011896596999126545803_);} .st76{fill:url(#SVGID_00000062159661301590203150000017062692267787312045_);} .st77{fill:url(#SVGID_00000137810303522595056240000009636492311427543684_);} .st78{fill:url(#SVGID_00000014614191969789570160000014520701125805596579_);} .st79{fill:url(#SVGID_00000140710689855796798290000012869653057943344526_);} .st80{fill:url(#SVGID_00000124158190930380720550000005149592968426284724_);} .st81{fill:url(#SVGID_00000025406586240571246580000008114099622979040693_);} .st82{fill:url(#SVGID_00000163789164214153645760000016176458681441922985_);} .st83{fill:url(#SVGID_00000065032460841150100690000007173303029973611149_);} .st84{fill:url(#SVGID_00000154424364385018701130000008683542843369564811_);} .st85{fill:url(#SVGID_00000018942721856323386700000016600075227994866367_);} .st86{fill:url(#SVGID_00000159431464371971405750000009956846754264147384_);} .st87{fill:#251A17;} .st88{fill:url(#SVGID_00000022532218126513998910000005815019323554253209_);} .st89{fill:url(#SVGID_00000181082649276511536340000008813744935939593659_);} .st90{fill:url(#SVGID_00000033348542955205493840000001079895827101242550_);} .st91{fill:url(#SVGID_00000007408980962035661900000009708697930625541797_);} .st92{fill:#006750;} .st93{fill:#050505;} .st94{fill:#262223;} .st95{fill:#40A448;} .st96{fill:#3FA9F5;} .st97{fill:#611417;} .st98{fill:#0D0B0E;} .st99{fill:#B51310;} .st100{fill:#040404;} .st101{fill:#141414;} .st102{fill:#171717;} .st103{fill:#212121;} .st104{fill:#0B0B0B;} .st105{fill:#0A0A0A;} .st106{fill:#1B1B1B;} .st107{fill:#CE3C78;} .st108{fill:#874630;} .st109{fill:#0972BA;} .st110{fill:#103554;} </style> <g> <path class="st37" d="M99.69,70.3c-0.1-0.08-0.22-0.13-0.35-0.17c-0.3-0.09-0.62-0.1-0.91-0.21c-0.72-0.27-1.41-0.61-2.06-1.03 c-0.03-0.02-0.05-0.05-0.08-0.08c0.2-0.46,0.5-0.85,0.77-1.29c0.19,0.14,0.38,0.28,0.56,0.41c0.66,0.49,1.37,0.9,2.17,1.1 c0.73,0.18,1.46,0.19,2.21-0.02c0.64-0.18,1.11-0.54,1.49-1.06c0.06-0.08,0.1-0.17,0.14-0.25c0.15-0.26,0.23-0.56,0.33-0.85 c0.13-0.37,0.05-0.73-0.07-1.11c-0.18-0.56-0.5-1-0.9-1.41c-0.26-0.27-0.57-0.45-0.86-0.66c-0.51-0.37-1.04-0.68-1.57-1.01 c-0.73-0.46-1.5-0.88-2.21-1.37c-0.21-0.15-0.41-0.31-0.61-0.47c-0.15-0.12-0.28-0.26-0.43-0.39c-0.27-0.23-0.52-0.49-0.71-0.79 c-0.24-0.38-0.4-0.78-0.43-1.23c-0.03-0.48-0.05-0.96,0.02-1.43c0.06-0.41,0.22-0.81,0.46-1.17c0.17-0.26,0.34-0.52,0.56-0.75 c0.6-0.64,1.34-1.04,2.18-1.29c1.34-0.39,2.69-0.5,4.07-0.28c0.8,0.13,1.58,0.35,2.34,0.71c-0.08,0.46-0.33,0.85-0.47,1.27 c-0.09,0.03-0.15,0.01-0.22-0.04c-0.44-0.34-0.95-0.55-1.47-0.71c-0.23-0.07-0.45-0.14-0.69-0.17c-0.63-0.1-1.23-0.04-1.83,0.15 c-0.38,0.12-0.74,0.27-1.07,0.48c-0.47,0.3-0.73,0.76-0.87,1.28c-0.13,0.51-0.14,1.03,0.15,1.51c0.16,0.27,0.37,0.51,0.59,0.73 c0.4,0.39,0.84,0.72,1.31,1.02c0.77,0.5,1.57,0.95,2.36,1.42c0.63,0.38,1.26,0.76,1.82,1.23c0.62,0.51,1.02,1.19,1.29,1.95 c0.35,1.01,0.23,1.99-0.15,2.96c-0.34,0.88-0.97,1.51-1.72,2.06c-0.46,0.34-1,0.52-1.54,0.67c-0.21,0.06-0.43,0.11-0.64,0.17 c-0.06,0.02-0.15,0-0.17,0.09C101.53,70.3,100.61,70.3,99.69,70.3z"></path> <path class="st37" d="M80.6,70.3c-0.05-0.01-0.06-0.1-0.12-0.09c-0.22,0.01-0.42-0.12-0.64-0.13c-0.15,0-0.3-0.08-0.43-0.12 c-0.78-0.28-1.54-0.61-2.22-1.1c-0.02-0.01-0.03-0.04-0.05-0.06c0.26-0.41,0.5-0.83,0.8-1.24c0.29,0.2,0.58,0.41,0.86,0.61 c1.03,0.73,2.16,1.11,3.43,1c0.56-0.05,1.07-0.27,1.53-0.58c0.54-0.36,0.8-0.88,0.97-1.48c0.09-0.32,0.17-0.62,0.12-0.96 c-0.08-0.59-0.37-1.09-0.75-1.54c-0.31-0.37-0.72-0.64-1.11-0.92c-0.27-0.19-0.55-0.36-0.82-0.55c-0.62-0.43-1.3-0.76-1.92-1.18 c-0.26-0.17-0.54-0.3-0.76-0.52c-0.03-0.03-0.07-0.06-0.11-0.07c-0.27-0.09-0.48-0.29-0.69-0.46c-0.29-0.24-0.6-0.46-0.85-0.75 c-0.32-0.38-0.57-0.8-0.74-1.26c-0.02-0.06,0-0.12-0.01-0.19c-0.1-0.63-0.09-1.26,0-1.89c0.06-0.4,0.22-0.78,0.45-1.1 c0.36-0.51,0.79-0.96,1.32-1.31c0.45-0.3,0.94-0.5,1.46-0.64c0.84-0.23,1.69-0.37,2.55-0.37c1.3,0,2.54,0.28,3.73,0.79 c0.02,0.01,0.04,0.03,0.07,0.05c-0.14,0.43-0.36,0.83-0.47,1.27c-0.13,0.02-0.21-0.05-0.29-0.11c-0.46-0.3-0.96-0.5-1.48-0.67 c-0.33-0.11-0.65-0.17-0.99-0.21c-0.19-0.07-0.38-0.06-0.56,0c-0.38,0.03-0.74,0.16-1.11,0.26c-0.56,0.15-0.97,0.47-1.34,0.87 c-0.25,0.28-0.4,0.61-0.45,0.98c-0.04,0.34-0.04,0.69,0.04,1.02c0.06,0.26,0.22,0.46,0.39,0.66c0.53,0.63,1.18,1.12,1.87,1.56 c1.07,0.68,2.2,1.26,3.25,1.98c0.41,0.28,0.81,0.55,1.14,0.93c0.49,0.56,0.81,1.21,0.99,1.93c0.28,1.15,0.03,2.21-0.57,3.21 c-0.39,0.64-0.94,1.1-1.54,1.51c-0.33,0.23-0.69,0.35-1.04,0.51c-0.24,0.11-0.52,0.13-0.78,0.2c-0.14,0.04-0.29,0.05-0.4,0.15 C82.41,70.3,81.5,70.3,80.6,70.3z"></path> <path class="st38" d="M150.19,35.73c-0.04-1.08,0.08-2.15,0.16-3.22c0.05-0.68,0.17-1.34,0.28-2.01c0.07-0.41,0.15-0.82,0.26-1.23 c0.14-0.48,0.31-0.95,0.49-1.41c0.13-0.32,0.32-0.61,0.43-0.93c0.04-0.11,0.11-0.2,0.19-0.29c0.29-0.32,0.59-0.64,0.96-0.88 c0.1-0.06,0.21-0.08,0.33-0.08c0.17,0,0.35,0.02,0.51,0c0.38-0.05,0.65,0.13,0.92,0.36c0.37,0.34,0.66,0.73,0.89,1.18 c0.53,1.02,0.84,2.1,0.98,3.24c0.08,0.65,0.09,1.3,0.18,1.94c0.05,0.38,0.03,0.76-0.03,1.13c-0.07,0.48-0.05,0.97-0.1,1.46 c-0.07,0.72-0.17,1.43-0.27,2.15c-0.01,0.05-0.04,0.1,0.02,0.16c0.28-0.35,0.63-0.63,0.96-0.93c0.4-0.35,0.81-0.69,1.23-1.01 c0.57-0.43,1.16-0.83,1.77-1.19c0.21-0.12,0.42-0.24,0.63-0.36c0.55-0.3,1.1-0.61,1.68-0.86c0.74-0.31,1.5-0.54,2.29-0.71 c0.51-0.11,1.02-0.14,1.53-0.11c0.35,0.02,0.69,0.1,0.97,0.33c0.15,0.12,0.25,0.26,0.23,0.46c0,0.04,0,0.07,0,0.11 c0.08,0.62-0.16,1.15-0.44,1.68c-0.51,0.98-1.2,1.83-1.92,2.65c-0.36,0.41-0.71,0.82-1.09,1.2c-0.57,0.58-1.2,1.08-1.79,1.63 c-0.36,0.34-0.75,0.65-1.14,0.96c-0.35,0.27-0.7,0.53-1.06,0.79c-0.45,0.31-0.89,0.62-1.36,0.9c-0.49,0.3-0.98,0.59-1.48,0.88 c-0.61,0.35-1.23,0.7-1.87,1.01c-0.64,0.31-1.28,0.61-1.95,0.84c-0.08,0.03-0.16,0.08-0.23,0.12c0.03,0.08,0.1,0.11,0.16,0.15 c0.92,0.6,1.76,1.3,2.59,2.02c0.64,0.55,1.21,1.16,1.74,1.81c0.52,0.62,1.02,1.27,1.46,1.96c0.86,1.36,1.48,2.81,1.85,4.37 c0.1,0.44,0.18,0.88,0.24,1.33c0.07,0.5-0.04,0.97-0.23,1.42c-0.15,0.36-0.46,0.55-0.84,0.58c-0.55,0.04-1.07-0.07-1.54-0.35 c-0.57-0.33-1.08-0.75-1.59-1.18c-0.74-0.64-1.36-1.38-1.95-2.16c-0.27-0.36-0.52-0.72-0.74-1.11c-0.36-0.62-0.68-1.27-0.94-1.95 c-0.16-0.42-0.29-0.85-0.44-1.27c-0.05-0.13-0.04-0.26-0.05-0.39c-0.02-0.2,0.08-0.32,0.3-0.37c0.27-0.06,0.39-0.03,0.51,0.17 c0.1,0.17,0.15,0.36,0.2,0.55c0.24,0.88,0.63,1.7,1.07,2.5c0.68,1.24,1.56,2.32,2.6,3.27c0.46,0.42,0.94,0.81,1.49,1.11 c0.19,0.11,0.4,0.19,0.62,0.24c0.34,0.08,0.6-0.12,0.62-0.47c0.03-0.44,0-0.89-0.11-1.32c-0.21-0.78-0.39-1.57-0.73-2.32 c-0.21-0.47-0.44-0.94-0.69-1.39c-0.18-0.32-0.37-0.65-0.57-0.96c-0.38-0.57-0.8-1.12-1.25-1.65c-0.44-0.51-0.92-0.99-1.4-1.47 c-0.27-0.26-0.54-0.53-0.83-0.76c-0.38-0.3-0.74-0.62-1.14-0.89c-0.46-0.32-0.91-0.65-1.39-0.96c-1.33,0.58-2.71,1.03-4.12,1.38 c-1.02,0.26-2.06,0.45-3.11,0.58c-1.09,0.13-2.19,0.22-3.29,0.24c-0.52,0.01-1.05-0.02-1.57-0.08c-0.48-0.05-0.96-0.05-1.43-0.11 c-0.55-0.07-1.09-0.16-1.63-0.25c-0.33-0.05-0.65-0.13-0.97-0.2c-0.59-0.13-1.16-0.31-1.73-0.51c-0.59-0.2-1.15-0.49-1.71-0.77 c-0.39-0.2-0.7-0.49-0.94-0.85c-0.14-0.21-0.13-0.46-0.14-0.7c-0.01-0.39,0.19-0.67,0.45-0.93c0.4-0.39,0.89-0.63,1.41-0.82 c0.76-0.28,1.54-0.47,2.34-0.6c0.45-0.07,0.9-0.15,1.35-0.22c0.06,0.01,0.12,0.02,0.17-0.04c0,0,0,0,0,0c0.1-0.01,0.2,0,0.3-0.02 c0.9-0.15,1.81-0.17,2.72-0.25c0.69-0.06,1.39,0.01,2.08,0.07c0.25,0.02,0.51,0.02,0.76,0.05c0.68,0.09,1.36,0.18,2.03,0.31 c1.13,0.23,2.24,0.55,3.33,0.94c1.07,0.39,2.09,0.89,3.11,1.4c0.09,0.05,0.18,0.1,0.31,0.13c-0.03-0.09-0.04-0.15-0.06-0.2 c-0.46-1.19-0.82-2.4-1.11-3.64c-0.16-0.72-0.32-1.44-0.41-2.18c-0.06-0.49-0.15-0.98-0.19-1.47c-0.03-0.39-0.11-0.77-0.05-1.16 C150.34,36.09,150.31,35.91,150.19,35.73z M150.58,45.97c0.29-0.04,0.56-0.13,0.83-0.34c-0.41-0.2-0.76-0.39-1.13-0.56 c-1.5-0.7-3.05-1.26-4.66-1.63c-1.29-0.29-2.6-0.47-3.94-0.47c-0.38,0-0.76,0.01-1.14,0c-0.48-0.01-0.96,0.02-1.43,0.08 c-0.25,0.03-0.51,0.01-0.75,0.1c-0.05,0-0.11,0-0.16,0c-1.14,0.13-2.27,0.31-3.38,0.62c-0.7,0.19-1.37,0.46-1.95,0.92 c-0.25,0.19-0.26,0.34-0.05,0.59c0.18,0.22,0.4,0.39,0.65,0.52c0.7,0.36,1.42,0.66,2.18,0.88c1.86,0.54,3.75,0.81,5.69,0.85 c1.4,0.03,2.8-0.08,4.19-0.27c1.26-0.17,2.5-0.45,3.72-0.83C149.7,46.29,150.15,46.17,150.58,45.97z"></path> <path class="st37" d="M53.35,70.17c-0.88,0-1.75,0-2.63,0c-0.1-0.31-0.13-0.64-0.16-0.97c-0.16-1.43-0.32-2.87-0.48-4.31 c-0.15-1.35-0.3-2.71-0.45-4.06c-0.16-1.4-0.32-2.8-0.48-4.22c-0.11,0.06-0.13,0.15-0.17,0.24c-0.23,0.5-0.4,1.02-0.6,1.54 c-1.48,3.84-2.96,7.67-4.44,11.51c-0.04,0.09-0.06,0.19-0.13,0.28c-0.92,0-1.85,0-2.79,0c-1.83-4.74-3.66-9.48-5.5-14.22 c-0.02,0-0.04,0.01-0.05,0.01c-0.55,4.73-1.11,9.46-1.66,14.21c-0.51,0-1,0-1.51,0c-0.02-0.32-0.05-0.64,0.01-0.94 c0.17-0.92,0.24-1.86,0.35-2.79c0.12-1,0.24-2.01,0.35-3.01c0.12-1.02,0.24-2.04,0.36-3.07c0.12-1,0.23-2.01,0.35-3.01 c0.12-1.05,0.24-2.1,0.35-3.15c0.02-0.19,0.04-0.38,0.06-0.56c0.21-0.06,2.36-0.08,3.33-0.03c1.85,4.78,3.7,9.57,5.57,14.4 c1.85-4.82,3.68-9.59,5.51-14.37c0.27-0.04,2.58-0.06,2.94-0.02C52.1,59.12,52.73,64.64,53.35,70.17z"></path> <path class="st37" d="M126.74,62.5c-2.68,0-5.33,0-8.01,0c0,2.56,0,5.11,0,7.67c-0.89,0-1.74,0-2.62,0c0-5.52,0-11.03,0-16.56 c0.86,0,1.71,0,2.61,0c0.01,2.45,0,4.9,0,7.36c2.66,0,5.31,0,7.98,0c0.03-2.45-0.01-4.89,0.03-7.36c0.87-0.02,1.72-0.02,2.6-0.01 c0,5.52,0,11.03,0,16.55c-0.21,0.04-2.3,0.05-2.61,0C126.72,67.62,126.7,65.07,126.74,62.5z"></path> <path class="st37" d="M146.14,53.61c1.77,5.53,3.63,11.02,5.41,16.54c-0.3,0.05-2.01,0.07-2.77,0.04c-0.85-2.4-1.59-4.85-2.41-7.27 c-0.82-2.42-1.56-4.86-2.4-7.29c-0.1,0.17-0.15,0.34-0.2,0.5c-0.85,2.61-1.69,5.23-2.55,7.84c-0.65,1.97-1.24,3.96-1.94,5.91 c-0.04,0.1-0.07,0.2-0.11,0.32c-0.52,0-1.03,0.01-1.56-0.02c0.06-0.36,0.21-0.67,0.31-1c0.13-0.44,0.3-0.88,0.42-1.32 c0.14-0.52,0.34-1.03,0.51-1.55c0.18-0.56,0.39-1.11,0.56-1.67c0.26-0.88,0.55-1.76,0.84-2.63c0.15-0.45,0.29-0.9,0.43-1.36 c0.23-0.73,0.45-1.46,0.72-2.18c0.16-0.43,0.28-0.88,0.4-1.33c0.16-0.57,0.36-1.13,0.56-1.68c0.21-0.55,0.38-1.12,0.51-1.7 c0.02-0.1,0.08-0.14,0.16-0.16c0.04-0.01,0.09,0,0.14,0c0.94,0,1.88,0,2.82,0C146.03,53.6,146.07,53.6,146.14,53.61z"></path> <path class="st39" d="M150.19,35.73c0.12,0.18,0.16,0.36,0.12,0.58c-0.06,0.38,0.02,0.77,0.05,1.16c0.04,0.49,0.13,0.98,0.19,1.47 c0.09,0.73,0.24,1.46,0.41,2.18c0.28,1.24,0.65,2.46,1.11,3.64c0.02,0.06,0.04,0.12,0.06,0.2c-0.13-0.02-0.21-0.08-0.31-0.13 c-1.02-0.51-2.04-1.01-3.11-1.4c-1.09-0.4-2.19-0.72-3.33-0.94c-0.67-0.13-1.35-0.22-2.03-0.31c-0.25-0.03-0.5-0.03-0.76-0.05 c-0.69-0.06-1.39-0.13-2.08-0.07c-0.91,0.08-1.82,0.1-2.72,0.25c-0.1,0.02-0.2,0.01-0.3,0.02c-0.16-0.32-0.18-0.67-0.17-1.02 c0-0.07,0.03-0.12,0.06-0.18c0.24-0.54,0.67-0.87,1.23-1.03c0.73-0.21,1.47-0.21,2.22-0.12c0.93,0.11,1.84,0.31,2.73,0.57 c0.94,0.27,1.86,0.59,2.77,0.96c0.24,0.1,0.48,0.19,0.72,0.29c0.07,0.03,0.13,0.05,0.22,0.01c-0.05-0.19-0.18-0.33-0.28-0.48 c-0.35-0.48-0.67-0.98-0.97-1.48c-0.18-0.31-0.34-0.63-0.47-0.96c-0.13-0.31-0.27-0.62-0.41-0.93c-0.27-0.65-0.52-1.3-0.66-2 c-0.16-0.83-0.32-1.66-0.28-2.52c0.01-0.32,0.02-0.65,0.11-0.96c0.18-0.58,0.49-0.86,1.06-0.89c0.43-0.03,0.82,0.11,1.18,0.31 c0.53,0.3,0.99,0.68,1.45,1.07c0.81,0.68,1.37,1.54,1.93,2.41C150.03,35.51,150.11,35.62,150.19,35.73z"></path> <path class="st37" d="M66.69,70.17c-0.87,0-1.73,0-2.58,0c-0.06-0.19-0.08-16.01-0.02-16.53c0.23-0.05,2.25-0.06,2.6-0.01 C66.69,59.13,66.69,64.63,66.69,70.17z"></path> <path class="st40" d="M82.87,54.52c0.19-0.06,0.38-0.07,0.56,0C83.24,54.53,83.06,54.55,82.87,54.52z"></path> <path class="st39" d="M137.5,42.35c-0.05,0.06-0.11,0.05-0.17,0.04C137.38,42.34,137.44,42.34,137.5,42.35z"></path> <path class="st39" d="M150.58,45.97c-0.43-0.07-0.86-0.07-1.29-0.02c-0.12,0.02-0.25,0.01-0.38,0.01 c-2.62-0.06-5.19-0.45-7.66-1.35c-0.98-0.35-1.91-0.8-2.78-1.38c-0.04-0.02-0.07-0.06-0.1-0.09c0.24-0.09,0.5-0.07,0.75-0.1 c0.47-0.06,0.95-0.09,1.43-0.08c0.38,0.01,0.76,0,1.14,0c1.33-0.01,2.64,0.17,3.94,0.47c1.62,0.36,3.16,0.93,4.66,1.63 c0.37,0.17,0.72,0.36,1.13,0.56C151.14,45.84,150.87,45.94,150.58,45.97z"></path> </g> </svg> 