<?xml version="1.0" encoding="UTF-8"?> <svg xmlns="http://www.w3.org/2000/svg" xmlns:xlink="http://www.w3.org/1999/xlink" version="1.0" id="Layer_1" x="0px" y="0px" viewBox="0 0 200 100" style="enable-background:new 0 0 200 100;" xml:space="preserve"> <style type="text/css"> .st0{fill:#AC5366;} .st1{fill:#232174;} .st2{fill:#231F20;} .st3{fill:#28CBD2;} .st4{fill:#242021;} .st5{fill:#EF9BC1;} .st6{fill:#E9B7F0;} .st7{fill:#070707;} .st8{fill:#736357;} .st9{fill:#59555D;} .st10{fill:#0A0707;} .st11{fill:#010101;} .st12{fill:#0A0C0C;} .st13{fill:#57D0F3;} .st14{fill:#FFFFFF;} .st15{fill:#2D70AF;} .st16{fill:#302F2E;} .st17{fill:#08944E;} .st18{fill:#D8176E;} .st19{fill:#080808;} .st20{fill:#E6623C;} .st21{fill:#0B0A0B;} .st22{fill:#0C0F46;} .st23{fill:#9E005D;} .st24{fill:#4A3A2B;} .st25{fill:#AEA49C;} .st26{fill:#4E4644;} .st27{fill:#036434;} .st28{fill:#3F3A35;} .st29{fill:#919B3F;} .st30{fill:#0F0606;} .st31{fill:#282C96;} .st32{fill:#F2863B;} .st33{fill:#70A2D6;} .st34{fill:#7096D6;} .st35{fill:#4A4745;} .st36{fill:none;} .st37{fill:#020202;} .st38{fill:#991C32;} .st39{fill:#F48888;} .st40{fill:#6AAAAA;} .st41{fill:#112263;} .st42{fill:#627F31;} .st43{fill:#02146F;} .st44{fill:url(#XMLID_00000153706701429361003680000010144082271009748640_);} .st45{fill:url(#XMLID_00000027568217487251272650000003650416846206330785_);} .st46{fill-rule:evenodd;clip-rule:evenodd;fill:url(#SVGID_1_);} .st47{fill-rule:evenodd;clip-rule:evenodd;fill:url(#SVGID_00000109731106135767944290000004777497525032854937_);} .st48{fill-rule:evenodd;clip-rule:evenodd;fill:url(#SVGID_00000083767397093327214920000005518586033270242221_);} .st49{fill:url(#SVGID_00000174568507123457054130000001308082587092282503_);} .st50{fill:url(#SVGID_00000031916746656727506030000017544520677995189657_);} .st51{fill:url(#SVGID_00000098198258405668804160000005591215710186940606_);} .st52{fill:url(#SVGID_00000150086493697603003780000012438442289494767237_);} .st53{fill:url(#SVGID_00000011723904268599775640000002352154281517256855_);} .st54{fill:url(#SVGID_00000038393551221739412700000005802806383618428557_);} .st55{fill:url(#SVGID_00000162313707782511209880000009036856100991744163_);} .st56{fill:url(#SVGID_00000007392043686624995730000000788682922829251978_);} .st57{fill:url(#SVGID_00000120530598960479586590000002067922801891687074_);} .st58{fill:url(#SVGID_00000132059523584962164570000007476298704311902883_);} .st59{fill:url(#SVGID_00000010998391134807103290000010865748593238973573_);} .st60{fill:url(#SVGID_00000175292626478093404020000000004229222003961251_);} .st61{fill:url(#SVGID_00000003096291780385707690000006597624396888827294_);} .st62{fill:url(#SVGID_00000155121203634096290450000012004004410247345291_);} .st63{fill:url(#SVGID_00000055706578602439393390000000503384744960685738_);} .st64{fill:url(#SVGID_00000101798763876545944700000004117532757784536722_);} .st65{fill:url(#SVGID_00000065039101413661859590000005791359115960235419_);} .st66{fill:url(#SVGID_00000096038432173561934870000001859707482608791993_);} .st67{fill:url(#SVGID_00000117637691451870373030000005854604754522252930_);} .st68{fill:url(#SVGID_00000070815075183889868750000006471790148287748232_);} .st69{fill:url(#SVGID_00000147905667477304619760000009466034871727703435_);} .st70{fill:url(#SVGID_00000078010646776853679810000017036665365307454105_);} .st71{fill:url(#SVGID_00000003063839383604951850000008110975723020901819_);} .st72{fill:url(#SVGID_00000162318245039400566300000008277590644113263260_);} .st73{fill:url(#SVGID_00000145745521868040464360000010240639819977343622_);} .st74{fill:url(#SVGID_00000026881673571472823710000013434541516982334142_);} .st75{fill:url(#SVGID_00000027564906943196093500000002076286073095770043_);} .st76{fill:url(#SVGID_00000156580496255784502930000004235897408435188651_);} .st77{fill:url(#SVGID_00000110471823891779436150000016766544883155932085_);} .st78{fill:url(#SVGID_00000036211287668210499740000008896527756399218875_);} .st79{fill:url(#SVGID_00000139293991525793896700000004905257051158452901_);} .st80{fill:url(#SVGID_00000076603322102083605040000014974879853359591845_);} .st81{fill:url(#SVGID_00000063632512521243373100000006321599797357593754_);} .st82{fill:url(#SVGID_00000124849792355452736890000006696763658817769403_);} .st83{fill:url(#SVGID_00000049219140317239588320000001856696401056541623_);} .st84{fill:url(#SVGID_00000024702107564689112210000004846326329244453286_);} .st85{fill:url(#SVGID_00000108991795774339982250000009229342176276866750_);} .st86{fill:url(#SVGID_00000088090717468354549000000002992910095283421083_);} .st87{fill:#251A17;} .st88{fill:url(#SVGID_00000044157443278301591800000003772203029471061688_);} .st89{fill:url(#SVGID_00000040553431338058700490000003276377010843036560_);} .st90{fill:url(#SVGID_00000120556496368119941930000008983632794608006819_);} .st91{fill:url(#SVGID_00000078033832458566485690000001396862899629522868_);} .st92{fill:#006750;} .st93{fill:#050505;} .st94{fill:#262223;} .st95{fill:#40A448;} .st96{fill:#3FA9F5;} .st97{fill:#611417;} .st98{fill:#0D0B0E;} .st99{fill:#B51310;} .st100{fill:#040404;} .st101{fill:#141414;} .st102{fill:#171717;} .st103{fill:#212121;} .st104{fill:#0B0B0B;} .st105{fill:#0A0A0A;} .st106{fill:#1B1B1B;} .st107{fill:#CE3C78;} .st108{fill:#874630;} .st109{fill:#0972BA;} .st110{fill:#103554;} </style> <g> <path class="st42" d="M93.19,39.91c0.11-0.27,0.28-0.52,0.22-0.84c-0.05-0.31-0.15-0.44-0.47-0.24c-0.26,0.17-0.51,0.42-0.92,0.31 c0.18-0.48,0.73-0.43,1-0.79c-0.62-0.05-1.21-0.15-1.61-0.69c0.57-0.5,1.34-0.4,2.02,0.25c0.25-0.19,0.09-0.31-0.07-0.43 c-0.83-0.62-1.67-1.24-2.5-1.87c-0.94-0.73-1.69-1.62-2.23-2.69c-0.07-0.14-0.26-0.3,0.01-0.46c0.74,0.93,1.35,1.99,2.4,2.62 c1.19,0.72,2.09,1.81,3.31,2.48c0.12,0.07,0.21,0.17,0.34,0.1c0.16-0.07,0.13-0.21,0.1-0.35c-0.05-0.23-0.09-0.47-0.12-0.7 c-0.06-0.49-0.11-0.92-0.76-1.05c-0.47-0.09-0.8-0.52-1.19-0.96c0.26,0,0.45,0.04,0.62-0.01c0.29-0.07,0.42,0.08,0.52,0.29 c0.09,0.18,0.16,0.35,0.36,0.42c0.04,0.09,0.07,0.18,0.19,0.17c0.01,0.02,0.01,0.03,0.02,0.05c0-0.01,0-0.02,0-0.02 c-0.01-0.01-0.02-0.01-0.03-0.02c-0.03-0.1-0.06-0.18-0.19-0.17c-0.21-0.48-0.58-0.89-0.54-1.46c0.01-0.13,0.02-0.26,0.03-0.43 c0.31,0.17,0.27,0.53,0.51,0.76c0.01-0.78-0.27-1.43-0.53-2.12c-0.26,0.13-0.5,0.34-0.73,0.06c-0.19-0.24-0.14-0.47,0.09-0.66 c-0.14-0.21-0.37-0.26-0.55-0.38c-0.27-0.18-0.28-0.42,0-0.56c0.17-0.08,0.08-0.19,0.12-0.29c0.1-0.23,0.15-0.24,0.35-0.03 c-0.3,0.29,0.04,0.39,0.16,0.68c0.04-0.34-0.21-0.47-0.16-0.69c0.4-0.3,0.4-0.3,0.97-0.22c-0.13,0.36,0.03,0.7,0.02,1.1 c0.33-0.16,0.52,0.01,0.73,0.22c-0.13,0.19-0.31,0.3-0.29,0.56c0.02,0.26-0.15,0.33-0.42,0.11c0.15,0.56,0.3,1.12,0.46,1.72 c0.24-0.13,0.34-0.37,0.46-0.58c0.17-0.3,0.3-0.62,0.46-0.91c0.19-0.34,0.18-0.56-0.15-0.85c-0.96-0.84-1.32-2.01-1.61-3.2 c-0.08-0.33-0.13-0.67-0.12-1.02c0.01-0.18,0.02-0.35,0.25-0.55c0.21,0.72,0.03,1.5,0.53,2.08c0.09-0.18,0.06-0.34-0.08-0.55 c0.35,0.1,0.42,0.28,0.4,0.52c-0.06,0.56,0.18,1.02,0.48,1.57c0.09-0.25,0.06-0.41,0.03-0.57c-0.03-0.17-0.18-0.31-0.16-0.52 c0.15-0.12,0.31-0.25,0.48-0.38c-0.01-0.03-0.02-0.08-0.04-0.11c-0.42-0.69-0.25-1.08,0.53-1.29c0.38-0.1,0.57,0.06,0.45,0.42 c-0.14,0.38-0.03,0.55,0.34,0.69c0.38,0.14,0.44,0.48,0.38,0.83c-0.34,0.23-0.39-0.62-0.77-0.13c0,0.33,0,0.69,0,1.06 c1.03-0.39,1.34-1.43,1.25-2.36c-0.45,0.13-0.29-0.58-0.73-0.48c0.03-0.18,0.11-0.27,0.28-0.31c0.21-0.06,0.39-0.24,0.46-0.42 c0.07-0.22,0.18-0.36,0.39-0.32c0.22,0.04,0.49,0.05,0.59,0.32c0.09,0.23,0.01,0.4-0.16,0.56c-0.04,0.04-0.08,0.09-0.11,0.13 c-0.01,0.14,0.09,0.22,0.14,0.33c0.09,0.17,0.13,0.34-0.02,0.49c-0.06,0.06-0.13,0.14-0.23,0.09c-0.21-0.1-0.05-0.3-0.11-0.44 c-0.22,0.09-0.28,0.24-0.3,0.47c-0.11,1.05-0.54,1.93-1.45,2.53c-0.18,0.12-0.21,0.34-0.18,0.6c0.7-0.5,1.36-1,1.95-1.69 c0.13,0.31,0.05,0.53-0.02,0.72c-0.37,0.97-1,1.76-1.79,2.43c-0.04,0.04-0.1,0.08-0.15,0.09c-0.61,0.08-0.88,0.5-1.14,1.01 c-0.28,0.54-0.19,1.04-0.06,1.59c0.15,0.59,0.25,1.19,0.33,1.8c0.08,0.59,0.59,1.27,1.21,1.48c-0.09-0.48,0.29-0.94-0.04-1.41 c-0.08-0.11-0.04-0.24,0.07-0.31c0.14-0.09,0.33-0.09,0.46-0.01c0.11,0.07,0.13,0.24,0.03,0.36c-0.14,0.17-0.22,0.35-0.24,0.56 c-0.07,0.63,0.02,1.15,0.52,1.65c1.33,1.32,2.62,2.67,3.67,4.33c0.27-0.97,0.75-1.79,1.15-2.65c0.19-0.41,0.16-0.83-0.02-1.21 c-0.59-1.23-1.22-2.44-1.74-3.71c-0.01-0.02-0.04-0.03-0.08-0.06c-0.48,0.48-0.33,1.09-0.35,1.66c0,0.05,0.06,0.13,0.1,0.13 c0.71,0.15,0.53,0.69,0.52,1.19c0.61-0.03,0.78,0.41,0.89,0.89c0.19,0.85,0.1,1.65-0.46,2.36c-0.85-0.64-0.97-1.54-0.45-3.08 c-0.51,0.03-0.73-0.18-0.71-0.73c0.02-0.38,0-0.74-0.18-1.08c-0.39,0.4-0.4,0.74-0.08,1.09c0.29,0.32,0.25,0.74,0.25,1.12 c0,0.17-0.17,0.35-0.35,0.31c-0.17-0.04-0.3-0.19-0.34-0.42c-0.1-0.61,0-1.21,0.11-1.85c-0.25,0.17-0.39,0.48-0.76,0.41 c-0.14-0.46-0.08-0.88,0.28-1.24c0.02,0.02,0.05,0.04,0.07,0.06c-0.18,0.27-0.32,0.54-0.24,0.92c0.5-0.31,0.79-0.71,0.89-1.32 c-0.19,0.08-0.31,0.13-0.43,0.19c-0.02-0.02-0.04-0.05-0.06-0.07c0.19-0.21,0.45-0.28,0.69-0.38c0.39-0.16,0.55-0.47,0.44-0.88 c-0.01-0.04-0.02-0.09-0.03-0.13c-0.14-0.58-0.23-1.07-1.05-1.21c-0.93-0.16-1.4-1.42-1.05-2.35c0.28,0.03,0.53,0.15,0.76,0.3 c0.22,0.14,0.42,0.31,0.67,0.51c-0.1-0.72-0.27-1.39-0.22-2.07c0.03-0.43,0.1-0.85,0.41-1.19c0.02,0.02,0.04,0.04,0.05,0.06 c-0.1,0.3-0.35,0.56-0.24,0.94c0.24-0.27,0.48-0.51,0.68-0.77c0.13-0.18,0.15-0.38-0.16-0.43c-0.02-0.02-0.05-0.05-0.07-0.07 c0.31-0.26,0.48-0.12,0.58,0.2c0.23,0.75-0.07,1.67-0.74,2.13c-0.19,0.13-0.23,0.25-0.19,0.47c0.18,1.2,0.51,2.38,0.99,3.48 c0.62,1.42,1.39,2.78,2.2,4.11c0.18,0.29,0.32,0.32,0.56,0.03c0.63-0.76,1.28-1.48,1.93-2.22c0.19-0.22,0.24-0.41,0.1-0.71 c-0.43-0.92-0.6-1.9-0.65-2.91c-0.02-0.31-0.04-0.58-0.37-0.73c-0.15-0.07-0.31-0.21-0.15-0.43c0.22-0.03,0.28,0.2,0.42,0.28 c0.25-0.39-0.72-0.41-0.28-0.89c0.25,0.14,0.43,0.46,0.75,0.18c0.13,0.22,0.08,0.45-0.04,0.52c-0.31,0.18-0.23,0.44-0.21,0.68 c0.11,1.08,0.44,2.08,1.02,3.08c0.36-0.53,0.62-1.06,0.83-1.61l-0.01,0.01c0.33-0.57,0.52-1.19,0.71-1.81 c0.03-0.1,0.11-0.27-0.11-0.31c-0.24-0.04-0.2-0.23-0.16-0.38c0.04-0.17,0.13-0.16,0.3-0.09c0.12,0.05,0.19-0.15,0.23-0.28 c0.05-0.21,0.08-0.42,0.18-0.62c0.28,0.73-0.28,1.33-0.29,2.04c0.19,0.03,0.31-0.29,0.56-0.14c0.08,0.24-0.01,0.43-0.19,0.61 c-0.19,0.18-0.28-0.05-0.47-0.1c-0.13,0.45-0.26,0.89-0.39,1.34c0.24,0.04,0.4-0.26,0.63-0.04c-0.11,0.26-0.18,0.54-0.58,0.48 c-0.17-0.02-0.26,0.08-0.29,0.26c-0.17,1.02-0.74,1.85-1.35,2.65c-0.02,0.03-0.04,0.07-0.06,0.11c0,0.01,0,0.03,0.02,0.14 c0.88-0.51,1.96-0.62,2.45-1.66c-0.09-0.19-0.4-0.13-0.36-0.41c0.04-0.25,0.28-0.18,0.41-0.34c-0.09-0.14-0.28-0.33-0.1-0.54 c0.11-0.13,0.26-0.17,0.37,0.03c0.31-0.34-0.05-0.48-0.2-0.72c0.42-0.1,0.82-0.11,1.15-0.31c0.08-0.05,0.18,0,0.22,0.09 c0.03,0.06,0.04,0.15,0.01,0.21c-0.04,0.09-0.14,0.11-0.23,0.08c-0.11-0.03-0.22-0.08-0.36-0.14c-0.14,0.51-0.42,0.94-0.44,1.46 c0,0.13-0.04,0.26-0.07,0.39c-0.03,0.14-0.26,0.28-0.03,0.41c0.16,0.09,0.27-0.1,0.4-0.17c0.58-0.29,1.17-0.58,1.81-0.74 c0.22-0.05,0.42-0.09,0.58-0.29c0.11-0.14,0.28-0.16,0.45-0.08c0.09,0.04,0.12,0.13,0.11,0.23c-0.01,0.18-0.1,0.35-0.27,0.37 c-2.01,0.25-3.53,1.6-5.34,2.31c-0.36,0.14-0.71,0.3-1.07,0.45c-0.14,0.06-0.3,0.09-0.39,0.3c0.25,0.16,0.52,0.28,0.77,0.42 c0.65,0.37,0.9,0.95,0.99,1.64c0.03,0.25-0.07,0.36-0.34,0.3c-0.95-0.2-1.69-0.63-1.93-1.74c-1.43,1.72-1.94,3.72-2.31,5.82 c0.31,0.01,0.38-0.15,0.48-0.27c0.53-0.61,1.09-1.18,1.84-1.53c0.39-0.18,0.46-0.55,0.62-0.94c0.16,0.18,0.08,0.34,0.08,0.48 c0,0-0.01,0.01-0.01,0.01l0.01-0.02c1.09-0.39,2.13-0.89,3.19-1.37c0.8-0.36,1.59-0.75,2.34-1.23c0.97-0.62,1.9-1.28,2.64-2.19 c0.11-0.14,0.14-0.28,0.17-0.45c0.02-0.14,0.1-0.25,0.26-0.26c0.13-0.01,0.23,0.05,0.29,0.17c0.07,0.14,0.04,0.26-0.07,0.37 c-0.87,0.87-1.68,1.79-2.77,2.41c-0.32,0.19-0.63,0.42-0.98,0.68c0.58,0.22,1.08,0.48,1.3,1.08c-0.7,0.17-1.2-0.07-1.7-0.82 c-0.49,0.14-0.87,0.53-1.36,0.68c0.04,0.2,0.2,0.17,0.31,0.2c1.37,0.28,2.76,0.4,4.13,0.71c0.21,0.05,0.4,0.02,0.57-0.15 c0.49-0.52,1.09-0.9,1.76-1.16c0.14-0.05,0.26-0.1,0.24-0.27c-0.06-0.58,0.33-0.88,0.72-1.19c0.21,0.04,0.05,0.25,0.17,0.32 c0.25,0.15,0.45-0.35,0.73-0.05c-0.01,0.13-0.03,0.27-0.04,0.4c0.15,0.13,0.33-0.01,0.47,0.1c-0.19,0.74-1.03,1.17-1.72,0.87 c-0.31-0.14-0.7-0.02-1.28,0.41c0.6-0.02,1.15-0.03,1.59,0.42c-0.56,0.4-1.16,0.45-1.7,0.17c-0.45-0.23-0.53-0.01-0.7,0.3 c0.31,0.17,0.56,0.38,0.91,0.08c0.12-0.1,0.33-0.07,0.3,0.18c-0.02,0.19,0.12,0.22,0.22,0.27c0.1,0.05,0.22,0.06,0.28-0.11 c0.06-0.17,0.23-0.18,0.38-0.11c0.21,0.1,0.06,0.25,0.01,0.37c0.14,0.06,0.28,0.11,0.43,0.17c-0.1,0.2-0.22,0.13-0.34,0.09 c-0.21-0.07-0.42-0.2-0.63,0.06c-0.12,0.15-0.28,0.07-0.33-0.12c-0.1-0.33-0.25-0.34-0.48-0.1c-0.15,0.16-0.34,0.19-0.39-0.08 c-0.06-0.34-0.23-0.29-0.43-0.15c-0.13,0.08-0.28,0.15-0.35,0.02c-0.19-0.37-0.53-0.27-0.82-0.32c-0.83-0.15-1.67-0.25-2.5-0.32 c-0.35,0.74-0.21,1.51,0.38,2.1c0.13-0.18,0.25-0.42,0.54-0.3c0.29,0.13,0.1,0.39,0.15,0.61c0.06,0.02,0.13,0.03,0.2,0.05 c0.23,0.06,0.43,0.15,0.42,0.44c-0.01,0.24-0.14,0.39-0.39,0.41c-0.28,0.03-0.54-0.05-0.6-0.34c-0.05-0.25-0.2-0.36-0.37-0.51 c-0.65-0.53-0.98-1.22-0.9-2.08c0.01-0.12,0.02-0.23,0.03-0.34c-1.24-0.46-2.41-0.42-3.61,0.19c-1.17,0.59-2.17,1.36-3,2.36 c-0.6,0.72-0.79,1.47-0.67,2.3c0.34,0.05,0.66-0.1,0.99-0.14c0.32-0.04,0.64-0.1,1-0.16c0.05-0.58,0.18-1.14,0.67-1.53 c0.41-0.32,0.88-0.48,1.39-0.52c0.19,0.61,0,1.12-0.81,2.21c0.54,0.23,1.05,0.22,1.56-0.18c-0.05-0.36-0.08-0.77,0.44-1.09 c-0.15,0.5-0.45,0.93-0.03,1.34c0.16,0.15,0.15-0.15,0.3-0.08c0.11,0.28,0.38,0.44,0.68,0.59c0.07-0.08,0.15-0.17,0.23-0.25 c0.02,0.03,0.05,0.04,0.05,0.06c-0.02,0.3,0.17,0.36,0.42,0.39c0.53,0.08,0.96-0.18,1.41-0.44c-0.58-0.06-1.12-0.34-1.78-0.24 c0.12-0.39,0.54-0.67,0.38-1.15c0.26,0.17,0.2,0.39,0.14,0.57c-0.11,0.38,0.04,0.47,0.4,0.46c0.42-0.02,0.76-0.1,0.84-0.59 c0.03-0.22,0.18-0.2,0.34-0.13l-0.01-0.01c-0.01,0.11-0.02,0.22-0.03,0.34c0.16,0.03,0.32-0.19,0.53,0.04 c-0.35,0.47-0.67,0.98-1.22,1.33c0.53,0.18,0.94,0.67,1.58,0.26c0.35-0.22,0.79-0.19,1.21,0.09c-0.12,0.1-0.21,0.17-0.3,0.24 c0.06,0.21,0.34,0.2,0.37,0.43c-0.09,0.17-0.34,0.15-0.44,0.36c0.06,0.1,0.12,0.21,0.18,0.32c-0.65,0.53-1.5,0.25-1.66-0.45 c-0.05-0.21-0.1-0.39-0.33-0.48c-2.36-0.97-4.8-1.46-7.35-1.13c-0.96,0.13-1.03,0.32-1.04,1.3c-0.02,1.91,0.24,3.79,0.67,5.65 c0.14,0.63,0.45,1.17,0.82,1.76c-1.64,0-3.25,0.23-4.9,0.1c1.09-1.84,1.05-3.87,1.17-5.85c0.03-0.57-0.16-0.75-0.75-0.85 c-0.48-0.08-0.95-0.02-1.42,0.02c-0.06,0-0.14,0.02-0.16,0.06c-0.19,0.46-0.54,0.84-0.69,1.32c0.16,0.14,0.51-0.06,0.49,0.31 c-0.19,0.14-0.42-0.07-0.61,0.1c0.05,0.18,0.31,0.09,0.38,0.3c-0.31,0.33-0.4-0.1-0.59-0.2c-0.29,0.07-0.3,0.25-0.17,0.48 c0.05,0.09,0.13,0.18,0.05,0.28c-0.03,0.04-0.11,0.06-0.15,0.06c-0.15-0.03-0.15-0.16-0.16-0.28c-0.02-0.14,0.04-0.31-0.17-0.37 c-0.2-0.06-0.21,0.12-0.27,0.22c-0.07,0.1-0.15,0.19-0.29,0.16c-0.1-0.02-0.16-0.08-0.17-0.18c-0.02-0.16,0.06-0.25,0.2-0.3 c0.08-0.03,0.15-0.08,0.22-0.12c0.01-0.32-0.56-0.25-0.4-0.66c0.3-0.03,0.29,0.37,0.57,0.4c0.16-0.12,0.13-0.32,0.12-0.51 c-0.01-0.14-0.07-0.34,0.17-0.33c0.24,0.01,0.16,0.18,0.12,0.33c-0.02,0.06,0.01,0.14,0.03,0.28c0.54-0.31,0.76-0.78,0.97-1.35 c-0.93-0.02-1.81-0.03-2.69,0.13c-0.17,0.03-0.33,0.13-0.36,0.29c-0.03,0.21,0.15,0.21,0.32,0.26c0.24,0.07,0.14,0.23,0.02,0.38 c-0.3-0.06-0.35-0.46-0.67-0.48c-0.2,0.27,0.09,0.41,0.19,0.58c-0.05,0.17-0.15,0.25-0.3,0.2c-0.15-0.04-0.11-0.18-0.12-0.3 c-0.01-0.17,0.05-0.35-0.06-0.54c-0.28,0.04-0.41,0.26-0.53,0.47c-0.25-0.13-0.25-0.13,0.27-0.65c-0.04-0.25-0.73,0.05-0.44-0.56 c0.45,0.59,0.75,0.02,1-0.04c0.76,0.29,1.33-0.14,1.96-0.22c-0.03-0.05-0.05-0.11-0.07-0.11c-0.76,0.01-0.88-0.67-1.21-1.12 c-0.02-0.02-0.04-0.06-0.04-0.08c0.3-0.56-0.33-0.97-0.22-1.51c0.13-0.06,0.29-0.03,0.45,0c0.32,0.05,0.59,0.23,0.94,0.23 c0.28,0,0.43,0.32,0.5,0.57c0.18,0.6,0.57,1.09,0.75,1.7c0.16,0.52,0.67,0.3,1.04,0.31c0.33,0.01,0.27-0.29,0.28-0.49 c0.01-0.24,0.01-0.48-0.04-0.71c-0.04-0.18-0.12-0.4-0.38-0.19c-0.02-0.02-0.04-0.04-0.06-0.06c0.1-0.28-0.01-0.36-0.28-0.28 c-0.19,0.06-0.38,0.13-0.62-0.02c0.26-0.2,0.6-0.05,0.81-0.3c-0.23-0.25-0.64-0.01-0.87-0.31c0.1-0.14,0.23-0.29,0.35-0.14 c0.18,0.21,0.35,0.13,0.56,0.15c0.46,0.05,0.45-0.22,0.47-0.5c0.16-0.07,0.28-0.04,0.31,0.1c0.06,0.24-0.19,0.26-0.33,0.4 c0.18,0.2,0.18,0.47,0.28,0.7c0.14,0.3,0.51-0.03,0.69,0.22c-0.24,0.26-0.46,0.05-0.74,0.03c0.07,0.44,0.12,0.86,0.08,1.26 c0.05,0.04,0.07,0.07,0.09,0.07c1.32,0.22,1.32,0.22,1.33-1.12c0-0.18-0.01-0.36,0.02-0.53c0.15-0.88-0.24-1.38-1.03-1.72 c-1.33-0.58-2.7-0.78-4.14-0.63c-0.51,0.05-0.83,0.36-1.03,0.81c-0.09,0.2-0.1,0.38-0.02,0.6c0.21,0.6,0.29,1.27-0.02,1.8 c-0.35,0.6-0.94,1.06-1.63,1.31c-0.2,0.08-0.37-0.05-0.33-0.32c0.07-0.46,0.15-0.91,0.45-1.31c0.17-0.22,0.32-0.46,0.39-0.87 c-0.56,0.76-1.03,1.45-1.29,2.25c-0.09,0.27-0.18,0.56-0.31,0.76c-0.21,0.32-0.08,0.4,0.14,0.53c-0.33,0.37-0.33,0.37,0.13,0.54 c0.09,0.03,0.15,0.12,0.24,0.19c-0.33,0.39-0.4-0.13-0.64-0.1c-0.19,0.15-0.19,0.15,0.08,0.61c-0.03,0.02-0.07,0.05-0.1,0.07 c-0.13-0.18-0.26-0.36-0.39-0.54c-0.26,0.08-0.14,0.37-0.25,0.52c-0.26-0.19-0.26-0.19,0.04-0.66c-0.17-0.15-0.33-0.02-0.49,0.01 c-0.13,0.03-0.3,0.1-0.38-0.09c-0.03-0.06-0.04-0.17-0.01-0.21c0.11-0.14,0.24-0.06,0.35,0.02c0.14,0.1,0.28,0.04,0.44,0.01 c-0.01-0.27-0.34-0.35-0.34-0.61c0.22-0.04,0.22-0.04,0.36,0.35c0.73-0.56,0.65-1.5,1.19-2.1c-0.04-0.03-0.08-0.05-0.12-0.08 c-0.16,0.24-0.35,0.47-0.48,0.73c-0.16,0.31-0.49,0.28-0.74,0.41c-0.27,0.14-0.53,0.27-0.86,0.27c-0.29,0.01-0.57,0.08-0.88-0.08 c0.07-0.75,0.48-1.31,1.15-1.62c0.23-0.1,0.31-0.33,0.58-0.41c0.39-0.13,0.77-0.14,1.15-0.1c0.75,0.09,0.88-0.49,1.16-0.98 c-0.18-0.09-0.36-0.05-0.53-0.05c-0.34,0-0.68,0.02-1.02-0.05c-0.34-0.07-0.64,0.05-0.7,0.46c-0.04,0.31-0.18,0.25-0.39,0.07 c0.36-0.2,0.36-0.58,0.49-0.89c0.19-0.45,0.27-0.46,0.66-0.22c0.27,0.02,0.15-0.41,0.43-0.36c0.05,0.01,0.09,0.06,0.14,0.09 c-0.06,0.28-0.4,0.27-0.48,0.5c1.03,0.51,1.86,0.08,2.27-1.21c-0.18-0.08-0.37-0.06-0.55-0.05c-0.95,0.01-1.9-0.06-2.85-0.12 c-0.63-0.04-0.91,0.13-1.14,0.7c-0.06,0.15-0.02,0.24,0.12,0.27c0.12,0.02,0.22,0.07,0.32,0.15c0.16,0.13,0.27,0.31,0.18,0.51 c-0.1,0.24-0.3,0.11-0.46,0.07c-0.06-0.01-0.11-0.04-0.19-0.07c-0.06,0.26-0.07,0.53-0.38,0.6c-0.27,0.06-0.4-0.14-0.54-0.35 c-0.24,0.05-0.51,0.2-0.71-0.1c-0.15-0.22-0.13-0.42,0.04-0.59c-0.02-0.05-0.03-0.08-0.04-0.1c-0.19-0.15-0.42-0.32-0.28-0.58 c0.13-0.25,0.43-0.23,0.68-0.19c0.18,0.03,0.34,0.09,0.5,0.19c0.51,0.32,0.8,0.15,0.84-0.56c-1.07,0.11-2.15-0.37-3.2,0.28 c0,0.14,0.19,0.43-0.16,0.55c-0.12,0.04-0.23,0.02-0.29-0.12c-0.14-0.3,0.15-0.38,0.32-0.54c-0.23-0.19-0.36-0.39-0.25-0.69 c0.06-0.16,0.02-0.34,0.25-0.4c0.23-0.05,0.47-0.07,0.61,0.13c0.25,0.35,0.57,0.4,0.96,0.39c1.05-0.01,2.11,0.03,3.16-0.15 c0.07-0.01,0.14-0.04,0.22-0.06c0-0.3-0.12-0.42-0.41-0.36c-0.1,0.02-0.21,0.03-0.31,0.02c-0.26-0.02-0.57,0-0.64-0.35 c-0.07-0.35,0.23-0.39,0.45-0.5c-0.06-0.58-0.06-0.58,0.5-0.59c0.06,0,0.1-0.01,0.15-0.04c0.46-0.27,0.57-0.22,0.76,0.29 c0.16,0.06,0.45-0.13,0.5,0.19c0.07,0.52-0.44,0.56-0.73,0.81c0.08,0.36,0.29,0.59,0.66,0.56c1.8-0.13,3.6-0.04,5.4-0.04 c0.13,0,0.26-0.01,0.45-0.02c-0.38-0.5-0.8-0.86-1.3-1.14c-0.28,0.17-0.44,0.49-0.75,0.62c-0.1,0.04-0.23,0.12-0.33,0 c-0.03-0.04-0.03-0.12-0.02-0.16c0.04-0.12,0.15-0.14,0.26-0.11c0.37,0.1,0.39-0.3,0.64-0.37c-0.13-0.26-0.37-0.25-0.55-0.34 c-0.09-0.05-0.21-0.08-0.2-0.21c0-0.04,0.06-0.11,0.1-0.12c0.1-0.04,0.15,0.05,0.22,0.1c0.38,0.24,0.78,0.47,1.21,0.73 c0-0.81,0.16-1.48,0.9-1.85c0.59,0.5,0.51,1.52-0.14,1.83c-0.33,0.16-0.27,0.27-0.05,0.51c0.74,0.81,1.8,0.85,2.73,1.19 c0.31,0.11,0.43-0.14,0.52-0.36c0.28-0.68,0.19-1.37-0.02-2.05c-0.06-0.21-0.16-0.41-0.29-0.72c-0.39,1.1-1.08,1.68-2.18,1.7 c-0.26-1.02,0.28-1.72,1.8-2.38c0-0.22-0.16-0.37-0.28-0.53c-0.16-0.23-0.34-0.45-0.53-0.66c-0.92-1.03-0.56-0.84-1.76-0.45 c-0.31,0.1-0.5,0.23-0.53,0.64c-0.06,0.74-0.93,1.67-1.91,1.53c0.67-0.34,0.74-1.03,1.24-1.59c-2.18,1.03-4.38,0.7-6.55,0.74 c-0.15,0-0.29-0.04-0.44-0.05c-0.65-0.08-1.28-0.12-1.78,0.42c-0.08,0.08-0.2,0.13-0.3,0.18c-0.22,0.11-0.44,0.11-0.6-0.11 c-0.17-0.22-0.07-0.42,0.08-0.61c0.31-0.39,1.02-0.55,1.51-0.42c0.59,0.17,1.21,0.22,1.85,0.21c0.13-0.87-0.53-1.93,0.78-2.5 c-0.35-0.08-0.51-0.22-0.44-0.47c0.07-0.28,0.3-0.16,0.48-0.17c0.19-0.01,0.38-0.03,0.58-0.04c0.15-0.01,0.33-0.04,0.38,0.15 c0.05,0.17-0.02,0.32-0.21,0.38c-0.06,0.02-0.09,0.07-0.1,0.2c0.42,0.18,0.7,0.5,0.64,1.04c-0.05,0.44-0.07,0.88-0.11,1.38 c1.62,0.09,3.03-0.5,4.45-1.2c-0.29-0.3-0.71-0.5-0.71-1c0.44-0.08,0.83,0.06,1.12,0.34c0.33,0.33,0.6,0.25,0.93-0.01 c-0.7-0.74-1.4-1.45-2.25-2.01c-0.73-0.49-0.76-0.48-1.28,0.26c0.13,0.21,0.27,0.42,0.38,0.64c0.04,0.08,0.15,0.2,0.01,0.3 c-0.16,0.13-0.17-0.13-0.32-0.08c-0.1,0.13-0.09,0.36-0.26,0.5C93.24,39.96,93.21,39.94,93.19,39.91z M96,29.48 c-0.16-0.05-0.29-0.11-0.43-0.14c-0.19-0.04-0.31,0.1-0.26,0.25c0.13,0.35,0.32,0.68,0.51,1.07C96.06,30.23,96,29.87,96,29.48z M98.19,32.41c0.42,0.47,0.82,0.87,1.27,1.22C99.35,33.06,98.76,32.47,98.19,32.41z M95.43,32.95c0.47-0.09,0.79-0.22,1.04-0.62 C95.94,32.27,95.72,32.58,95.43,32.95z M97.94,44.82c0.33-0.17,0.66-0.35,0.85-0.78C98.35,44.21,98.08,44.46,97.94,44.82z M93.72,30.98c-0.02-0.32,0.05-0.65-0.29-0.91C93.37,30.45,93.51,30.73,93.72,30.98z M96.35,32.15c0.37,0.07,0.5-0.12,0.63-0.36 C96.66,31.69,96.55,31.92,96.35,32.15z M106.72,49.08c-0.16-0.16-0.32-0.32-0.63-0.23C106.29,49.06,106.49,49.09,106.72,49.08z M95.33,27.89c-0.06,0.26,0.02,0.42,0.19,0.56C95.44,28.29,95.53,28.07,95.33,27.89z"></path> <path class="st42" d="M109.26,30.7c0.21,0.25,0.38,0.09,0.56-0.04c0.62-0.44,1.29-0.79,2.08-0.89c0.08,1.03-0.17,1.91-0.93,2.63 c-0.26,0.25-0.58,0.49-0.52,0.93c0.01,0.09-0.06,0.13-0.13,0.16c-0.04,0.02-0.08,0.04-0.12,0.05c-0.53,0.14-1.14,0.39-1.58,0 c-0.45-0.41-0.19-1.03-0.04-1.56C108.71,31.53,108.97,31.15,109.26,30.7z"></path> <path class="st42" d="M114.91,32.63c-0.61,0.93-1.38,1.52-2.41,1.69c-0.55,0.09-1.13,0.03-1.69,0.04 c-0.28,0.01-0.33-0.15-0.28-0.37c0.12-0.54,0.45-0.94,0.89-1.23C112.53,32.02,113.66,32.11,114.91,32.63z"></path> <path class="st42" d="M102.44,35.83c0.08-0.46,0.1-0.93,0.3-1.35c0.18-0.39,0.4-0.44,0.63-0.08c0.3,0.46,0.65,0.9,0.87,1.42 c0.32,0.77,0.27,1.5-0.15,2.21c-0.15,0.27-0.33,0.29-0.57,0.1C102.77,37.54,102.51,36.73,102.44,35.83z"></path> <path class="st42" d="M114.74,41c-0.73,1.12-2.9,1.91-3.8,0.8C111.49,40.44,113.53,40,114.74,41z"></path> <path class="st42" d="M107.13,28.01c0.51,1.52,0.09,2.98-1.08,3.83C104.95,30.85,105.47,28.73,107.13,28.01z"></path> <path class="st42" d="M99.47,26c1.98,0.83,2.96,3.52,1.66,4.6c-0.03-0.98-0.72-1.64-1.13-2.43c-0.27-0.52-0.5-1.04-0.59-1.62 C99.39,26.38,99.34,26.2,99.47,26z"></path> <path class="st42" d="M109.65,51.61c-1.86,0.73-3.46,0.08-3.88-1.57C106.71,49.57,108.81,50.42,109.65,51.61z"></path> <path class="st42" d="M109.44,41.22c-0.42-1.01-0.16-2.38,0.56-2.99c0.2-0.17,0.45-0.39,0.7-0.29c0.23,0.09,0.26,0.41,0.3,0.66 C111.17,39.76,110.49,40.92,109.44,41.22z"></path> <path class="st42" d="M108.14,28.53c0.28,0.25,0.36,0.05,0.48-0.11c0.37-0.51,0.6-0.65,1.01-0.66c0.13,0.67,0.12,1.35-0.08,2 c-0.15,0.51-0.65,0.73-1.07,0.97c-0.33,0.18-0.45-0.13-0.51-0.37C107.8,29.76,108,29.19,108.14,28.53z"></path> <path class="st42" d="M104.21,45.6c0.6-0.84,1.3-1.44,2.4-1.23c0.07,0.64-0.33,1.42-0.85,1.64 C105.17,46.25,104.64,46.11,104.21,45.6z"></path> <path class="st42" d="M97.14,33.45c0.25,1.16-0.43,2.32-1.49,2.59C95.19,34.88,95.8,33.8,97.14,33.45z"></path> <path class="st42" d="M90.27,33.67c-0.28,0.03-0.46-0.09-0.59-0.28c-0.41-0.58-0.52-1.22-0.24-1.89c0.17-0.4,0.6-0.6,0.94-0.46 c0.33,0.13,0.49,0.55,0.39,0.97c-0.04,0.18-0.1,0.34-0.18,0.49C90.39,32.86,90.21,33.23,90.27,33.67z"></path> <path class="st42" d="M87.33,37.62c-0.45-0.34-0.92-0.33-1.4-0.33c-0.36,0-0.66-0.18-0.79-0.54c-0.1-0.29-0.04-0.57,0.2-0.77 c0.29-0.25,0.62-0.25,0.96-0.1C86.82,36.1,87.34,36.93,87.33,37.62z"></path> <path class="st42" d="M102.98,49.72c1.12-0.12,2.43,0.74,2.56,1.64C104.38,51.62,103.25,50.9,102.98,49.72z"></path> <path class="st42" d="M98.84,35.35c-0.27,0.95-1.52,1.45-2.51,1.02C96.47,35.48,97.86,34.91,98.84,35.35z"></path> <path class="st42" d="M88.42,41.25c-0.18,0.16-0.32,0.21-0.5,0.17c-0.47-0.1-0.92-0.23-1.31-0.52c-0.18-0.14-0.34-0.3-0.4-0.52 c-0.1-0.33-0.18-0.72,0.18-0.92c0.36-0.2,0.63,0.07,0.87,0.33c0.32,0.35,0.35,0.88,0.76,1.16C88.15,41.05,88.28,41.15,88.42,41.25z "></path> <path class="st42" d="M91.53,43.02c0.78-0.09,1.74,0.42,2.06,1.06c0.14,0.28,0.15,0.57,0,0.85c-0.12,0.23-0.31,0.36-0.57,0.36 c-0.25,0.01-0.36-0.18-0.45-0.37c-0.05-0.09-0.09-0.19-0.12-0.29C92.16,43.71,92.16,43.71,91.53,43.02z"></path> <path class="st42" d="M86.5,41.48c-0.31,0.54-0.7,0.64-1.33,0.4c-0.54-0.21-0.81-0.62-0.71-1.09c0.08-0.38,0.35-0.38,0.62-0.25 c0.25,0.12,0.47,0.3,0.7,0.47C86,41.17,86.19,41.38,86.5,41.48z"></path> <path class="st42" d="M88.83,34.12c-0.58-0.15-1.07-0.23-1.57-0.27c-0.36-0.03-0.49-0.3-0.44-0.64c0.05-0.36,0.37-0.61,0.74-0.54 c0.31,0.05,0.58,0.19,0.75,0.47c0.12,0.18,0.23,0.37,0.34,0.56C88.71,33.79,88.74,33.9,88.83,34.12z"></path> <path class="st42" d="M114.75,35.66c-0.64-0.21-0.73-0.59-0.28-1.05c0.17-0.18,0.37-0.33,0.6-0.54c0.11,0.52-0.29,0.86-0.23,1.31 c0.17-0.37,0.33-0.75,0.5-1.12c-0.03,0.48,0.35,1.07-0.41,1.33c0.13,0.2,0.26-0.04,0.37,0.04c0.05,0.82-0.05,0.96-0.78,1.14 c0.03-0.2,0.06-0.39,0.1-0.57C114.64,36.04,114.69,35.87,114.75,35.66z"></path> <path class="st42" d="M88.94,39.16c-0.02,0.25-0.04,0.52-0.33,0.65c-0.17,0.08-0.35,0.09-0.5-0.06c-0.21-0.21-0.24-0.47-0.17-0.75 c0.08-0.34,0.26-0.65,0.32-1c0.04-0.24,0.21-0.16,0.31-0.01C88.79,38.35,88.91,38.73,88.94,39.16z"></path> <path class="st42" d="M87.71,32.04c-0.32-0.01-0.64-0.03-0.9-0.24c-0.26-0.2-0.33-0.46-0.17-0.75c0.15-0.28,0.41-0.27,0.66-0.17 c0.3,0.11,0.54,0.3,0.72,0.57c0.09,0.14,0.19,0.28,0.11,0.45C88.05,32.09,87.86,32.02,87.71,32.04z"></path> <path class="st42" d="M101.27,35.83c-0.59-0.82-0.78-1.46-0.63-2.33c0.26,0.51,0.88,0.6,0.96,1.11 C101.66,35.01,101.55,35.46,101.27,35.83z"></path> <path class="st42" d="M91.21,34.33c0.25,0.04,0.46-0.03,0.68-0.08c0.12-0.03,0.25-0.03,0.31,0.1c0.07,0.13-0.02,0.24-0.11,0.3 c-0.26,0.18-0.55,0.32-0.87,0.26c-0.42-0.07-0.45-0.49-0.53-0.77c-0.09-0.3,0.11-0.6,0.43-0.74c0.1-0.05,0.2-0.05,0.28,0.04 c0.14,0.15,0.07,0.33,0.03,0.48C91.39,34.07,91.19,34.12,91.21,34.33z"></path> <path class="st42" d="M116.12,36.39c0.28,0.15,0.55,0.28,0.47,0.58c-0.1,0.37-0.43,0.45-0.78,0.4c-0.28-0.34-0.12-0.64,0.09-0.93 c-0.37-0.14-0.47-0.44-0.31-0.75c0.09-0.19,0.35-0.21,0.55-0.09C116.54,35.82,116.3,36.1,116.12,36.39z"></path> <path class="st42" d="M91.09,43.3c0.14-0.07,0.23-0.04,0.3,0.04c0.4,0.42,0.63,0.92,0.68,1.5c0.02,0.22-0.03,0.43-0.27,0.5 c-0.22,0.06-0.35-0.1-0.47-0.25c-0.19-0.24-0.17-0.52-0.18-0.8C91.14,43.95,91.22,43.62,91.09,43.3z"></path> <path class="st42" d="M101.69,34.11c-0.93-0.52-1.28-1.2-0.91-1.73C101.57,32.78,101.81,33.24,101.69,34.11z"></path> <path class="st42" d="M113.5,47.96c-0.27,0.1-0.53,0.26-0.9-0.02c0.16,0.36,0.25,0.63,0.14,0.97c-0.47-0.46-0.43-0.99-0.38-1.53 C112.87,47.22,113.4,47.48,113.5,47.96z"></path> <path class="st42" d="M113.5,36.39c0.08-0.42,0.2-0.82,0.45-1.18c0.6,0.55,0.6,0.55,0.29,1.61c-0.17,0.04-0.25-0.12-0.38-0.18 C113.74,36.57,113.63,36.48,113.5,36.39z"></path> <path class="st42" d="M107.55,46.47c-0.13-0.25-0.33-0.41-0.3-0.68c-0.23,0.1-0.42,0.33-0.71,0.14c0.07-0.22,0-0.47,0.35-0.57 c0.61-0.18,0.83,0.27,1.17,0.6C107.93,46.18,107.8,46.36,107.55,46.47z M107.36,45.74c0.01-0.02,0.03-0.05,0.04-0.07 c0-0.01-0.03-0.03-0.05-0.04c-0.01,0.02-0.03,0.05-0.04,0.07C107.31,45.71,107.35,45.73,107.36,45.74z"></path> <path class="st42" d="M113.52,36.67c0.69,0.34,0.83,0.67,0.58,1.41c-0.07,0.19-0.19,0.25-0.36,0.08 C113.43,37.85,113.32,37.14,113.52,36.67z"></path> <path class="st42" d="M87.57,42.96c-0.05,0.5-0.14,0.98-0.44,1.39c-0.11,0.15-0.3,0.22-0.48,0.14c-0.19-0.09-0.13-0.3-0.09-0.44 C86.71,43.52,87.13,43.24,87.57,42.96z"></path> <path class="st42" d="M116.3,39.51c-0.78,0.13-1.4,0.02-1.94-0.49C115.14,38.62,115.7,38.99,116.3,39.51z"></path> <path class="st42" d="M90.14,37.07c0.17,0.4,0.3,0.82,0.61,1.15c0.11,0.12,0.14,0.31,0.03,0.46c-0.09,0.11-0.25,0.2-0.39,0.13 c-0.18-0.08-0.37-0.21-0.37-0.45c-0.01-0.42,0-0.85,0-1.27C90.06,37.08,90.1,37.08,90.14,37.07z"></path> <path class="st42" d="M88.73,31.77c-0.45-0.29-0.65-0.96-0.45-1.35c0.09-0.18,0.23-0.28,0.43-0.22c0.21,0.07,0.24,0.26,0.22,0.44 C88.89,31,88.71,31.34,88.73,31.77z"></path> <path class="st42" d="M85.61,39.75c-0.21-0.06-0.4-0.12-0.58-0.17c-0.23-0.07-0.39-0.2-0.46-0.44c-0.05-0.15-0.1-0.29,0.03-0.41 c0.13-0.12,0.28-0.07,0.42-0.03C85.41,38.83,85.62,39.2,85.61,39.75z"></path> <path class="st42" d="M115.48,46.24c-0.53,0.56-0.9,0.57-1.51,0.08C114.82,45.69,114.91,45.58,115.48,46.24z"></path> <path class="st42" d="M88.4,43c-0.02,0.35-0.03,0.66-0.05,0.97c-0.02,0.24-0.11,0.46-0.4,0.42c-0.29-0.03-0.37-0.33-0.3-0.51 c0.11-0.32,0.33-0.59,0.52-0.88C88.18,42.97,88.27,43,88.4,43z"></path> <path class="st42" d="M117.15,37.65c-0.08,0.59-0.63,0.94-1.32,0.86c-0.05-0.36,0.31-0.55,0.36-0.86 C116.52,37.65,116.82,37.65,117.15,37.65z"></path> <path class="st42" d="M112.71,46.1c0.27,0.11,0.57,0.19,0.81,0.35c0.35,0.23,0.41,0.69,0.68,1c-0.75-0.17-1.24-0.63-1.54-1.3 C112.68,46.13,112.69,46.12,112.71,46.1z"></path> <path class="st42" d="M108.41,38.17c-0.12,0.63-0.3,1.17-0.48,1.73C107.31,39.31,107.49,38.58,108.41,38.17z"></path> <path class="st42" d="M102.68,29.38c0.54,0.6,0.49,1.29-0.07,1.92C102.51,30.66,102.43,30.06,102.68,29.38z"></path> <path class="st42" d="M107.34,39.35c0.28,0.57,0.63,1.03,0.23,1.59c-0.05,0.08-0.05,0.21-0.2,0.2c-0.16-0.01-0.13-0.13-0.16-0.22 C107.05,40.41,107.03,39.92,107.34,39.35z"></path> <path class="st42" d="M115.8,38.77c0.68-0.19,0.68-0.19,1.66,0.35C116.82,39.49,116.41,39.41,115.8,38.77z"></path> <path class="st42" d="M113.07,48.28c0.76-0.31,0.87-0.25,1.21,0.62C113.7,49.1,113.67,49.08,113.07,48.28z"></path> <path class="st42" d="M92.81,32.38c0.57,0.32,0.84,1.01,0.69,1.68C92.78,33.73,92.86,33.05,92.81,32.38z"></path> <path class="st42" d="M93.26,39.98c-0.01,0.1-0.09,0.17-0.04,0.29c0.15,0.36-0.07,0.52-0.38,0.58c-0.29,0.06-0.47-0.09-0.48-0.37 c-0.01-0.32,0.15-0.54,0.52-0.47c0.14,0.03,0.22-0.02,0.31-0.1C93.21,39.94,93.24,39.96,93.26,39.98z"></path> <path class="st42" d="M100.84,31.97c0.16-0.35,0.37-0.63,0.7-0.96c0.03,0.62,0.06,1.14,0.09,1.72 C101.24,32.54,101.11,32.18,100.84,31.97z"></path> <path class="st42" d="M101.93,32.77c-0.1-0.62-0.23-1.17-0.06-1.75C102.38,31.42,102.43,32.34,101.93,32.77z"></path> <path class="st42" d="M91.87,33.59c0.59,0.13,1.29-0.1,1.51,0.69C92.71,34.45,92.36,34.31,91.87,33.59z"></path> <path class="st42" d="M117.03,38.53c0.53-0.32,1.03-0.37,1.54-0.51c-0.04,0.48-0.44,0.63-0.71,0.92 C117.62,38.81,117.37,38.7,117.03,38.53z"></path> <path class="st42" d="M102.91,31.41c-0.02-0.59,0.48-1.13,1.12-1.25C104.05,30.66,103.56,31.22,102.91,31.41z"></path> <path class="st42" d="M101.71,35.78c0.08-0.67,0.19-1.26,0.67-1.78C102.52,34.77,102.25,35.49,101.71,35.78z"></path> <path class="st42" d="M86.28,39.15c-0.5-0.11-0.82-0.64-0.68-1.04c0.04-0.12,0.1-0.21,0.25-0.22c0.16-0.01,0.27,0.08,0.29,0.22 C86.21,38.45,86.24,38.79,86.28,39.15z"></path> <path class="st42" d="M108.21,44.26c-0.3,0.56-0.64,0.97-1.32,0.76C107.13,44.51,107.61,44.22,108.21,44.26z"></path> <path class="st42" d="M89.25,36.61c0.23,0.41,0.29,0.78,0.24,1.17c-0.02,0.14-0.11,0.25-0.26,0.26c-0.18,0.01-0.3-0.11-0.3-0.27 C88.91,37.37,88.97,36.99,89.25,36.61z"></path> <path class="st42" d="M116.17,45.49c0.1-0.21-0.22-0.26-0.12-0.5c0.03-0.02,0.11-0.07,0.17-0.14c0.18-0.21,0.39-0.2,0.59-0.07 c0.14,0.09,0.19,0.22,0.11,0.38c-0.11,0.21-0.25,0.36-0.52,0.33C116.32,45.48,116.24,45.39,116.17,45.49L116.17,45.49z"></path> <path class="st42" d="M115.78,37.69c-0.06,0.78-0.39,1.02-1.39,1.02C114.74,38.22,115.28,38.04,115.78,37.69z"></path> <path class="st42" d="M92.7,33.14c-0.45-0.44-0.97-0.74-1-1.42C92.44,31.99,92.71,32.35,92.7,33.14z"></path> <path class="st42" d="M88.52,34.61c0,0.4-0.01,0.68,0,0.96c0,0.2-0.12,0.3-0.27,0.37c-0.11,0.05-0.24,0.04-0.33-0.06 c-0.12-0.13-0.07-0.28-0.01-0.42C88.03,35.17,88.14,34.86,88.52,34.61z"></path> <path class="st42" d="M107.78,41.13c-0.06-0.67,0.4-0.89,0.85-1.12C108.76,40.58,108.47,40.97,107.78,41.13z"></path> <path class="st42" d="M115.16,46.86c0.19-0.21,0.36-0.36,0.58-0.48c0.23,0.24,0.52,0.41,0.68,0.78 C115.94,47.28,115.58,47.02,115.16,46.86z"></path> <path class="st42" d="M88.22,36.27c0.06,0.3,0.12,0.59,0.17,0.89c0.02,0.15-0.03,0.3-0.18,0.37c-0.1,0.04-0.2,0.06-0.29-0.01 c-0.14-0.11-0.12-0.26-0.07-0.41c0.09-0.28,0.19-0.57,0.28-0.85C88.15,36.26,88.19,36.27,88.22,36.27z"></path> <path class="st42" d="M87.17,39.32c-0.49-0.25-0.52-0.57-0.47-0.92c0.04-0.22,0.15-0.42,0.41-0.34c0.23,0.08,0.28,0.3,0.17,0.51 C87.16,38.78,87.07,38.98,87.17,39.32z"></path> <path class="st42" d="M114.01,46.65c0.74-0.01,0.79,0.68,1.23,1C114.7,47.79,114.38,47.51,114.01,46.65z"></path> <path class="st42" d="M106.57,46.14c0.38-0.02,0.66,0.08,0.8,0.45c-0.16,0.19-0.33,0.34-0.55,0.4 C106.48,46.8,106.5,46.51,106.57,46.14z"></path> <path class="st42" d="M89.25,34.86c0.18,0.38,0.13,0.71,0.06,1.03c-0.04,0.17-0.15,0.28-0.36,0.2c-0.2-0.08-0.22-0.23-0.14-0.39 C88.93,35.44,89.07,35.19,89.25,34.86z"></path> <path class="st42" d="M91.62,32.37c0.42,0.32,0.67,0.7,1.1,0.93c-0.34,0.26-0.65,0.02-0.87-0.06 C91.56,33.14,91.66,32.74,91.62,32.37z"></path> <path class="st42" d="M93.87,39.85c0.23,0.08,0.42,0.21,0.45,0.47c0.03,0.23-0.12,0.36-0.34,0.36c-0.25,0-0.43-0.14-0.46-0.38 C93.48,40.06,93.65,39.93,93.87,39.85z"></path> <path class="st42" d="M115.06,36.78c-0.02,0.49-0.28,0.94-0.7,1.19C114.22,37.44,114.48,37,115.06,36.78z"></path> <path class="st42" d="M114.26,45.7c-0.5,0.5-0.83,0.53-1.37,0.13C113.24,45.6,113.74,45.55,114.26,45.7z"></path> <path class="st42" d="M111.57,47.16c-0.23-0.02-0.35-0.15-0.35-0.37c0-0.22,0.15-0.32,0.35-0.31c0.19,0.01,0.4,0.08,0.39,0.33 C111.96,47.04,111.77,47.12,111.57,47.16z"></path> <path class="st42" d="M117.27,38.19c0.25-0.63,0.46-0.69,1.35-0.37C118.17,38.01,117.76,38.14,117.27,38.19z"></path> <path class="st42" d="M102.01,34.08c-0.12-0.55,0-0.97,0.33-1.37C102.56,33.19,102.46,33.62,102.01,34.08z"></path> <path class="st42" d="M104.46,29.3c0.01,0.47-0.2,0.63-0.98,0.79C103.58,29.55,103.6,29.52,104.46,29.3z"></path> <path class="st42" d="M89.98,35.41c0.08,0.29,0.33,0.5,0.33,0.83c0,0.19-0.03,0.39-0.24,0.41c-0.27,0.03-0.23-0.21-0.24-0.38 c-0.01-0.28,0-0.57,0-0.85C89.88,35.41,89.93,35.41,89.98,35.41z"></path> <path class="st42" d="M108.22,45.71c-0.19-0.17-0.31-0.27-0.44-0.4c0.12-0.28,0.24-0.57,0.49-0.83 C108.61,44.92,108.35,45.28,108.22,45.71z"></path> <path class="st42" d="M103.27,29.82c-0.49-0.82-0.49-0.82,0.02-1.24C103.51,28.98,103.42,29.36,103.27,29.82z"></path> <path class="st42" d="M107,41.07c0.52,0.52,0.3,0.98,0.01,1.5C106.86,42.04,106.87,41.57,107,41.07z"></path> <path class="st42" d="M114.46,50.26c-0.37-0.33-0.5-0.73-0.71-1.08C114.3,48.99,114.54,49.07,114.46,50.26z"></path> <path class="st42" d="M112.12,36.09c0.22,0.01,0.38,0.11,0.39,0.34c0.01,0.22-0.12,0.37-0.34,0.39c-0.24,0.02-0.33-0.18-0.35-0.37 C111.81,36.25,111.9,36.11,112.12,36.09z"></path> <path class="st42" d="M112.99,48.54c0.53,0.44,0.53,0.44,0.4,1.03C112.85,49.35,112.73,49.06,112.99,48.54z"></path> <path class="st42" d="M95.97,37.41c0.2,0.02,0.36,0.11,0.36,0.32c0,0.18-0.08,0.36-0.3,0.37c-0.27,0.01-0.33-0.2-0.36-0.41 C95.62,37.45,95.83,37.46,95.97,37.41z"></path> <path class="st42" d="M107.16,48.82c0.54-0.2,0.92-0.41,0.92-0.93c-0.13-0.16-0.3-0.01-0.45-0.11c0.16-0.13,0.34-0.23,0.52-0.11 c0.18,0.13,0.13,0.35,0.08,0.54C108.06,48.76,107.76,48.96,107.16,48.82z"></path> <path class="st42" d="M108.12,40c0.08-0.47,0.2-0.86,0.42-1.23C108.81,39.31,108.69,39.73,108.12,40z"></path> <path class="st42" d="M107.38,42.43c0.07-0.57,0.22-0.99,0.88-1.04C108.08,41.83,107.82,42.16,107.38,42.43z"></path> <path class="st42" d="M110.19,48c-0.03-0.33,0.01-0.6,0.45-0.54c0.16,0.02,0.29,0.11,0.28,0.28c-0.01,0.17-0.12,0.26-0.29,0.26 C110.48,47.99,110.33,47.99,110.19,48C110.19,47.99,110.19,48,110.19,48z"></path> <path class="st42" d="M104.38,43.07c-0.04,0.21-0.17,0.3-0.37,0.3c-0.19,0-0.31-0.11-0.31-0.29c0.01-0.19,0.12-0.34,0.33-0.34 C104.24,42.74,104.35,42.87,104.38,43.07z"></path> <path class="st42" d="M104.12,42.25c0,0.24-0.14,0.32-0.34,0.33c-0.2,0.01-0.31-0.09-0.31-0.29c0-0.21,0.14-0.33,0.33-0.34 C103.99,41.94,104.09,42.08,104.12,42.25z"></path> <path class="st42" d="M111.27,46.09c-0.02,0.2-0.11,0.35-0.32,0.34c-0.18,0-0.3-0.13-0.3-0.31c0-0.21,0.13-0.33,0.33-0.34 C111.17,45.77,111.25,45.91,111.27,46.09z"></path> <path class="st42" d="M103.71,28.81c-0.26-0.49-0.26-0.49,0.44-0.96C104.17,28.11,104.07,28.34,103.71,28.81z"></path> <path class="st42" d="M105.38,42.91c0.01-0.1,0.01-0.21,0.02-0.31c0.03-0.24,0.19-0.28,0.38-0.25c0.17,0.03,0.27,0.16,0.2,0.32 c-0.07,0.14-0.09,0.43-0.39,0.25C105.53,42.89,105.44,42.91,105.38,42.91L105.38,42.91z"></path> <path class="st42" d="M103.9,29.22c0.13-0.42,0.35-0.7,0.54-1.07c0.13,0.29,0.12,0.52,0.11,0.78 C104.36,29.03,104.16,29.11,103.9,29.22z"></path> <path class="st42" d="M97.2,38.23c0.11,0.11,0.35,0.1,0.31,0.32c-0.03,0.18-0.12,0.35-0.35,0.33c-0.22-0.01-0.24-0.2-0.25-0.36 C96.9,38.35,97.06,38.29,97.2,38.23z"></path> <path class="st42" d="M84.37,45.34c0.15-0.01,0.19,0.13,0.2,0.29c0.02,0.19-0.06,0.32-0.27,0.32c-0.18,0-0.28-0.11-0.28-0.28 C84.02,45.48,84.11,45.35,84.37,45.34z"></path> <path class="st42" d="M84.17,46.9c-0.22,0.07-0.23-0.13-0.26-0.25c-0.03-0.16,0.05-0.31,0.23-0.29c0.18,0.02,0.33,0.14,0.35,0.33 C84.51,46.89,84.31,46.87,84.17,46.9z"></path> <path class="st42" d="M104.6,43.14c0.14-0.25-0.44-0.51,0-0.75c0.12-0.07,0.28-0.07,0.35,0.08 C105.12,42.81,104.75,42.92,104.6,43.14z"></path> <path class="st42" d="M111.86,35.8c-0.19-0.01-0.33-0.07-0.34-0.27c-0.01-0.19,0.1-0.3,0.29-0.31c0.19-0.01,0.32,0.09,0.33,0.27 C112.15,35.67,112.04,35.78,111.86,35.8z"></path> <path class="st42" d="M107.89,34.21c-0.14,0.3-0.26,0.54-0.6,0.55C107.19,34.24,107.31,34.12,107.89,34.21z"></path> <path class="st42" d="M97.35,38.09c-0.2,0-0.3-0.09-0.3-0.27c-0.01-0.19,0.08-0.32,0.27-0.33c0.19-0.01,0.3,0.11,0.31,0.3 C97.64,37.99,97.52,38.07,97.35,38.09z"></path> <path class="st42" d="M109.6,46.82c0.18,0.01,0.31,0.1,0.33,0.29c0.01,0.17-0.07,0.3-0.25,0.3c-0.2,0-0.34-0.12-0.36-0.32 C109.28,46.89,109.43,46.83,109.6,46.82z"></path> <path class="st42" d="M108.16,31.79c0.16,0.02,0.18,0.14,0.16,0.26c-0.03,0.22-0.14,0.4-0.38,0.42c-0.12,0.01-0.18-0.1-0.14-0.22 C107.87,32.06,107.92,31.85,108.16,31.79z"></path> <path class="st42" d="M85.04,43.75c-0.18-0.29-0.14-0.48,0.1-0.6c0.14-0.07,0.23,0.02,0.27,0.14 C85.51,43.6,85.22,43.61,85.04,43.75z"></path> <path class="st42" d="M111.04,35.69c-0.02,0.16-0.1,0.26-0.26,0.26c-0.2-0.01-0.33-0.12-0.32-0.34c0.01-0.15,0.09-0.27,0.24-0.26 C110.91,35.35,111.01,35.5,111.04,35.69z"></path> <path class="st42" d="M114.21,50.3c-0.49-0.2-0.76-0.4-0.59-0.9C113.94,49.59,114,49.92,114.21,50.3z"></path> <path class="st42" d="M105.08,28.85c0.18,0.02,0.27,0.13,0.27,0.26c0,0.14-0.09,0.25-0.25,0.25c-0.13,0-0.24-0.06-0.24-0.2 C104.84,29,104.95,28.91,105.08,28.85z"></path> <path class="st42" d="M116.09,47.49c-0.56,0.29-0.56,0.29-0.89-0.32C115.54,47.12,115.77,47.35,116.09,47.49z"></path> <path class="st42" d="M105.37,42.9c0.01,0.05,0.02,0.12,0.04,0.16c0.13,0.22-0.06,0.3-0.18,0.36c-0.18,0.09-0.32-0.06-0.38-0.2 c-0.08-0.18,0.1-0.26,0.22-0.31C105.16,42.88,105.28,42.91,105.37,42.9L105.37,42.9z"></path> <path class="st42" d="M85,42.43c0.18,0.02,0.28,0.11,0.29,0.29c0,0.16-0.11,0.25-0.25,0.26c-0.17,0-0.28-0.1-0.27-0.28 C84.77,42.54,84.85,42.45,85,42.43z"></path> <path class="st42" d="M111.46,37.26c0,0.2-0.07,0.33-0.26,0.3c-0.16-0.03-0.3-0.14-0.3-0.33c0-0.19,0.15-0.23,0.31-0.22 C111.41,37.01,111.48,37.11,111.46,37.26z"></path> <path class="st42" d="M105.96,34.77c0.2,0.05,0.24,0.21,0.25,0.38c0.01,0.12-0.02,0.26-0.18,0.25c-0.21-0.02-0.23-0.21-0.26-0.37 C105.75,34.9,105.81,34.8,105.96,34.77z"></path> <path class="st42" d="M85.53,45.34c-0.03,0.16-0.09,0.27-0.25,0.27c-0.15,0-0.25-0.09-0.24-0.25c0.01-0.14,0.09-0.26,0.24-0.27 C85.45,45.09,85.49,45.22,85.53,45.34z"></path> <path class="st42" d="M106.8,33.53c-0.01,0.02-0.04,0.05-0.04,0.07c0.03,0.15,0.12,0.32-0.07,0.43c-0.09,0.06-0.16-0.03-0.22-0.09 c-0.1-0.11-0.11-0.23-0.06-0.37C106.52,33.32,106.68,33.62,106.8,33.53L106.8,33.53z"></path> <path class="st42" d="M85.76,44.03c-0.15-0.02-0.26-0.08-0.27-0.24c0-0.17,0.09-0.27,0.26-0.28c0.13,0,0.23,0.07,0.24,0.2 C86.01,43.88,85.92,43.98,85.76,44.03z"></path> <path class="st42" d="M105.28,28.3c-0.04,0.15-0.11,0.24-0.28,0.23c-0.15-0.01-0.25-0.08-0.25-0.24c-0.01-0.19,0.14-0.2,0.27-0.22 C105.18,28.06,105.25,28.16,105.28,28.3z"></path> <path class="st42" d="M85.76,47.52c0.02,0.2-0.15,0.24-0.25,0.27c-0.15,0.03-0.22-0.1-0.23-0.25c-0.01-0.13,0.02-0.25,0.17-0.26 C85.61,47.27,85.72,47.37,85.76,47.52z"></path> <path class="st42" d="M88.34,53c-0.04,0.2-0.06,0.34-0.09,0.48c-0.03,0.12-0.13,0.15-0.24,0.15c-0.09,0-0.18-0.03-0.21-0.13 c-0.03-0.12,0.05-0.18,0.14-0.24C88.06,53.18,88.18,53.1,88.34,53z"></path> <path class="st42" d="M107.31,36.01c-0.2,0.08-0.29,0.43-0.62,0.24C106.79,35.87,107,35.8,107.31,36.01z"></path> <path class="st42" d="M106.54,34.88c-0.08-0.02-0.18-0.01-0.24-0.06c-0.14-0.11-0.17-0.28-0.11-0.44c0.03-0.09,0.12-0.16,0.21-0.12 c0.19,0.08,0.18,0.25,0.15,0.42C106.53,34.74,106.53,34.81,106.54,34.88C106.53,34.88,106.54,34.88,106.54,34.88z"></path> <path class="st42" d="M108.49,34.46c0.25-0.09,0.3-0.38,0.54-0.24c0.15,0.08,0.09,0.23,0,0.34 C108.86,34.76,108.73,34.63,108.49,34.46z"></path> <path class="st42" d="M116.65,45.98c-0.01-0.16-0.16-0.36,0.13-0.41c0.13-0.03,0.3,0.01,0.29,0.18 C117.06,45.99,116.88,46.03,116.65,45.98z"></path> <path class="st42" d="M103.88,27.52c-0.02,0.11-0.02,0.25-0.19,0.23c-0.15-0.01-0.25-0.11-0.25-0.26c0-0.14,0.09-0.21,0.23-0.21 C103.83,27.28,103.87,27.38,103.88,27.52z"></path> <path class="st42" d="M86.16,45.82c-0.01,0.14-0.09,0.21-0.23,0.21c-0.11,0-0.21-0.05-0.22-0.18c-0.01-0.14,0.07-0.23,0.2-0.25 C86.05,45.6,86.12,45.7,86.16,45.82z"></path> <path class="st42" d="M92.7,53.05c0,0.34,0,0.58,0,0.83C92.38,53.71,92.37,53.62,92.7,53.05z"></path> <path class="st42" d="M91.87,53.28c0,0.23-0.04,0.42-0.27,0.46c-0.04,0.01-0.12-0.05-0.12-0.09 C91.44,53.35,91.77,53.44,91.87,53.28z"></path> <path class="st42" d="M104.06,33.97c0.34,0.13,0.42,0.34,0.41,0.66C104.14,34.52,104,34.35,104.06,33.97z"></path> <path class="st42" d="M89.63,47.86c-0.21-0.06-0.52,0.06-0.55-0.24c-0.02-0.21,0.28-0.2,0.42,0.02 C89.54,47.71,89.59,47.79,89.63,47.86z"></path> <path class="st42" d="M117.45,44.55c-0.03,0.13-0.09,0.22-0.23,0.23c-0.14,0.01-0.23-0.07-0.23-0.21 c-0.01-0.14,0.09-0.22,0.22-0.23C117.34,44.34,117.43,44.41,117.45,44.55z"></path> <path class="st42" d="M110.29,35.01c0.09-0.16,0.21-0.26,0.39-0.12c0.08,0.06,0.07,0.17-0.01,0.24 C110.5,35.27,110.38,35.19,110.29,35.01z"></path> <path class="st42" d="M116.72,35.32c-0.01,0.14-0.09,0.22-0.23,0.19c-0.11-0.03-0.23-0.08-0.22-0.22c0.01-0.14,0.15-0.18,0.25-0.2 C116.66,35.07,116.72,35.18,116.72,35.32z"></path> <path class="st42" d="M116.62,40.99c0.01-0.13,0.07-0.22,0.21-0.23c0.12-0.01,0.24,0.04,0.25,0.18c0.01,0.16-0.1,0.24-0.24,0.26 C116.71,41.21,116.62,41.13,116.62,40.99z"></path> <path class="st42" d="M116,40.43c0.12,0.01,0.22,0.06,0.22,0.19c0,0.13-0.1,0.22-0.23,0.23c-0.11,0.01-0.21-0.07-0.21-0.19 C115.77,40.52,115.87,40.45,116,40.43z"></path> <path class="st42" d="M116.86,44.21c-0.03,0.16-0.12,0.24-0.24,0.25c-0.12,0.01-0.2-0.06-0.21-0.18c-0.01-0.14,0.09-0.21,0.22-0.22 C116.75,44.06,116.82,44.13,116.86,44.21z"></path> <path class="st42" d="M108.61,35.87c0.15,0.03,0.2,0.12,0.2,0.23c0,0.14-0.08,0.22-0.22,0.22c-0.12-0.01-0.18-0.1-0.18-0.21 C108.4,35.95,108.52,35.91,108.61,35.87z"></path> <path class="st42" d="M117.41,35.53c-0.01,0.13-0.06,0.22-0.18,0.23c-0.14,0.02-0.23-0.07-0.23-0.2c0-0.11,0.09-0.19,0.2-0.2 C117.32,35.35,117.38,35.44,117.41,35.53z"></path> <path class="st42" d="M106.81,33.54c-0.03-0.23-0.2-0.47,0.03-0.77C106.97,33.07,107.19,33.3,106.81,33.54 C106.8,33.53,106.81,33.54,106.81,33.54z"></path> <path class="st42" d="M112.42,50c0.18-0.15,0.32-0.12,0.41,0.02c0.05,0.08,0,0.17-0.1,0.21C112.52,50.29,112.48,50.14,112.42,50z"></path> <path class="st42" d="M116.17,44.54c-0.03,0.13-0.12,0.21-0.25,0.21c-0.11,0-0.2-0.08-0.19-0.2c0.01-0.13,0.1-0.21,0.24-0.21 C116.08,44.35,116.16,44.41,116.17,44.54z"></path> <path class="st42" d="M92.94,54.16c0.08,0.18,0.05,0.33-0.09,0.46C92.56,54.39,92.56,54.38,92.94,54.16z"></path> <path class="st42" d="M107.27,47.58c0.12-0.13-0.06-0.19-0.08-0.29c0.25-0.04,0.49-0.1,0.79,0.04c-0.26,0.07-0.43,0.2-0.61,0.33 C107.33,47.63,107.3,47.61,107.27,47.58z"></path> <path class="st42" d="M104.8,27.51c-0.03,0.13-0.11,0.22-0.24,0.21c-0.14-0.01-0.19-0.12-0.18-0.25c0.01-0.12,0.09-0.18,0.21-0.18 C104.72,27.29,104.78,27.37,104.8,27.51z"></path> <path class="st42" d="M103.15,28.06c-0.01,0.12-0.03,0.22-0.17,0.22c-0.12,0-0.19-0.08-0.2-0.2c0-0.12,0.05-0.21,0.17-0.22 C103.07,27.86,103.13,27.95,103.15,28.06z"></path> <path class="st42" d="M108.5,36.92c-0.14-0.01-0.21-0.09-0.22-0.2c-0.01-0.11,0.03-0.22,0.15-0.23c0.15-0.02,0.22,0.08,0.22,0.21 C108.67,36.81,108.59,36.88,108.5,36.92z"></path> <path class="st42" d="M117.18,36.76c0.12,0.03,0.17,0.1,0.16,0.22c-0.01,0.1-0.07,0.16-0.16,0.16c-0.12,0-0.19-0.08-0.19-0.19 C117,36.85,117.07,36.77,117.18,36.76z"></path> <path class="st42" d="M107.94,32.65c0.13,0.02,0.18,0.11,0.18,0.22c-0.01,0.12-0.09,0.22-0.22,0.22c-0.11,0-0.15-0.08-0.14-0.18 C107.77,32.79,107.8,32.68,107.94,32.65z"></path> <path class="st42" d="M117.48,45.2c-0.02,0.11-0.07,0.21-0.19,0.21c-0.1,0-0.17-0.07-0.18-0.17c-0.01-0.13,0.08-0.19,0.19-0.2 C117.4,45.03,117.46,45.09,117.48,45.2z"></path> <path class="st42" d="M108.73,35.32c0.25,0.11,0.25,0.26,0.14,0.41c-0.06,0.08-0.17,0.06-0.23-0.01 C108.5,35.55,108.66,35.46,108.73,35.32z"></path> <path class="st42" d="M116.16,45.48c0,0.01,0,0.03,0.01,0.04c0.12,0.14,0.11,0.26-0.05,0.36c-0.1,0.06-0.18,0.01-0.21-0.08 C115.84,45.57,116.02,45.54,116.16,45.48C116.17,45.49,116.16,45.48,116.16,45.48z"></path> <path class="st42" d="M117.06,36.2c-0.01,0.11-0.07,0.19-0.19,0.2c-0.13,0.01-0.19-0.07-0.19-0.19c0-0.12,0.07-0.19,0.19-0.2 C116.99,36.01,117.05,36.08,117.06,36.2z"></path> <path class="st42" d="M117.69,36.2c-0.02,0.11-0.07,0.2-0.19,0.2c-0.13,0.01-0.19-0.07-0.19-0.19c0-0.12,0.07-0.19,0.19-0.2 C117.62,36,117.67,36.08,117.69,36.2z"></path> <path class="st42" d="M107.36,47.66c-0.09,0.17-0.15,0.37-0.36,0.55c0-0.3,0.1-0.48,0.26-0.63 C107.3,47.61,107.33,47.63,107.36,47.66z"></path> <path class="st42" d="M97.36,49.61c-0.21,0.44-0.25,0.46-0.47,0.17c0.14-0.08,0.28-0.15,0.42-0.23 C97.32,49.57,97.34,49.59,97.36,49.61z"></path> <path class="st42" d="M111.68,37.9c-0.01,0.11-0.06,0.2-0.18,0.2c-0.11,0-0.17-0.06-0.17-0.15c0-0.11,0.03-0.2,0.17-0.2 C111.6,37.74,111.65,37.8,111.68,37.9z"></path> <path class="st42" d="M117.47,41.6c-0.03,0.11-0.1,0.18-0.22,0.17c-0.09-0.01-0.16-0.07-0.15-0.18c0.02-0.11,0.09-0.19,0.21-0.17 C117.41,41.43,117.47,41.49,117.47,41.6z"></path> <path class="st42" d="M99.6,29.39c0.04-0.09,0.1-0.15,0.19-0.19c0.02,0.02,0.05,0.05,0.07,0.07c-0.06,0.06-0.13,0.11-0.19,0.17 C99.65,29.42,99.62,29.4,99.6,29.39z"></path> <path class="st42" d="M108.48,47.58c-0.01,0.04-0.02,0.06-0.03,0.08c-0.03-0.02-0.07-0.04-0.1-0.06c0.01-0.02,0.02-0.06,0.03-0.06 C108.42,47.56,108.45,47.57,108.48,47.58z"></path> <path class="st42" d="M98.76,37c0.02-0.08,0.07-0.11,0.14-0.13c0.02,0.02,0.04,0.05,0.06,0.07c-0.05,0.05-0.09,0.09-0.14,0.14 C98.8,37.05,98.78,37.03,98.76,37z"></path> <path class="st42" d="M99.53,29.47c0.02-0.03,0.05-0.06,0.07-0.09c0.02,0.02,0.05,0.03,0.07,0.05c-0.03,0.03-0.06,0.06-0.09,0.09 C99.56,29.51,99.54,29.49,99.53,29.47z"></path> <path class="st42" d="M112.66,46.15c-0.01-0.03-0.02-0.06-0.03-0.09c0.03,0.01,0.06,0.03,0.08,0.04 C112.69,46.12,112.68,46.13,112.66,46.15z"></path> <path class="st42" d="M98.67,37.1c0.03-0.03,0.06-0.06,0.08-0.1c0.02,0.03,0.04,0.05,0.07,0.08c-0.03,0.03-0.05,0.05-0.08,0.08 C98.72,37.14,98.7,37.12,98.67,37.1z"></path> </g> <g> <g> <path class="st42" d="M133.58,61.64c1.32,0.04,2.62-0.13,3.9,0.12c1.67,0.32,2.44,1.6,1.93,3.09c-0.19,0.55-0.62,0.86-1.08,1.13 c0.13,0.23,0.32,0.21,0.47,0.27c1.06,0.45,1.6,1.21,1.55,2.21c-0.05,1.06-0.71,1.91-1.73,2.24c-0.69,0.22-1.4,0.28-2.12,0.27 c-0.92,0-1.85-0.01-2.77-0.01c-0.04,0-0.07-0.03-0.14-0.06C133.58,67.85,133.58,64.77,133.58,61.64z M135.13,66.43 c0,1.33,0,2.6,0,3.95c1.09-0.12,2.27,0.24,3.01-0.89c0.48-0.73,0.47-1.57,0-2.27C137.4,66.15,136.23,66.44,135.13,66.43z M135.12,62.14c0,1.29,0,2.48,0,3.72c0.89-0.08,1.85,0.13,2.4-0.79c0.44-0.72,0.43-1.52-0.03-2.21 C136.93,62.02,136.02,62.13,135.12,62.14z"></path> <path class="st42" d="M40.93,70.96c-0.35,0-0.59,0-0.88,0c0-3.1,0-6.17,0-9.26c0.8-0.17,1.39-0.06,1.96,0.66 c1.57,1.97,3.23,3.86,4.97,5.91c0-2.28,0-4.42,0-6.55c0.35-0.11,0.62-0.1,0.91-0.03c0,3.07,0,6.13,0,9.22 c-0.4,0.18-0.66,0.03-0.94-0.3c-1.84-2.24-3.71-4.45-5.57-6.68c-0.12-0.14-0.24-0.26-0.46-0.49 C40.93,66.01,40.93,68.45,40.93,70.96z"></path> <path class="st42" d="M84.33,70.89c-0.95,0.29-1.53-0.05-2.08-0.72c-0.91-1.1-1.91-2.12-2.85-3.19c-0.3-0.34-0.61-0.49-1.09-0.34 c0,1.4,0,2.82,0,4.25c-0.49,0.15-0.95,0.06-1.45,0.07c0-3.11,0-6.2,0-9.34c1.4,0.09,2.79-0.19,4.15,0.18 c1.25,0.34,1.94,1.15,1.95,2.17c0.01,1.09-0.65,1.85-1.92,2.26c-0.21,0.07-0.47,0.05-0.7,0.28 C81.67,67.96,82.98,69.41,84.33,70.89z M78.27,66.03c1.04-0.06,2.09,0.14,2.67-0.88c0.43-0.75,0.41-1.62-0.12-2.33 c-0.63-0.84-1.59-0.64-2.51-0.64c-0.02,0.15-0.04,0.25-0.04,0.35C78.27,63.68,78.27,64.81,78.27,66.03z"></path> <path class="st42" d="M99.96,70.96c-0.53,0-0.97,0-1.46,0c0-3.09,0-6.17,0-9.33c1.4,0.07,2.83-0.2,4.23,0.19 c1.19,0.33,1.89,1.16,1.91,2.15c0.02,1.03-0.67,1.84-1.89,2.23c-0.24,0.08-0.48,0.15-0.8,0.25c1.36,1.5,2.68,2.95,4.06,4.46 c-0.75,0.11-1.35,0.16-1.89-0.49c-0.97-1.18-2.05-2.28-3.07-3.43c-0.3-0.34-0.6-0.51-1.09-0.33 C99.96,68.06,99.96,69.48,99.96,70.96z M99.93,66.01c0.36,0,0.63,0.01,0.9,0c1.93-0.08,2.2-1.26,1.91-2.64 c-0.19-0.89-1.71-1.55-2.6-1.19c-0.18,0.07-0.2,0.2-0.2,0.35C99.93,63.66,99.93,64.8,99.93,66.01z"></path> <path class="st42" d="M117.34,66.75c0,1.43,0,2.79,0,4.19c-0.52,0.06-0.99,0.06-1.48,0c0-3.11,0-6.19,0-9.34 c1.42,0.08,2.81-0.1,4.18,0.16c1.35,0.25,2.17,1.21,2.15,2.41c-0.03,1.3-0.82,2.18-2.19,2.44 C119.15,66.77,118.29,66.66,117.34,66.75z M117.37,66.18c1.06-0.1,2.17,0.13,2.77-0.96c0.43-0.77,0.42-1.63-0.1-2.33 c-0.66-0.9-1.68-0.76-2.67-0.74C117.37,63.5,117.37,64.79,117.37,66.18z"></path> <path class="st42" d="M87.34,62.5c0,1.13,0,2.2,0,3.34c1.09,0,2.17,0,3.23,0c0.1,0.33,0.09,0.57,0.03,0.89c-1.06,0-2.12,0-3.24,0 c0,1.14,0,2.22,0,3.36c1.41,0,2.81,0,4.18,0c0.2,0.3,0.11,0.55,0.11,0.84c-1.91,0-3.81,0-5.76,0c0-3.05,0-6.13,0-9.25 c1.76,0,3.53,0,5.34,0c0.13,0.23,0.07,0.49,0.02,0.82C89.95,62.5,88.66,62.5,87.34,62.5z"></path> <path class="st42" d="M130.54,61.66c0.32,0,0.57,0,0.89,0c0,0.74,0,1.47,0,2.2c0,1.24-0.05,2.48-0.01,3.72 c0.07,2.21-1.27,3.06-2.88,3.33c-1.2,0.2-2.39,0.11-3.49-0.48c-0.73-0.39-1.24-0.99-1.31-1.81c-0.2-2.3-0.04-4.61-0.1-6.94 c0.5,0,0.94,0,1.38,0c0.16,0.2,0.08,0.44,0.08,0.66c0.01,1.83,0,3.66,0.03,5.48c0.03,1.37,0.49,1.97,1.75,2.34 c1.11,0.32,2.13,0.07,3-0.68c0.47-0.4,0.65-0.96,0.65-1.58c0-1.85,0.01-3.7,0.01-5.55C130.54,62.14,130.54,61.93,130.54,61.66z"></path> <path class="st42" d="M73.99,61.67c0.3,0,0.54,0,0.81,0c0.14,0.31,0.06,0.65,0.06,0.97c0.01,1.6,0.01,3.19,0,4.79 c0,2.09-0.89,3.15-2.95,3.47c-1.16,0.18-2.31,0.1-3.37-0.46c-0.73-0.38-1.28-0.95-1.35-1.78c-0.21-2.32-0.04-4.65-0.1-7.01 c0.5,0,0.94,0,1.38,0c0.15,0.21,0.08,0.45,0.08,0.67c0.01,1.91-0.02,3.83,0.04,5.74c0.04,1.37,1.02,2.17,2.54,2.2 c1.46,0.03,2.66-0.84,2.81-2.09c0.06-0.5,0.05-1.01,0.05-1.51C74,65.02,73.99,63.36,73.99,61.67z"></path> <path class="st42" d="M107.84,61.66c1.82,0,3.6,0,5.4,0c0.08,0.27,0.05,0.51,0.01,0.83c-1.31,0-2.6,0-3.93,0c0,1.16,0,2.24,0,3.39 c1.1,0,2.16,0,3.24,0c0,0.29,0,0.52,0,0.82c-1.07,0-2.13,0-3.23,0c0,1.15,0,2.23,0,3.38c1.41,0,2.83,0,4.23,0 c0.12,0.33,0.12,0.59,0.03,0.88c-1.91,0-3.81,0-5.76,0C107.84,67.87,107.84,64.79,107.84,61.66z"></path> <path class="st42" d="M58.15,70.93c-0.1,0.02-0.14,0.04-0.18,0.04c-1.27,0.05-1.27,0.05-1.75-1.11c-0.29-0.7-0.57-1.4-0.86-2.1 c-0.02-0.06-0.07-0.1-0.13-0.18c-0.97,0-1.96,0.01-2.94-0.01c-0.34-0.01-0.42,0.19-0.52,0.43c-0.3,0.74-0.66,1.46-0.9,2.22 c-0.22,0.72-0.64,0.91-1.36,0.7c0.59-1.38,1.19-2.76,1.79-4.14c0.69-1.58,1.38-3.15,2.07-4.73c0.09-0.2,0.14-0.43,0.46-0.41 c0.27,0.01,0.41,0.09,0.52,0.34c1.23,2.88,2.46,5.75,3.7,8.62C58.09,70.69,58.11,70.79,58.15,70.93z M53.63,63.53 c-0.46,1.12-0.87,2.09-1.3,3.13c0.9,0,1.7,0,2.57,0C54.49,65.65,54.1,64.68,53.63,63.53z"></path> <path class="st42" d="M61,62.52c-1.19,0-2.28,0-3.37,0c-0.08-0.3-0.08-0.56-0.01-0.85c2.71,0,5.41,0,8.13,0c0,0.28,0,0.52,0,0.85 c-1.1,0-2.2,0-3.35,0c0,2.84,0,5.61,0,8.39c-0.48,0.13-0.91,0.05-1.41,0.06C61,68.17,61,65.39,61,62.52z"></path> <path class="st42" d="M159.86,68.97c0.21,0.63,0.01,1.01-0.5,1.3c-1.59,0.89-3.21,1.01-4.78,0.04c-1.7-1.05-2.3-2.67-2.05-4.61 c0.21-1.59,0.97-2.84,2.41-3.63c1.4-0.77,3.44-0.6,4.71,0.38c0.39,0.29,0.25,0.64,0.25,1.14c-0.55-0.7-1.17-1.11-1.91-1.3 c-1.69-0.44-3.15,0.31-3.71,1.95c-0.36,1.05-0.41,2.14-0.22,3.23c0.23,1.34,0.91,2.38,2.27,2.74 C157.72,70.56,158.92,70.18,159.86,68.97z"></path> <path class="st42" d="M142.3,61.66c0.5,0,0.93,0,1.44,0c0,2.8,0,5.58,0,8.42c1.43,0,2.78,0,4.13,0c0.11,0.3,0.07,0.55,0.04,0.85 c-1.86,0-3.71,0-5.62,0C142.3,67.87,142.3,64.8,142.3,61.66z"></path> <path class="st42" d="M150.95,70.95c-0.47,0-0.9,0-1.36,0c0-3.1,0-6.18,0-9.28c0.46,0,0.89,0,1.36,0 C150.95,64.75,150.95,67.82,150.95,70.95z"></path> </g> </g> </svg> 