<?xml version="1.0" encoding="UTF-8"?> <svg xmlns="http://www.w3.org/2000/svg" xmlns:xlink="http://www.w3.org/1999/xlink" version="1.0" id="Layer_1" x="0px" y="0px" viewBox="0 0 200 100" style="enable-background:new 0 0 200 100;" xml:space="preserve"> <style type="text/css"> .st0{fill:#AC5366;} .st1{fill:#232174;} .st2{fill:#231F20;} .st3{fill:#28CBD2;} .st4{fill:#242021;} .st5{fill:#EF9BC1;} .st6{fill:#E9B7F0;} .st7{fill:#070707;} .st8{fill:#736357;} .st9{fill:#59555D;} .st10{fill:#0A0707;} .st11{fill:#010101;} .st12{fill:#0A0C0C;} .st13{fill:#57D0F3;} .st14{fill:#FFFFFF;} .st15{fill:#2D70AF;} .st16{fill:#302F2E;} .st17{fill:#08944E;} .st18{fill:#D8176E;} .st19{fill:#080808;} .st20{fill:#E6623C;} .st21{fill:#0B0A0B;} .st22{fill:#0C0F46;} .st23{fill:#9E005D;} .st24{fill:#4A3A2B;} .st25{fill:#AEA49C;} .st26{fill:#4E4644;} .st27{fill:#036434;} .st28{fill:#3F3A35;} .st29{fill:#919B3F;} .st30{fill:#0F0606;} .st31{fill:#282C96;} .st32{fill:#F2863B;} .st33{fill:#70A2D6;} .st34{fill:#7096D6;} .st35{fill:#4A4745;} .st36{fill:none;} .st37{fill:#020202;} .st38{fill:#991C32;} .st39{fill:#F48888;} .st40{fill:#6AAAAA;} .st41{fill:#112263;} .st42{fill:#627F31;} .st43{fill:#02146F;} .st44{fill:url(#XMLID_00000063609088333427588850000005474854280994310034_);} .st45{fill:url(#XMLID_00000094594917115660399550000015873856652254766996_);} .st46{fill-rule:evenodd;clip-rule:evenodd;fill:url(#SVGID_1_);} .st47{fill-rule:evenodd;clip-rule:evenodd;fill:url(#SVGID_00000018236080681722201460000009909304694427245709_);} .st48{fill-rule:evenodd;clip-rule:evenodd;fill:url(#SVGID_00000148651413193867926720000008488099434598300604_);} .st49{fill:url(#SVGID_00000159433614990636360420000003742117153995121331_);} .st50{fill:url(#SVGID_00000090260297802964761010000005028500201336408475_);} .st51{fill:url(#SVGID_00000102522318346197269090000012304172648665306532_);} .st52{fill:url(#SVGID_00000124844357775175805310000014273071167402496389_);} .st53{fill:url(#SVGID_00000002368278978904900130000004023885433771516050_);} .st54{fill:url(#SVGID_00000005234128762561931920000013366099531044571014_);} .st55{fill:url(#SVGID_00000098910800288976725370000005925591706680262278_);} .st56{fill:url(#SVGID_00000177449326756171527620000014690205454742232766_);} .st57{fill:url(#SVGID_00000067920782266690327180000018408328302704585360_);} .st58{fill:url(#SVGID_00000087413263724015135690000011704970829895475098_);} .st59{fill:url(#SVGID_00000167358512840424775360000009786940859842298527_);} .st60{fill:url(#SVGID_00000101807685164713228230000014536385457443878049_);} .st61{fill:url(#SVGID_00000149363647599832460270000012928096886043858623_);} .st62{fill:url(#SVGID_00000002359920055420730030000014960838241736587959_);} .st63{fill:url(#SVGID_00000099646975689811920210000001166979167206169791_);} .st64{fill:url(#SVGID_00000116922682816759727390000017761016653075908497_);} .st65{fill:url(#SVGID_00000068664629151993391580000018077693038478888111_);} .st66{fill:url(#SVGID_00000138543163947158306980000017300403494160267958_);} .st67{fill:url(#SVGID_00000102508723981231726690000016730043623082729089_);} .st68{fill:url(#SVGID_00000155837723881728524310000013671443038426501273_);} .st69{fill:url(#SVGID_00000122716689203405388680000009942733012988581791_);} .st70{fill:url(#SVGID_00000139256547156128924110000011199413506163941273_);} .st71{fill:url(#SVGID_00000171686101972915121350000002631019170731158681_);} .st72{fill:url(#SVGID_00000126284026035167717450000002643428860178159528_);} .st73{fill:url(#SVGID_00000098907403236535962620000017271155383375927995_);} .st74{fill:url(#SVGID_00000052790418287381228990000011000931711619551885_);} .st75{fill:url(#SVGID_00000080196397609962140400000017056717377442626735_);} .st76{fill:url(#SVGID_00000093159710759764245230000015789601906094115206_);} .st77{fill:url(#SVGID_00000109723510644199526610000003241947045035310992_);} .st78{fill:url(#SVGID_00000178897268731406453280000012242973906090865803_);} .st79{fill:url(#SVGID_00000053505638713459715180000003914382752647202233_);} .st80{fill:url(#SVGID_00000158028228239481039120000002782029272809953694_);} .st81{fill:url(#SVGID_00000082333729446481493370000003369436097863147429_);} .st82{fill:url(#SVGID_00000116214923571542158050000009408842657963491747_);} .st83{fill:url(#SVGID_00000135661245387906803480000018168651537079965588_);} .st84{fill:url(#SVGID_00000002356727012743702000000010092247807034068352_);} .st85{fill:url(#SVGID_00000040574407447314701140000006242919332528535438_);} .st86{fill:url(#SVGID_00000173883789279435057590000016632937352529049482_);} .st87{fill:#251A17;} .st88{fill:url(#SVGID_00000057136067622675366050000018225461175192290989_);} .st89{fill:url(#SVGID_00000025427983201516526540000010916378161268408718_);} .st90{fill:url(#SVGID_00000155137715697891469460000014908569717697092794_);} .st91{fill:url(#SVGID_00000168804258020491215910000012416853884873203364_);} .st92{fill:#006750;} .st93{fill:#050505;} .st94{fill:#262223;} .st95{fill:#40A448;} .st96{fill:#3FA9F5;} .st97{fill:#611417;} .st98{fill:#0D0B0E;} .st99{fill:#B51310;} .st100{fill:#040404;} .st101{fill:#141414;} .st102{fill:#171717;} .st103{fill:#212121;} .st104{fill:#0B0B0B;} .st105{fill:#0A0A0A;} .st106{fill:#1B1B1B;} .st107{fill:#CE3C78;} .st108{fill:#874630;} .st109{fill:#0972BA;} .st110{fill:#103554;} </style> <g> <g> <g> <path class="st92" d="M76.06,57.51c0-4.85,0-9.64,0-14.42c-0.58,0.56-1.15,1.08-1.68,1.63c-1.39,1.44-2.76,2.9-4.13,4.36 c-0.48,0.51-0.5,0.51-0.98,0.02c-1.96-1.97-3.92-3.93-5.89-5.91c-0.06,0.05,0.02,0.21,0.02,0.35c0.02,4.97,0.05,9.94,0.08,14.92 c0,0.4-0.01,0.69-0.54,0.67c-0.94-0.03-0.94-0.01-0.95-0.68c-0.03-5.65-0.06-11.31-0.09-16.96c0-0.26-0.15-0.6,0.19-0.78 c0.28-0.15,1.14,0,1.36,0.21c1.21,1.24,2.41,2.49,3.62,3.73c0.88,0.9,1.77,1.79,2.68,2.71c0.17-0.05,0.27-0.24,0.4-0.38 c1.94-2.04,3.87-4.08,5.8-6.12c0.22-0.23,1.14-0.39,1.4-0.23c0.22,0.13,0.17,0.35,0.17,0.55c0.01,1.96,0.02,3.92,0.03,5.87 c0.02,3.76,0.04,7.53,0.06,11.29c0,0.69,0,0.69-0.66,0.69c-3.56,0.02-7.11,0.04-10.67,0.05c-0.22,0-0.54,0.09-0.6-0.21 c-0.08-0.39-0.15-0.81,0.04-1.19c0.09-0.18,0.3-0.11,0.46-0.11c3.04-0.03,6.08-0.05,9.12-0.07 C75.57,57.51,75.83,57.51,76.06,57.51z"></path> <path class="st92" d="M159.69,47.06c2.05-2.16,4.08-4.31,6.12-6.46c0.3-0.32,1.03-0.48,1.42-0.34c0.28,0.11,0.21,0.35,0.22,0.56 c0.03,3.18,0.05,6.37,0.07,9.55c0.01,2.57,0.01,5.14,0.03,7.71c0,0.47-0.13,0.62-0.59,0.62c-3.57-0.01-7.15,0.01-10.72,0.02 c-0.23,0-0.57,0.11-0.63-0.23c-0.07-0.37-0.13-0.79,0.05-1.15c0.11-0.21,0.37-0.12,0.56-0.12c2.99-0.03,5.98-0.05,8.97-0.07 c0.28,0,0.56,0,0.81,0c0-4.84,0-9.63,0-14.37c-0.69,0.66-1.38,1.28-2.03,1.96c-1.26,1.3-2.5,2.64-3.75,3.96 c-0.51,0.54-0.51,0.53-1.05-0.01c-1.94-1.94-3.87-3.88-5.84-5.84c-0.06,0.04,0.02,0.21,0.02,0.34c0.02,4.96,0.04,9.91,0.06,14.87 c0,0.35,0.11,0.74-0.47,0.73c-0.94-0.01-0.99-0.02-0.99-0.75c-0.03-4.84-0.05-9.67-0.07-14.51c0-0.9,0-1.81-0.02-2.71 c-0.01-0.38,0.13-0.49,0.49-0.52c0.56-0.05,0.95,0.13,1.35,0.55c1.91,2.02,3.85,4,5.78,5.99 C159.53,46.92,159.6,46.99,159.69,47.06z"></path> <path class="st92" d="M119.76,49.27c1.41,0.69,2.35,1.72,2.69,3.26c0.58,2.63-0.7,4.91-3.27,5.86c-1.14,0.42-2.32,0.58-3.52,0.6 c-1.45,0.03-2.89,0-4.34,0.03c-0.47,0.01-0.59-0.16-0.59-0.62c-0.01-4.83-0.04-9.67-0.07-14.5c0-0.95,0-1.91-0.01-2.86 c0-0.27,0.04-0.48,0.37-0.48c2.06,0,4.12-0.17,6.16,0.26c0.98,0.21,1.9,0.58,2.72,1.21C122.1,43.72,122.13,47.54,119.76,49.27z M112.18,42.12c0,5.14,0,10.23,0,15.32c1.31,0,2.55,0.04,3.79-0.01c1.3-0.06,2.56-0.35,3.7-1.06c0.75-0.47,1.24-1.12,1.37-2.02 c0.24-1.63-0.64-3.22-2.18-3.9c-0.55-0.24-1.12-0.42-1.68-0.62c-0.18-0.06-0.37-0.11-0.39-0.33c-0.03-0.23,0.16-0.31,0.32-0.4 c0.41-0.22,0.82-0.44,1.22-0.68c1.16-0.71,1.82-1.71,1.71-3.15c-0.1-1.32-0.93-2.03-2.04-2.5 C116.11,41.96,114.14,42.1,112.18,42.12z"></path> <path class="st92" d="M56.71,50.16c-0.04,1.65-0.16,3.37-0.67,5.04c-0.78,2.52-2.49,3.85-4.98,4.2c-1.41,0.2-2.81,0.15-4.19-0.26 c-2.11-0.61-3.33-2.12-3.88-4.2c-0.86-3.3-0.88-6.63-0.03-9.93c0.69-2.69,2.47-4.14,5.13-4.49c1.53-0.2,3.05-0.13,4.52,0.41 c2.09,0.76,3.1,2.44,3.61,4.52C56.59,46.97,56.68,48.52,56.71,50.16z M43.84,49.64c0,1.65,0.09,3.04,0.4,4.41 c0.47,2.05,1.59,3.46,3.71,3.8c0.87,0.14,1.75,0.16,2.63,0.06c2.29-0.25,3.65-1.33,4.18-3.63c0.68-2.91,0.65-5.84-0.06-8.74 c-0.48-1.95-1.7-3.15-3.68-3.46c-1.01-0.15-2.02-0.15-3.03,0.01c-1.95,0.3-3.14,1.48-3.67,3.4 C43.93,46.93,43.86,48.41,43.84,49.64z"></path> <path class="st92" d="M94.16,43.18c-0.72-0.8-1.6-1.13-2.54-1.3c-1.1-0.2-2.22-0.2-3.32,0c-2.07,0.38-3.21,1.75-3.63,3.77 c-0.56,2.71-0.57,5.45,0.03,8.16c0.57,2.58,1.95,3.73,4.54,3.89c1.25,0.08,2.49,0.01,3.67-0.5c0.54-0.24,1.03-0.56,1.39-1.04 c0.25-0.34,0.46-0.3,0.73-0.04c0.74,0.69,0.75,0.72,0.01,1.45c-0.8,0.78-1.78,1.23-2.85,1.47c-1.53,0.33-3.07,0.34-4.59-0.03 c-2.13-0.52-3.5-1.91-4.09-4.03c-0.98-3.48-1-6.99-0.03-10.47c0.65-2.34,2.25-3.7,4.59-4.12c1.71-0.31,3.41-0.26,5.06,0.35 c1.18,0.44,2.1,1.2,2.76,2.31c0.18,0.3,0.17,0.5-0.11,0.74c-2.3,2.01-4.58,4.04-6.87,6.06c-0.21,0.19-1.67,0.34-1.87,0.18 c-0.28-0.23-0.14-0.43,0.08-0.62c0.72-0.63,1.44-1.26,2.16-1.9c1.53-1.34,3.05-2.68,4.58-4.02 C93.95,43.39,94.04,43.3,94.16,43.18z"></path> <path class="st92" d="M132.78,50.71c1.77-2.94,3.49-5.81,5.25-8.74c-1.44,0-2.81-0.01-4.18,0c-1.3,0.01-2.59,0.01-3.89,0.04 c-0.45,0.01-0.71-0.12-0.64-0.64c0.02-0.12,0.01-0.24,0-0.36c-0.05-0.43,0.13-0.56,0.54-0.56c2.24,0,4.49-0.03,6.73-0.05 c1.08-0.01,2.16-0.01,3.24-0.01c0.19,0,0.42-0.08,0.54,0.14c0.13,0.24-0.04,0.42-0.15,0.6c-2.16,3.72-4.33,7.44-6.5,11.16 c-0.15,0.26-0.22,0.51-0.21,0.81c0.02,2.01,0.03,4.02,0.03,6.03c0,0.66-0.01,0.67-0.63,0.67c-0.83,0-0.83,0-0.84-0.87 c-0.01-1.97-0.04-3.95-0.04-5.92c0-0.34-0.14-0.58-0.29-0.84c-2.14-3.64-4.28-7.28-6.41-10.92c-0.11-0.19-0.3-0.37-0.19-0.6 c0.13-0.28,0.41-0.14,0.63-0.18c0.83-0.17,1.28,0.2,1.7,0.96C129.19,44.54,130.98,47.58,132.78,50.71z"></path> <path class="st92" d="M31.78,40.49c1.41,0.01,2.67,0.16,3.85,0.72c0.49,0.23,0.92,0.53,1.31,0.91c0.23,0.22,0.25,0.42,0.03,0.65 c-0.05,0.05-0.09,0.1-0.13,0.15c-0.52,0.6-0.51,0.6-1.16,0.11c-0.76-0.57-1.63-0.83-2.55-0.93c-1.2-0.13-2.39-0.14-3.55,0.24 c-1.26,0.42-1.92,1.32-2.07,2.65c-0.15,1.28,0.29,2.25,1.38,2.93c0.89,0.56,1.86,0.88,2.85,1.17c1,0.29,2,0.6,3,0.91 c0.59,0.19,1.12,0.49,1.64,0.84c1.51,1.02,2.2,2.46,2.05,4.3c-0.16,1.89-1.21,3.17-2.87,3.83c-2.73,1.08-5.49,0.98-8.21-0.12 c-0.42-0.17-0.78-0.44-1.12-0.75c-0.26-0.23-0.32-0.46-0.05-0.73c0.1-0.09,0.19-0.19,0.26-0.31c0.25-0.38,0.49-0.4,0.85-0.09 c0.71,0.63,1.59,0.9,2.5,1.04c1.51,0.23,3.01,0.18,4.49-0.26c0.71-0.21,1.34-0.59,1.86-1.13c1.18-1.23,1.08-3.08-0.24-4.17 c-0.78-0.64-1.66-1.05-2.61-1.33c-1.13-0.34-2.26-0.67-3.38-1.02c-0.87-0.27-1.62-0.74-2.36-1.29c-2.27-1.67-2.05-6.09,0.65-7.51 C29.37,40.71,30.6,40.45,31.78,40.49z"></path> <path class="st92" d="M175,49.43c0,2.86,0,5.72,0,8.58c0,0.62-0.03,0.65-0.65,0.65c-0.08,0-0.17-0.01-0.25,0 c-0.43,0.05-0.59-0.13-0.59-0.58c0.01-1.94,0-3.88-0.01-5.82c-0.02-3.8-0.05-7.59-0.07-11.39c0-0.23-0.07-0.56,0.2-0.63 c0.38-0.09,0.8-0.13,1.17,0.04c0.19,0.09,0.12,0.34,0.12,0.52c0,2.88,0,5.75,0,8.63C174.94,49.43,174.97,49.43,175,49.43z"></path> </g> </g> </g> </svg> 