<?xml version="1.0" encoding="UTF-8"?> <svg xmlns="http://www.w3.org/2000/svg" xmlns:xlink="http://www.w3.org/1999/xlink" version="1.1" id="Layer_1" x="0px" y="0px" viewBox="0 0 200 100" style="enable-background:new 0 0 200 100;" xml:space="preserve"> <style type="text/css"> .st0{fill:#AC5366;} .st1{fill:#232174;} .st2{fill:#231F20;} .st3{fill:#28CBD2;} .st4{fill:#242021;} .st5{fill:#EF9BC1;} .st6{fill:#E9B7F0;} .st7{fill:#070707;} .st8{fill:#736357;} .st9{fill:#59555D;} .st10{fill:#0A0707;} .st11{fill:#010101;} .st12{fill:#0A0C0C;} .st13{fill:#57D0F3;} .st14{fill:#FFFFFF;} .st15{fill:#2D70AF;} .st16{fill:#302F2E;} .st17{fill:#08944E;} .st18{fill:#D8176E;} .st19{fill:#080808;} .st20{fill:#E6623C;} .st21{fill:#0B0A0B;} .st22{fill:#0C0F46;} .st23{fill:#9E005D;} .st24{fill:#4A3A2B;} .st25{fill:#AEA49C;} .st26{fill:#4E4644;} .st27{fill:#036434;} .st28{fill:#3F3A35;} .st29{fill:#919B3F;} .st30{fill:#0F0606;} .st31{fill:#282C96;} .st32{fill:#F2863B;} .st33{fill:#70A2D6;} .st34{fill:#7096D6;} .st35{fill:#4A4745;} .st36{fill:none;} .st37{fill:#020202;} .st38{fill:#991C32;} .st39{fill:#F48888;} .st40{fill:#6AAAAA;} .st41{fill:#112263;} .st42{fill:#627F31;} .st43{fill:#02146F;} .st44{fill:url(#XMLID_00000037662629864502239470000018035424101766611341_);} .st45{fill:url(#XMLID_00000006700405138631061890000007937165276134860966_);} .st46{fill-rule:evenodd;clip-rule:evenodd;fill:url(#SVGID_1_);} .st47{fill-rule:evenodd;clip-rule:evenodd;fill:url(#SVGID_00000170978357558619234780000003578972374321544588_);} .st48{fill-rule:evenodd;clip-rule:evenodd;fill:url(#SVGID_00000050647274160044214130000005292246457437852348_);} .st49{fill:url(#SVGID_00000119829690118411915930000000312767368822862497_);} .st50{fill:url(#SVGID_00000177475317980584555910000015067467564699748017_);} .st51{fill:url(#SVGID_00000096017119741959486080000018085968108725310359_);} .st52{fill:url(#SVGID_00000102517760959366622960000008865626397756756123_);} .st53{fill:url(#SVGID_00000036945481998661487740000011215673674413525147_);} .st54{fill:url(#SVGID_00000009562143879161912270000011351101085090515386_);} .st55{fill:url(#SVGID_00000078010912232240181360000002509224193678865564_);} .st56{fill:url(#SVGID_00000132054269976760989710000001492869225089277092_);} .st57{fill:url(#SVGID_00000121971098909096790540000018173774395625282945_);} .st58{fill:url(#SVGID_00000035530048571069882780000017986399961205435065_);} .st59{fill:url(#SVGID_00000114063668238804998080000009419316634435687347_);} .st60{fill:url(#SVGID_00000058577571818149519130000002561459210401678747_);} .st61{fill:url(#SVGID_00000008114855987519780830000010038205166448814468_);} .st62{fill:url(#SVGID_00000144321960427004988440000017595956879116668065_);} .st63{fill:url(#SVGID_00000119829296270260744580000009407012221364816524_);} .st64{fill:url(#SVGID_00000039114500847279504620000017863750498674710424_);} .st65{fill:url(#SVGID_00000012441154360035780680000004872337430179633065_);} .st66{fill:url(#SVGID_00000164490413261852438830000010083197381585089213_);} .st67{fill:url(#SVGID_00000135686027280556637920000015724422096351126172_);} .st68{fill:url(#SVGID_00000171716651128672448470000008404219098037026230_);} .st69{fill:url(#SVGID_00000071529216740306431480000004030173668491979933_);} .st70{fill:url(#SVGID_00000005244890169867039930000014414675264618273418_);} .st71{fill:url(#SVGID_00000112590712284345145440000006030518329774689459_);} .st72{fill:url(#SVGID_00000101817495571673987920000008353352232720562853_);} .st73{fill:url(#SVGID_00000022518405141171781690000001389733811468921004_);} .st74{fill:url(#SVGID_00000016791202067918108650000017461287834617005229_);} .st75{fill:url(#SVGID_00000098914242604627664970000001391098411146496402_);} .st76{fill:url(#SVGID_00000013878204137509505340000010048147953500959921_);} .st77{fill:url(#SVGID_00000051355401176614182710000009413859506726761089_);} .st78{fill:url(#SVGID_00000062895237816353315750000007483902214810274196_);} .st79{fill:url(#SVGID_00000011014633530660539460000012318603950641711283_);} .st80{fill:url(#SVGID_00000047768336508955405500000008626861501567465111_);} .st81{fill:url(#SVGID_00000173841443328575419820000007217496918820497077_);} .st82{fill:url(#SVGID_00000093156518590770668950000006009266434634827138_);} .st83{fill:url(#SVGID_00000183222177593606224230000015964181364087309751_);} .st84{fill:url(#SVGID_00000119829328050703205210000012261345168898576309_);} .st85{fill:url(#SVGID_00000160880035811250203600000015202084537181311366_);} .st86{fill:url(#SVGID_00000124864384405216765310000009162154534967467943_);} .st87{fill:#251A17;} .st88{fill:url(#SVGID_00000137853367851066514910000016200907438957208971_);} .st89{fill:url(#SVGID_00000130614411925098606460000015972892396250452884_);} .st90{fill:url(#SVGID_00000034063065760338329890000013485809166152741268_);} .st91{fill:url(#SVGID_00000167378637927002448060000015417791775598403499_);} .st92{fill:#006750;} .st93{fill:#050505;} .st94{fill:#262223;} .st95{fill:#40A448;} .st96{fill:#3FA9F5;} .st97{fill:#611417;} .st98{fill:#0D0B0E;} .st99{fill:#B51310;} .st100{fill:#040404;} .st101{fill:#141414;} .st102{fill:#171717;} .st103{fill:#212121;} .st104{fill:#0B0B0B;} .st105{fill:#0A0A0A;} .st106{fill:#1B1B1B;} .st107{fill:#CE3C78;} .st108{fill:#874630;} .st109{fill:#0972BA;} .st110{fill:#103554;} .st111{fill:#BFBFBF;} .st112{fill:#36547A;} .st113{fill:#EC1C24;} .st114{fill:#161E45;} .st115{fill:#211B1A;} </style> <g> <g> <path class="st115" d="M24.85,41.74c4.24,0.01,8.49,0.01,12.73,0.02c0.26,0,0.52,0,0.83,0c0,1.08,0,2.13,0,3.25 c-1.62,0-3.26,0-4.96,0c0,4.28,0,8.5,0,12.75c-1.18,0-2.3,0-3.48,0c0-4.22,0-8.43,0-12.76c-1.75,0-3.43,0-5.12,0 C24.85,43.92,24.85,42.83,24.85,41.74z"></path> <path class="st115" d="M107.22,53.19c-1.5-1.91-2.94-3.75-4.38-5.59c-0.04,0.02-0.09,0.03-0.13,0.05c0,3.36,0,6.71,0,10.11 c-1.17,0-2.27,0-3.42,0c0-5.29,0-10.59,0-16c1.19,0,2.4-0.01,3.6,0.01c0.25,0,0.33,0.26,0.45,0.43c1.14,1.57,2.27,3.14,3.4,4.71 c0.14,0.19,0.29,0.37,0.47,0.62c0.74-1.02,1.45-2,2.16-2.97c0.41-0.56,0.89-1.09,1.21-1.7c0.49-0.94,1.21-1.22,2.22-1.11 c0.75,0.09,1.51,0.02,2.32,0.02c0,5.35,0,10.65,0,16c-1.12,0-2.25,0-3.44,0c0-3.4,0-6.8,0-10.2c-0.04-0.01-0.08-0.03-0.13-0.04 C110.13,49.38,108.7,51.25,107.22,53.19z"></path> <path class="st115" d="M75.75,57.8c-0.9,0-1.75-0.02-2.6,0.01c-0.32,0.01-0.46-0.17-0.62-0.38c-2.31-3.06-4.62-6.11-6.93-9.16 c-0.11-0.15-0.18-0.35-0.48-0.42c0,3.31,0,6.6,0,9.92c-1.19,0-2.29,0-3.43,0c0-5.31,0-10.62,0-16.01c1,0,1.99,0,2.98,0 c0.3,0,0.39,0.25,0.52,0.44c2.16,2.84,4.31,5.69,6.46,8.53c0.18,0.23,0.36,0.47,0.66,0.86c0-3.39,0-6.57,0-9.79 c1.17,0,2.27,0,3.43,0C75.75,47.1,75.75,52.41,75.75,57.8z"></path> <path class="st115" d="M135.57,49.72c0.03,4.52-3.62,8.31-8.03,8.35c-4.66,0.04-8.36-3.59-8.41-8.24 c-0.05-4.52,3.64-8.32,8.11-8.35C131.84,41.46,135.54,45.12,135.57,49.72z M127.34,54.43c2.53,0.02,4.66-2.09,4.67-4.64 c0-2.53-2.06-4.64-4.56-4.68c-2.59-0.04-4.7,2.04-4.71,4.64C122.71,52.33,124.76,54.41,127.34,54.43z"></path> <path class="st115" d="M57.45,49.78c0.01,4.56-3.64,8.29-8.14,8.3c-4.57,0.01-8.27-3.66-8.27-8.22c-0.01-4.65,3.63-8.36,8.2-8.36 C53.79,41.48,57.44,45.17,57.45,49.78z M49.26,54.43c2.61-0.02,4.64-2.11,4.62-4.73c-0.03-2.57-2.13-4.62-4.7-4.58 c-2.52,0.03-4.57,2.13-4.56,4.67C44.61,52.35,46.72,54.46,49.26,54.43z"></path> <path class="st115" d="M89.16,57.77c-1.22,0-2.32,0-3.41,0c-0.16-0.19-0.1-0.4-0.1-0.59c0-1.57-0.06-3.14,0.02-4.7 c0.05-0.97-0.23-1.75-0.76-2.54c-1.68-2.49-3.3-5.01-4.95-7.52c-0.12-0.18-0.23-0.36-0.41-0.66c1.03,0,1.97,0.06,2.91-0.02 c0.86-0.08,1.37,0.21,1.8,0.97c0.98,1.71,2.07,3.36,3.17,5.12c0.84-1.31,1.65-2.57,2.46-3.83c0.4-0.62,0.8-1.24,1.18-1.88 c0.15-0.25,0.31-0.37,0.62-0.37c1.15,0.02,2.31,0.01,3.46,0.01c0.09,0.26-0.11,0.39-0.21,0.54c-1.84,2.8-3.68,5.6-5.53,8.39 c-0.18,0.27-0.24,0.54-0.24,0.85c0.01,1.85,0,3.7,0,5.55C89.16,57.3,89.16,57.51,89.16,57.77z"></path> <path class="st115" d="M156.74,57.77c0-2.04-0.01-4.04,0.01-6.04c0-0.44-0.11-0.79-0.34-1.15c-1.83-2.78-3.64-5.57-5.46-8.35 c-0.08-0.12-0.22-0.22-0.18-0.47c1.24,0,2.49,0.01,3.74,0c0.32,0,0.38,0.26,0.5,0.44c1.16,1.84,2.31,3.68,3.46,5.53 c0.25-0.06,0.31-0.29,0.41-0.46c1.09-1.7,2.17-3.41,3.26-5.11c0.13-0.2,0.22-0.41,0.53-0.41c1.19,0.01,2.38,0,3.56,0 c0.1,0.26-0.08,0.37-0.17,0.5c-1.84,2.8-3.68,5.59-5.53,8.38c-0.19,0.29-0.26,0.57-0.26,0.91c0.01,1.85,0.01,3.7,0.01,5.55 c0,0.21,0,0.42,0,0.67C159.08,57.77,157.96,57.77,156.74,57.77z"></path> <path class="st115" d="M150.93,54.59c0,1.08,0,2.09,0,3.16c-3.79,0-7.58,0-11.4,0c0-5.31,0-10.61,0-15.95c1.16,0,2.3,0,3.5,0 c0,4.26,0,8.49,0,12.79C145.7,54.59,148.3,54.59,150.93,54.59z"></path> <path class="st115" d="M170.48,49.01c2.52,0,4.53,2.05,4.52,4.59c-0.01,2.42-2.08,4.47-4.52,4.48c-2.48,0-4.55-2.04-4.55-4.5 C165.93,51.03,167.95,49,170.48,49.01z M171.7,51.93c0,0.94,0,1.78,0,2.62c0,0.83,0,1.66,0,2.53c2.02-0.74,3.02-2.84,2.37-4.74 c-0.08-0.23-0.14-0.43-0.47-0.42C172.99,51.95,172.39,51.93,171.7,51.93z M173.31,51.17c-1.07-1.87-4.5-1.97-5.71,0 C169.52,51.17,171.4,51.17,173.31,51.17z M166.7,53.73c0.15,1.67,1.09,2.9,2.43,3.27c0-1.1,0-2.19,0-3.27 C168.3,53.73,167.53,53.73,166.7,53.73z M170.95,52.96c0.01-0.38,0.08-0.69-0.06-1.03c-1.05,0-2.09,0-3.13,0 c-0.89,0-0.93,0.04-0.96,1.03C168.16,52.96,169.52,52.96,170.95,52.96z M169.96,53.72c0,1.22,0,2.39,0,3.57 c0.35,0.03,0.67,0.1,0.97-0.05c0-1.18,0-2.32,0-3.46C170.61,53.64,170.31,53.72,169.96,53.72z"></path> </g> </g> </svg> 